solid OpenSCAD_Model
  facet normal -1 0 0
    outer loop
      vertex 0 0 0
      vertex 0 0 11
      vertex 0 7.5 4
    endloop
  endfacet
  facet normal -1 0 0
    outer loop
      vertex 0 0 0
      vertex 0 7.5 4
      vertex 0 15 0
    endloop
  endfacet
  facet normal -1 0 0
    outer loop
      vertex 0 8.3 11
      vertex 0 15 0
      vertex 0 8.3 4
    endloop
  endfacet
  facet normal -1 0 0
    outer loop
      vertex 0 7.5 4
      vertex 0 8.3 4
      vertex 0 15 0
    endloop
  endfacet
  facet normal -1 0 0
    outer loop
      vertex 0 15 0
      vertex 0 8.3 11
      vertex 0 15 11
    endloop
  endfacet
  facet normal -1 0 0
    outer loop
      vertex 0 7.5 4
      vertex 0 0 11
      vertex 0 7.5 11
    endloop
  endfacet
  facet normal 0 -1 0
    outer loop
      vertex 8.9 0 4
      vertex 0 0 0
      vertex 15 0 0
    endloop
  endfacet
  facet normal 0 -1 0
    outer loop
      vertex 7.5 0 4
      vertex 7.5 0 11
      vertex 0 0 11
    endloop
  endfacet
  facet normal 0 -1 0
    outer loop
      vertex 15 0 11
      vertex 8.9 0 11
      vertex 15 0 0
    endloop
  endfacet
  facet normal 0 -1 0
    outer loop
      vertex 7.5 0 4
      vertex 0 0 0
      vertex 8.9 0 4
    endloop
  endfacet
  facet normal 0 -1 0
    outer loop
      vertex 0 0 11
      vertex 0 0 0
      vertex 7.5 0 4
    endloop
  endfacet
  facet normal 0 -1 0
    outer loop
      vertex 8.9 0 11
      vertex 8.9 0 4
      vertex 15 0 0
    endloop
  endfacet
  facet normal 0 0 -1
    outer loop
      vertex 0 0 0
      vertex 0 15 0
      vertex 15 0 0
    endloop
  endfacet
  facet normal 0 0 -1
    outer loop
      vertex 15 0 0
      vertex 0 15 0
      vertex 15 15 0
    endloop
  endfacet
  facet normal 0 1 0
    outer loop
      vertex 0 15 0
      vertex 0 15 11
      vertex 6.7 15 4
    endloop
  endfacet
  facet normal 0 1 0
    outer loop
      vertex 0 15 0
      vertex 6.7 15 4
      vertex 15 15 0
    endloop
  endfacet
  facet normal 0 1 0
    outer loop
      vertex 8.1 15 11
      vertex 15 15 0
      vertex 8.1 15 4
    endloop
  endfacet
  facet normal 0 1 0
    outer loop
      vertex 6.7 15 4
      vertex 7.5 15 4
      vertex 15 15 0
    endloop
  endfacet
  facet normal 0 1 0
    outer loop
      vertex 7.5 15 4
      vertex 8.1 15 4
      vertex 15 15 0
    endloop
  endfacet
  facet normal 0 1 0
    outer loop
      vertex 15 15 0
      vertex 8.1 15 11
      vertex 15 15 11
    endloop
  endfacet
  facet normal 0 1 0
    outer loop
      vertex 6.7 15 4
      vertex 0 15 11
      vertex 6.7 15 11
    endloop
  endfacet
  facet normal 0 0 1
    outer loop
      vertex 3.51106 8.22754 11
      vertex 4.2991 7.7928 11
      vertex 0 15 11
    endloop
  endfacet
  facet normal 0 0 1
    outer loop
      vertex 0 15 11
      vertex 0 8.3 11
      vertex 1.06261 8.21637 11
    endloop
  endfacet
  facet normal 0 0 1
    outer loop
      vertex 2.0936 8.65025 11
      vertex 0 15 11
      vertex 1.21886 8.86196 11
    endloop
  endfacet
  facet normal 0 0 1
    outer loop
      vertex 1.21886 8.86196 11
      vertex 0 15 11
      vertex 1.06261 8.21637 11
    endloop
  endfacet
  facet normal 0 0 1
    outer loop
      vertex 2.56484 7.89377 11
      vertex 0 15 11
      vertex 2.0936 8.65025 11
    endloop
  endfacet
  facet normal 0 0 1
    outer loop
      vertex 2.56484 7.89377 11
      vertex 2.0936 8.65025 11
      vertex 1.94645 8.04223 11
    endloop
  endfacet
  facet normal 0 0 1
    outer loop
      vertex 4.87862 6.71484 11
      vertex 5.09087 6.53356 11
      vertex 4.2991 7.7928 11
    endloop
  endfacet
  facet normal 0 0 1
    outer loop
      vertex 2.56484 7.89377 11
      vertex 3.18517 7.63682 11
      vertex 0 15 11
    endloop
  endfacet
  facet normal 0 0 1
    outer loop
      vertex 3.18517 7.63682 11
      vertex 3.51106 8.22754 11
      vertex 0 15 11
    endloop
  endfacet
  facet normal 0 0 1
    outer loop
      vertex 4.2991 7.7928 11
      vertex 5.09087 6.53356 11
      vertex 0 15 11
    endloop
  endfacet
  facet normal 0 0 1
    outer loop
      vertex 4.00108 7.2526 11
      vertex 4.87862 6.71484 11
      vertex 4.2991 7.7928 11
    endloop
  endfacet
  facet normal 0 0 1
    outer loop
      vertex 5.55506 7.01151 11
      vertex 6.20069 6.38447 11
      vertex 0 15 11
    endloop
  endfacet
  facet normal 0 0 1
    outer loop
      vertex 7.20637 5.29983 11
      vertex 15 0 11
      vertex 0 15 11
    endloop
  endfacet
  facet normal 0 0 1
    outer loop
      vertex 5.09087 6.53356 11
      vertex 5.55506 7.01151 11
      vertex 0 15 11
    endloop
  endfacet
  facet normal 0 0 1
    outer loop
      vertex 6.20069 6.38447 11
      vertex 7.20637 5.29983 11
      vertex 0 15 11
    endloop
  endfacet
  facet normal 0 0 1
    outer loop
      vertex 5.86899 5.86899 11
      vertex 6.64046 4.96571 11
      vertex 6.20069 6.38447 11
    endloop
  endfacet
  facet normal 0 0 1
    outer loop
      vertex 5.77664 5.94786 11
      vertex 5.86899 5.86899 11
      vertex 6.20069 6.38447 11
    endloop
  endfacet
  facet normal 0 0 1
    outer loop
      vertex 7.39535 3.76812 11
      vertex 7.6986 3.03603 11
      vertex 7.66394 4.52482 11
    endloop
  endfacet
  facet normal 0 0 1
    outer loop
      vertex 6.64046 4.96571 11
      vertex 7.20637 5.29983 11
      vertex 6.20069 6.38447 11
    endloop
  endfacet
  facet normal 0 0 1
    outer loop
      vertex 7.66394 4.52482 11
      vertex 15 0 11
      vertex 7.20637 5.29983 11
    endloop
  endfacet
  facet normal 0 0 1
    outer loop
      vertex 7.1262 4.20734 11
      vertex 7.39535 3.76812 11
      vertex 7.66394 4.52482 11
    endloop
  endfacet
  facet normal 0 0 1
    outer loop
      vertex 8.34826 3.2135 11
      vertex 15 0 11
      vertex 7.66394 4.52482 11
    endloop
  endfacet
  facet normal 0 0 1
    outer loop
      vertex 7.9858 2.18151 11
      vertex 8.19781 1.29841 11
      vertex 8.58543 2.34531 11
    endloop
  endfacet
  facet normal 0 0 1
    outer loop
      vertex 7.6986 3.03603 11
      vertex 8.34826 3.2135 11
      vertex 7.66394 4.52482 11
    endloop
  endfacet
  facet normal 0 0 1
    outer loop
      vertex 8.58543 2.34531 11
      vertex 15 0 11
      vertex 8.34826 3.2135 11
    endloop
  endfacet
  facet normal 0 0 1
    outer loop
      vertex 8.19781 1.29841 11
      vertex 8.22917 0.9 11
      vertex 8.58543 2.34531 11
    endloop
  endfacet
  facet normal 0 0 1
    outer loop
      vertex 8.9 0.9 11
      vertex 15 0 11
      vertex 8.58543 2.34531 11
    endloop
  endfacet
  facet normal 0 0 1
    outer loop
      vertex 8.22917 0.9 11
      vertex 8.9 0.9 11
      vertex 8.58543 2.34531 11
    endloop
  endfacet
  facet normal 0 0 1
    outer loop
      vertex 7.60465 11.2319 11
      vertex 7.10623 12.4352 11
      vertex 0 15 11
    endloop
  endfacet
  facet normal 0 0 1
    outer loop
      vertex 8.9 0 11
      vertex 15 0 11
      vertex 8.9 0.9 11
    endloop
  endfacet
  facet normal 0 0 1
    outer loop
      vertex 8.28516 10.1214 11
      vertex 7.60465 11.2319 11
      vertex 0 15 11
    endloop
  endfacet
  facet normal 0 0 1
    outer loop
      vertex 15 0 11
      vertex 15 6.7 11
      vertex 13.7016 6.80219 11
    endloop
  endfacet
  facet normal 0 0 1
    outer loop
      vertex 15 0 11
      vertex 13.7016 6.80219 11
      vertex 12.4352 7.10623 11
    endloop
  endfacet
  facet normal 0 0 1
    outer loop
      vertex 15 0 11
      vertex 12.4352 7.10623 11
      vertex 11.2319 7.60465 11
    endloop
  endfacet
  facet normal 0 0 1
    outer loop
      vertex 15 0 11
      vertex 10.1214 8.28516 11
      vertex 0 15 11
    endloop
  endfacet
  facet normal 0 0 1
    outer loop
      vertex 15 0 11
      vertex 11.2319 7.60465 11
      vertex 10.1214 8.28516 11
    endloop
  endfacet
  facet normal 0 0 1
    outer loop
      vertex 7.10623 12.4352 11
      vertex 6.80219 13.7016 11
      vertex 0 15 11
    endloop
  endfacet
  facet normal 0 0 1
    outer loop
      vertex 6.80219 13.7016 11
      vertex 6.7 15 11
      vertex 0 15 11
    endloop
  endfacet
  facet normal 0 0 1
    outer loop
      vertex 10.1214 8.28516 11
      vertex 9.13101 9.13101 11
      vertex 0 15 11
    endloop
  endfacet
  facet normal 0 0 1
    outer loop
      vertex 9.13101 9.13101 11
      vertex 8.28516 10.1214 11
      vertex 0 15 11
    endloop
  endfacet
  facet normal -0.0784593 -0.996917 0
    outer loop
      vertex 1.06261 8.21637 4
      vertex 1.06261 8.21637 11
      vertex 0 8.3 11
    endloop
  endfacet
  facet normal -0.0784593 -0.996917 0
    outer loop
      vertex 0 8.3 4
      vertex 1.06261 8.21637 4
      vertex 0 8.3 11
    endloop
  endfacet
  facet normal 0 0 1
    outer loop
      vertex 5.09087 6.53356 4
      vertex 4.87862 6.71484 4
      vertex 1.17326 7.40766 4
    endloop
  endfacet
  facet normal 0 0 1
    outer loop
      vertex 3.40493 6.68255 4
      vertex 5.86899 5.86899 4
      vertex 2.31763 7.13292 4
    endloop
  endfacet
  facet normal 0 0 1
    outer loop
      vertex 4.87862 6.71484 4
      vertex 4.00108 7.2526 4
      vertex 1.17326 7.40766 4
    endloop
  endfacet
  facet normal 0 0 1
    outer loop
      vertex 6.06763 4.40839 4
      vertex 7.9858 2.18151 4
      vertex 5.3033 5.3033 4
    endloop
  endfacet
  facet normal 0 0 1
    outer loop
      vertex 8.19781 1.29841 4
      vertex 7.9858 2.18151 4
      vertex 6.06763 4.40839 4
    endloop
  endfacet
  facet normal 0 0 1
    outer loop
      vertex 7.40766 1.17326 4
      vertex 8.9 0 4
      vertex 7.13292 2.31763 4
    endloop
  endfacet
  facet normal 0 0 1
    outer loop
      vertex 8.22917 0.9 4
      vertex 6.06763 4.40839 4
      vertex 6.68255 3.40493 4
    endloop
  endfacet
  facet normal 0 0 1
    outer loop
      vertex 7.5 0 4
      vertex 8.9 0 4
      vertex 7.40766 1.17326 4
    endloop
  endfacet
  facet normal 0 0 1
    outer loop
      vertex 7.13292 2.31763 4
      vertex 8.22917 0.9 4
      vertex 6.68255 3.40493 4
    endloop
  endfacet
  facet normal 0 0 1
    outer loop
      vertex 7.13292 2.31763 4
      vertex 8.9 0 4
      vertex 8.22917 0.9 4
    endloop
  endfacet
  facet normal 0 0 1
    outer loop
      vertex 8.34826 3.2135 4
      vertex 7.6986 3.03603 4
      vertex 8.58543 2.34531 4
    endloop
  endfacet
  facet normal 0 0 1
    outer loop
      vertex 5.55506 7.01151 4
      vertex 5.09087 6.53356 4
      vertex 6.20069 6.38447 4
    endloop
  endfacet
  facet normal 0 0 1
    outer loop
      vertex 7.6986 3.03603 4
      vertex 7.39535 3.76812 4
      vertex 5.3033 5.3033 4
    endloop
  endfacet
  facet normal 0 0 1
    outer loop
      vertex 7.20637 5.29983 4
      vertex 6.64046 4.96571 4
      vertex 7.66394 4.52482 4
    endloop
  endfacet
  facet normal 0 0 1
    outer loop
      vertex 7.9858 2.18151 4
      vertex 7.6986 3.03603 4
      vertex 5.3033 5.3033 4
    endloop
  endfacet
  facet normal 0 0 1
    outer loop
      vertex 7.9858 2.18151 4
      vertex 8.58543 2.34531 4
      vertex 7.6986 3.03603 4
    endloop
  endfacet
  facet normal 0 0 1
    outer loop
      vertex 7.39535 3.76812 4
      vertex 4.40839 6.06763 4
      vertex 5.3033 5.3033 4
    endloop
  endfacet
  facet normal 0 0 1
    outer loop
      vertex 7.39535 3.76812 4
      vertex 7.1262 4.20734 4
      vertex 4.40839 6.06763 4
    endloop
  endfacet
  facet normal 0 0 1
    outer loop
      vertex 6.64046 4.96571 4
      vertex 3.40493 6.68255 4
      vertex 4.40839 6.06763 4
    endloop
  endfacet
  facet normal 0 0 1
    outer loop
      vertex 5.86899 5.86899 4
      vertex 5.77664 5.94786 4
      vertex 2.31763 7.13292 4
    endloop
  endfacet
  facet normal 0 0 1
    outer loop
      vertex 6.64046 4.96571 4
      vertex 5.86899 5.86899 4
      vertex 3.40493 6.68255 4
    endloop
  endfacet
  facet normal 0 0 1
    outer loop
      vertex 7.1262 4.20734 4
      vertex 6.64046 4.96571 4
      vertex 4.40839 6.06763 4
    endloop
  endfacet
  facet normal 0 0 1
    outer loop
      vertex 7.1262 4.20734 4
      vertex 7.66394 4.52482 4
      vertex 6.64046 4.96571 4
    endloop
  endfacet
  facet normal 0 0 1
    outer loop
      vertex 5.09087 6.53356 4
      vertex 1.17326 7.40766 4
      vertex 2.31763 7.13292 4
    endloop
  endfacet
  facet normal 0 0 1
    outer loop
      vertex 5.77664 5.94786 4
      vertex 5.09087 6.53356 4
      vertex 2.31763 7.13292 4
    endloop
  endfacet
  facet normal 0 0 1
    outer loop
      vertex 5.77664 5.94786 4
      vertex 6.20069 6.38447 4
      vertex 5.09087 6.53356 4
    endloop
  endfacet
  facet normal 0 0 1
    outer loop
      vertex 3.51106 8.22754 4
      vertex 3.18517 7.63682 4
      vertex 4.2991 7.7928 4
    endloop
  endfacet
  facet normal 0 0 1
    outer loop
      vertex 3.18517 7.63682 4
      vertex 2.56484 7.89377 4
      vertex 1.17326 7.40766 4
    endloop
  endfacet
  facet normal 0 0 1
    outer loop
      vertex 1.94645 8.04223 4
      vertex 2.0936 8.65025 4
      vertex 1.17326 7.40766 4
    endloop
  endfacet
  facet normal 0 0 1
    outer loop
      vertex 4.00108 7.2526 4
      vertex 3.18517 7.63682 4
      vertex 1.17326 7.40766 4
    endloop
  endfacet
  facet normal 0 0 1
    outer loop
      vertex 4.00108 7.2526 4
      vertex 4.2991 7.7928 4
      vertex 3.18517 7.63682 4
    endloop
  endfacet
  facet normal 0 0 1
    outer loop
      vertex 2.56484 7.89377 4
      vertex 1.94645 8.04223 4
      vertex 1.17326 7.40766 4
    endloop
  endfacet
  facet normal 0 0 1
    outer loop
      vertex 1.06261 8.21637 4
      vertex 0 8.3 4
      vertex 1.17326 7.40766 4
    endloop
  endfacet
  facet normal 0 0 1
    outer loop
      vertex 2.0936 8.65025 4
      vertex 1.21886 8.86196 4
      vertex 1.17326 7.40766 4
    endloop
  endfacet
  facet normal 0 0 1
    outer loop
      vertex 1.21886 8.86196 4
      vertex 1.06261 8.21637 4
      vertex 1.17326 7.40766 4
    endloop
  endfacet
  facet normal 0 0 1
    outer loop
      vertex 8.22917 0.9 4
      vertex 8.19781 1.29841 4
      vertex 6.06763 4.40839 4
    endloop
  endfacet
  facet normal 0 0 1
    outer loop
      vertex 0 7.5 4
      vertex 1.17326 7.40766 4
      vertex 0 8.3 4
    endloop
  endfacet
  facet normal 0 0 1
    outer loop
      vertex 8.9 0.9 4
      vertex 8.22917 0.9 4
      vertex 8.9 0 4
    endloop
  endfacet
  facet normal 0.0784588 0.996917 0
    outer loop
      vertex 0 7.5 4
      vertex 0 7.5 11
      vertex 1.17326 7.40766 4
    endloop
  endfacet
  facet normal 0.0784588 0.996917 0
    outer loop
      vertex 1.17326 7.40766 4
      vertex 0 7.5 11
      vertex 1.17326 7.40766 11
    endloop
  endfacet
  facet normal 0 0 1
    outer loop
      vertex 0 7.5 11
      vertex 0 0 11
      vertex 7.5 0 11
    endloop
  endfacet
  facet normal 0 0 1
    outer loop
      vertex 7.13292 2.31763 11
      vertex 0 7.5 11
      vertex 7.40766 1.17326 11
    endloop
  endfacet
  facet normal 0 0 1
    outer loop
      vertex 7.40766 1.17326 11
      vertex 0 7.5 11
      vertex 7.5 0 11
    endloop
  endfacet
  facet normal 0 0 1
    outer loop
      vertex 6.68255 3.40493 11
      vertex 0 7.5 11
      vertex 7.13292 2.31763 11
    endloop
  endfacet
  facet normal 0 0 1
    outer loop
      vertex 6.06763 4.40839 11
      vertex 0 7.5 11
      vertex 6.68255 3.40493 11
    endloop
  endfacet
  facet normal 0 0 1
    outer loop
      vertex 5.3033 5.3033 11
      vertex 0 7.5 11
      vertex 6.06763 4.40839 11
    endloop
  endfacet
  facet normal 0 0 1
    outer loop
      vertex 4.40839 6.06763 11
      vertex 0 7.5 11
      vertex 5.3033 5.3033 11
    endloop
  endfacet
  facet normal 0 0 1
    outer loop
      vertex 3.40493 6.68255 11
      vertex 0 7.5 11
      vertex 4.40839 6.06763 11
    endloop
  endfacet
  facet normal 0 0 1
    outer loop
      vertex 2.31763 7.13292 11
      vertex 0 7.5 11
      vertex 3.40493 6.68255 11
    endloop
  endfacet
  facet normal 0 0 1
    outer loop
      vertex 1.17326 7.40766 11
      vertex 0 7.5 11
      vertex 2.31763 7.13292 11
    endloop
  endfacet
  facet normal 0.996917 0.0784588 0
    outer loop
      vertex 7.5 0 4
      vertex 7.40766 1.17326 4
      vertex 7.40766 1.17326 11
    endloop
  endfacet
  facet normal 0.996917 0.0784588 0
    outer loop
      vertex 7.5 0 11
      vertex 7.5 0 4
      vertex 7.40766 1.17326 11
    endloop
  endfacet
  facet normal -1 0 0
    outer loop
      vertex 8.9 0.9 11
      vertex 8.9 0.9 4
      vertex 8.9 0 11
    endloop
  endfacet
  facet normal -1 0 0
    outer loop
      vertex 8.9 0 11
      vertex 8.9 0.9 4
      vertex 8.9 0 4
    endloop
  endfacet
  facet normal 1 0 0
    outer loop
      vertex 15 7.5 4
      vertex 15 0 0
      vertex 15 15 0
    endloop
  endfacet
  facet normal 1 0 0
    outer loop
      vertex 15 6.7 4
      vertex 15 6.7 11
      vertex 15 0 11
    endloop
  endfacet
  facet normal 1 0 0
    outer loop
      vertex 15 15 11
      vertex 15 7.5 11
      vertex 15 15 0
    endloop
  endfacet
  facet normal 1 0 0
    outer loop
      vertex 15 6.7 4
      vertex 15 0 0
      vertex 15 7.5 4
    endloop
  endfacet
  facet normal 1 0 0
    outer loop
      vertex 15 0 11
      vertex 15 0 0
      vertex 15 6.7 4
    endloop
  endfacet
  facet normal 1 0 0
    outer loop
      vertex 15 7.5 11
      vertex 15 7.5 4
      vertex 15 15 0
    endloop
  endfacet
  facet normal 0 0 1
    outer loop
      vertex 8.1 15 11
      vertex 7.5 15 11
      vertex 7.57074 14.1011 11
    endloop
  endfacet
  facet normal 0 0 1
    outer loop
      vertex 8.29935 13.3534 11
      vertex 8.1 15 11
      vertex 8.08458 14.2274 11
    endloop
  endfacet
  facet normal 0 0 1
    outer loop
      vertex 8.08458 14.2274 11
      vertex 8.1 15 11
      vertex 7.57074 14.1011 11
    endloop
  endfacet
  facet normal 0 0 1
    outer loop
      vertex 8.46875 12.5994 11
      vertex 8.1 15 11
      vertex 8.29935 13.3534 11
    endloop
  endfacet
  facet normal 0 0 1
    outer loop
      vertex 7.86708 12.6824 11
      vertex 8.29935 13.3534 11
      vertex 7.73904 13.2157 11
    endloop
  endfacet
  facet normal 0 0 1
    outer loop
      vertex 8.00246 12.3555 11
      vertex 8.29935 13.3534 11
      vertex 7.86708 12.6824 11
    endloop
  endfacet
  facet normal 0 0 1
    outer loop
      vertex 8.46875 12.5994 11
      vertex 8.29935 13.3534 11
      vertex 8.00246 12.3555 11
    endloop
  endfacet
  facet normal 0 0 1
    outer loop
      vertex 8.88589 11.8019 11
      vertex 8.1 15 11
      vertex 8.46875 12.5994 11
    endloop
  endfacet
  facet normal 0 0 1
    outer loop
      vertex 9.23032 11.1102 11
      vertex 8.1 15 11
      vertex 8.88589 11.8019 11
    endloop
  endfacet
  facet normal 0 0 1
    outer loop
      vertex 8.83066 10.7576 11
      vertex 8.88589 11.8019 11
      vertex 8.35944 11.5266 11
    endloop
  endfacet
  facet normal 0 0 1
    outer loop
      vertex 9.23032 11.1102 11
      vertex 8.88589 11.8019 11
      vertex 8.83066 10.7576 11
    endloop
  endfacet
  facet normal 0 0 1
    outer loop
      vertex 9.82572 10.4353 11
      vertex 8.1 15 11
      vertex 9.23032 11.1102 11
    endloop
  endfacet
  facet normal 0 0 1
    outer loop
      vertex 10.3253 9.84568 11
      vertex 8.1 15 11
      vertex 9.82572 10.4353 11
    endloop
  endfacet
  facet normal 0 0 1
    outer loop
      vertex 9.6967 9.6967 11
      vertex 9.82572 10.4353 11
      vertex 9.3924 10.053 11
    endloop
  endfacet
  facet normal 0 0 1
    outer loop
      vertex 10.0263 9.41516 11
      vertex 9.82572 10.4353 11
      vertex 9.6967 9.6967 11
    endloop
  endfacet
  facet normal 0 0 1
    outer loop
      vertex 10.3253 9.84568 11
      vertex 9.82572 10.4353 11
      vertex 10.0263 9.41516 11
    endloop
  endfacet
  facet normal 0 0 1
    outer loop
      vertex 11.0645 9.33236 11
      vertex 8.1 15 11
      vertex 10.3253 9.84568 11
    endloop
  endfacet
  facet normal 0 0 1
    outer loop
      vertex 11.6904 8.87903 11
      vertex 8.1 15 11
      vertex 11.0645 9.33236 11
    endloop
  endfacet
  facet normal 0 0 1
    outer loop
      vertex 11.498 8.37697 11
      vertex 11.0645 9.33236 11
      vertex 10.7285 8.84847 11
    endloop
  endfacet
  facet normal 0 0 1
    outer loop
      vertex 11.6904 8.87903 11
      vertex 11.0645 9.33236 11
      vertex 11.498 8.37697 11
    endloop
  endfacet
  facet normal 0 0 1
    outer loop
      vertex 12.5308 8.55695 11
      vertex 8.1 15 11
      vertex 11.6904 8.87903 11
    endloop
  endfacet
  facet normal 0 0 1
    outer loop
      vertex 13.1815 7.74725 11
      vertex 8.1 15 11
      vertex 12.5308 8.55695 11
    endloop
  endfacet
  facet normal 0 0 1
    outer loop
      vertex 12.6824 7.86708 11
      vertex 12.5308 8.55695 11
      vertex 12.3234 8.01578 11
    endloop
  endfacet
  facet normal 0 0 1
    outer loop
      vertex 13.1815 7.74725 11
      vertex 12.5308 8.55695 11
      vertex 12.6824 7.86708 11
    endloop
  endfacet
  facet normal 0 0 1
    outer loop
      vertex 13.2467 8.26606 11
      vertex 8.1 15 11
      vertex 13.1815 7.74725 11
    endloop
  endfacet
  facet normal 0 0 1
    outer loop
      vertex 14.1397 8.15385 11
      vertex 8.1 15 11
      vertex 13.2467 8.26606 11
    endloop
  endfacet
  facet normal 0 0 1
    outer loop
      vertex 15 7.5 11
      vertex 8.1 15 11
      vertex 14.1397 8.15385 11
    endloop
  endfacet
  facet normal 0 0 1
    outer loop
      vertex 15 7.5 11
      vertex 14.1397 8.15385 11
      vertex 14.0667 7.57345 11
    endloop
  endfacet
  facet normal 0 0 1
    outer loop
      vertex 15 15 11
      vertex 8.1 15 11
      vertex 15 7.5 11
    endloop
  endfacet
  facet normal 0 1 0
    outer loop
      vertex 7.5 15 4
      vertex 7.5 15 11
      vertex 8.1 15 4
    endloop
  endfacet
  facet normal 0 1 0
    outer loop
      vertex 8.1 15 4
      vertex 7.5 15 11
      vertex 8.1 15 11
    endloop
  endfacet
  facet normal 0 0 1
    outer loop
      vertex 6.80219 13.7016 4
      vertex 7.10623 12.4352 4
      vertex 7.60465 11.2319 4
    endloop
  endfacet
  facet normal 0 0 1
    outer loop
      vertex 9.13101 9.13101 4
      vertex 6.80219 13.7016 4
      vertex 8.28516 10.1214 4
    endloop
  endfacet
  facet normal 0 0 1
    outer loop
      vertex 8.28516 10.1214 4
      vertex 6.80219 13.7016 4
      vertex 7.60465 11.2319 4
    endloop
  endfacet
  facet normal 0 0 1
    outer loop
      vertex 10.1214 8.28516 4
      vertex 6.80219 13.7016 4
      vertex 9.13101 9.13101 4
    endloop
  endfacet
  facet normal 0 0 1
    outer loop
      vertex 8.83066 10.7576 4
      vertex 6.80219 13.7016 4
      vertex 10.1214 8.28516 4
    endloop
  endfacet
  facet normal 0 0 1
    outer loop
      vertex 10.0263 9.41516 4
      vertex 9.6967 9.6967 4
      vertex 11.2319 7.60465 4
    endloop
  endfacet
  facet normal 0 0 1
    outer loop
      vertex 12.6824 7.86708 4
      vertex 12.3234 8.01578 4
      vertex 13.7016 6.80219 4
    endloop
  endfacet
  facet normal 0 0 1
    outer loop
      vertex 8.46875 12.5994 4
      vertex 8.35944 11.5266 4
      vertex 8.88589 11.8019 4
    endloop
  endfacet
  facet normal 0 0 1
    outer loop
      vertex 15 7.5 4
      vertex 14.0667 7.57345 4
      vertex 15 6.7 4
    endloop
  endfacet
  facet normal 0 0 1
    outer loop
      vertex 8.00246 12.3555 4
      vertex 7.86708 12.6824 4
      vertex 6.80219 13.7016 4
    endloop
  endfacet
  facet normal 0 0 1
    outer loop
      vertex 13.2467 8.26606 4
      vertex 15 6.7 4
      vertex 14.0667 7.57345 4
    endloop
  endfacet
  facet normal 0 0 1
    outer loop
      vertex 15 6.7 4
      vertex 13.1815 7.74725 4
      vertex 13.7016 6.80219 4
    endloop
  endfacet
  facet normal 0 0 1
    outer loop
      vertex 13.1815 7.74725 4
      vertex 12.6824 7.86708 4
      vertex 13.7016 6.80219 4
    endloop
  endfacet
  facet normal 0 0 1
    outer loop
      vertex 11.6904 8.87903 4
      vertex 11.498 8.37697 4
      vertex 12.3234 8.01578 4
    endloop
  endfacet
  facet normal 0 0 1
    outer loop
      vertex 13.7016 6.80219 4
      vertex 12.3234 8.01578 4
      vertex 12.4352 7.10623 4
    endloop
  endfacet
  facet normal 0 0 1
    outer loop
      vertex 12.3234 8.01578 4
      vertex 11.498 8.37697 4
      vertex 12.4352 7.10623 4
    endloop
  endfacet
  facet normal 0 0 1
    outer loop
      vertex 10.3253 9.84568 4
      vertex 10.0263 9.41516 4
      vertex 10.7285 8.84847 4
    endloop
  endfacet
  facet normal 0 0 1
    outer loop
      vertex 12.4352 7.10623 4
      vertex 10.7285 8.84847 4
      vertex 11.2319 7.60465 4
    endloop
  endfacet
  facet normal 0 0 1
    outer loop
      vertex 8.35944 11.5266 4
      vertex 8.00246 12.3555 4
      vertex 6.80219 13.7016 4
    endloop
  endfacet
  facet normal 0 0 1
    outer loop
      vertex 8.83066 10.7576 4
      vertex 8.35944 11.5266 4
      vertex 6.80219 13.7016 4
    endloop
  endfacet
  facet normal 0 0 1
    outer loop
      vertex 10.7285 8.84847 4
      vertex 10.0263 9.41516 4
      vertex 11.2319 7.60465 4
    endloop
  endfacet
  facet normal 0 0 1
    outer loop
      vertex 9.23032 11.1102 4
      vertex 9.3924 10.053 4
      vertex 9.82572 10.4353 4
    endloop
  endfacet
  facet normal 0 0 1
    outer loop
      vertex 11.2319 7.60465 4
      vertex 9.6967 9.6967 4
      vertex 10.1214 8.28516 4
    endloop
  endfacet
  facet normal 0 0 1
    outer loop
      vertex 9.6967 9.6967 4
      vertex 9.3924 10.053 4
      vertex 10.1214 8.28516 4
    endloop
  endfacet
  facet normal 0 0 1
    outer loop
      vertex 11.498 8.37697 4
      vertex 10.7285 8.84847 4
      vertex 12.4352 7.10623 4
    endloop
  endfacet
  facet normal 0 0 1
    outer loop
      vertex 10.7285 8.84847 4
      vertex 11.0645 9.33236 4
      vertex 10.3253 9.84568 4
    endloop
  endfacet
  facet normal 0 0 1
    outer loop
      vertex 9.3924 10.053 4
      vertex 8.83066 10.7576 4
      vertex 10.1214 8.28516 4
    endloop
  endfacet
  facet normal 0 0 1
    outer loop
      vertex 7.86708 12.6824 4
      vertex 7.73904 13.2157 4
      vertex 6.80219 13.7016 4
    endloop
  endfacet
  facet normal 0 0 1
    outer loop
      vertex 9.23032 11.1102 4
      vertex 8.83066 10.7576 4
      vertex 9.3924 10.053 4
    endloop
  endfacet
  facet normal 0 0 1
    outer loop
      vertex 8.46875 12.5994 4
      vertex 8.00246 12.3555 4
      vertex 8.35944 11.5266 4
    endloop
  endfacet
  facet normal 0 0 1
    outer loop
      vertex 8.29935 13.3534 4
      vertex 6.80219 13.7016 4
      vertex 7.73904 13.2157 4
    endloop
  endfacet
  facet normal 0 0 1
    outer loop
      vertex 8.08458 14.2274 4
      vertex 6.80219 13.7016 4
      vertex 8.29935 13.3534 4
    endloop
  endfacet
  facet normal 0 0 1
    outer loop
      vertex 7.57074 14.1011 4
      vertex 6.80219 13.7016 4
      vertex 8.08458 14.2274 4
    endloop
  endfacet
  facet normal 0 0 1
    outer loop
      vertex 7.5 15 4
      vertex 6.80219 13.7016 4
      vertex 7.57074 14.1011 4
    endloop
  endfacet
  facet normal 0 0 1
    outer loop
      vertex 6.7 15 4
      vertex 6.80219 13.7016 4
      vertex 7.5 15 4
    endloop
  endfacet
  facet normal 0 0 1
    outer loop
      vertex 14.0667 7.57345 4
      vertex 14.1397 8.15385 4
      vertex 13.2467 8.26606 4
    endloop
  endfacet
  facet normal 0 0 1
    outer loop
      vertex 13.2467 8.26606 4
      vertex 13.1815 7.74725 4
      vertex 15 6.7 4
    endloop
  endfacet
  facet normal 0 0 1
    outer loop
      vertex 12.3234 8.01578 4
      vertex 12.5308 8.55695 4
      vertex 11.6904 8.87903 4
    endloop
  endfacet
  facet normal -0.996917 -0.0784588 0
    outer loop
      vertex 7.5 15 4
      vertex 7.57074 14.1011 4
      vertex 7.5 15 11
    endloop
  endfacet
  facet normal -0.996917 -0.0784588 0
    outer loop
      vertex 7.5 15 11
      vertex 7.57074 14.1011 4
      vertex 7.57074 14.1011 11
    endloop
  endfacet
  facet normal 0.996917 0.0784593 0
    outer loop
      vertex 6.7 15 11
      vertex 6.80219 13.7016 11
      vertex 6.80219 13.7016 4
    endloop
  endfacet
  facet normal 0.996917 0.0784593 0
    outer loop
      vertex 6.7 15 4
      vertex 6.7 15 11
      vertex 6.80219 13.7016 4
    endloop
  endfacet
  facet normal 0.97237 0.233445 0
    outer loop
      vertex 6.80219 13.7016 11
      vertex 7.10623 12.4352 11
      vertex 7.10623 12.4352 4
    endloop
  endfacet
  facet normal 0.97237 0.233445 0
    outer loop
      vertex 6.80219 13.7016 4
      vertex 6.80219 13.7016 11
      vertex 7.10623 12.4352 4
    endloop
  endfacet
  facet normal 0.92388 0.382684 0
    outer loop
      vertex 7.10623 12.4352 11
      vertex 7.60465 11.2319 11
      vertex 7.60465 11.2319 4
    endloop
  endfacet
  facet normal 0.92388 0.382684 0
    outer loop
      vertex 7.10623 12.4352 4
      vertex 7.10623 12.4352 11
      vertex 7.60465 11.2319 4
    endloop
  endfacet
  facet normal 0.85264 0.522498 0
    outer loop
      vertex 7.60465 11.2319 11
      vertex 8.28516 10.1214 11
      vertex 8.28516 10.1214 4
    endloop
  endfacet
  facet normal 0.85264 0.522498 0
    outer loop
      vertex 7.60465 11.2319 4
      vertex 7.60465 11.2319 11
      vertex 8.28516 10.1214 4
    endloop
  endfacet
  facet normal 0.760406 0.649448 0
    outer loop
      vertex 8.28516 10.1214 11
      vertex 9.13101 9.13101 11
      vertex 9.13101 9.13101 4
    endloop
  endfacet
  facet normal 0.760406 0.649448 0
    outer loop
      vertex 8.28516 10.1214 4
      vertex 8.28516 10.1214 11
      vertex 9.13101 9.13101 4
    endloop
  endfacet
  facet normal 0.649448 0.760406 0
    outer loop
      vertex 10.1214 8.28516 11
      vertex 10.1214 8.28516 4
      vertex 9.13101 9.13101 11
    endloop
  endfacet
  facet normal 0.649448 0.760406 0
    outer loop
      vertex 9.13101 9.13101 11
      vertex 10.1214 8.28516 4
      vertex 9.13101 9.13101 4
    endloop
  endfacet
  facet normal 0.522498 0.85264 0
    outer loop
      vertex 11.2319 7.60465 11
      vertex 11.2319 7.60465 4
      vertex 10.1214 8.28516 11
    endloop
  endfacet
  facet normal 0.522498 0.85264 0
    outer loop
      vertex 10.1214 8.28516 11
      vertex 11.2319 7.60465 4
      vertex 10.1214 8.28516 4
    endloop
  endfacet
  facet normal 0.382684 0.92388 0
    outer loop
      vertex 12.4352 7.10623 11
      vertex 12.4352 7.10623 4
      vertex 11.2319 7.60465 11
    endloop
  endfacet
  facet normal 0.382684 0.92388 0
    outer loop
      vertex 11.2319 7.60465 11
      vertex 12.4352 7.10623 4
      vertex 11.2319 7.60465 4
    endloop
  endfacet
  facet normal 0.233445 0.97237 0
    outer loop
      vertex 13.7016 6.80219 11
      vertex 13.7016 6.80219 4
      vertex 12.4352 7.10623 11
    endloop
  endfacet
  facet normal 0.233445 0.97237 0
    outer loop
      vertex 12.4352 7.10623 11
      vertex 13.7016 6.80219 4
      vertex 12.4352 7.10623 4
    endloop
  endfacet
  facet normal 0.0784593 0.996917 0
    outer loop
      vertex 15 6.7 11
      vertex 15 6.7 4
      vertex 13.7016 6.80219 11
    endloop
  endfacet
  facet normal 0.0784593 0.996917 0
    outer loop
      vertex 13.7016 6.80219 11
      vertex 15 6.7 4
      vertex 13.7016 6.80219 4
    endloop
  endfacet
  facet normal 0 -1 0
    outer loop
      vertex 8.9 0.9 4
      vertex 8.9 0.9 11
      vertex 8.22917 0.9 11
    endloop
  endfacet
  facet normal 0 -1 0
    outer loop
      vertex 8.22917 0.9 4
      vertex 8.9 0.9 4
      vertex 8.22917 0.9 11
    endloop
  endfacet
  facet normal -0.996917 -0.0784593 0
    outer loop
      vertex 8.22917 0.9 11
      vertex 8.19781 1.29841 11
      vertex 8.22917 0.9 4
    endloop
  endfacet
  facet normal -0.996917 -0.0784593 0
    outer loop
      vertex 8.22917 0.9 4
      vertex 8.19781 1.29841 11
      vertex 8.19781 1.29841 4
    endloop
  endfacet
  facet normal -0.97237 -0.233445 0
    outer loop
      vertex 8.19781 1.29841 11
      vertex 7.9858 2.18151 11
      vertex 8.19781 1.29841 4
    endloop
  endfacet
  facet normal -0.97237 -0.233445 0
    outer loop
      vertex 8.19781 1.29841 4
      vertex 7.9858 2.18151 11
      vertex 7.9858 2.18151 4
    endloop
  endfacet
  facet normal -0.263518 0.964655 0
    outer loop
      vertex 8.58543 2.34531 11
      vertex 8.58543 2.34531 4
      vertex 7.9858 2.18151 11
    endloop
  endfacet
  facet normal -0.263518 0.964655 0
    outer loop
      vertex 7.9858 2.18151 11
      vertex 8.58543 2.34531 4
      vertex 7.9858 2.18151 4
    endloop
  endfacet
  facet normal -0.964655 -0.263518 0
    outer loop
      vertex 8.58543 2.34531 11
      vertex 8.34826 3.2135 11
      vertex 8.58543 2.34531 4
    endloop
  endfacet
  facet normal -0.964655 -0.263518 0
    outer loop
      vertex 8.58543 2.34531 4
      vertex 8.34826 3.2135 11
      vertex 8.34826 3.2135 4
    endloop
  endfacet
  facet normal 0.263518 -0.964655 0
    outer loop
      vertex 8.34826 3.2135 4
      vertex 8.34826 3.2135 11
      vertex 7.6986 3.03603 11
    endloop
  endfacet
  facet normal 0.263518 -0.964655 0
    outer loop
      vertex 7.6986 3.03603 4
      vertex 8.34826 3.2135 4
      vertex 7.6986 3.03603 11
    endloop
  endfacet
  facet normal -0.92388 -0.382684 0
    outer loop
      vertex 7.6986 3.03603 11
      vertex 7.39535 3.76812 11
      vertex 7.6986 3.03603 4
    endloop
  endfacet
  facet normal -0.92388 -0.382684 0
    outer loop
      vertex 7.6986 3.03603 4
      vertex 7.39535 3.76812 11
      vertex 7.39535 3.76812 4
    endloop
  endfacet
  facet normal -0.85264 -0.522498 0
    outer loop
      vertex 7.39535 3.76812 11
      vertex 7.1262 4.20734 11
      vertex 7.39535 3.76812 4
    endloop
  endfacet
  facet normal -0.85264 -0.522498 0
    outer loop
      vertex 7.39535 3.76812 4
      vertex 7.1262 4.20734 11
      vertex 7.1262 4.20734 4
    endloop
  endfacet
  facet normal -0.508407 0.861117 0
    outer loop
      vertex 7.66394 4.52482 11
      vertex 7.66394 4.52482 4
      vertex 7.1262 4.20734 11
    endloop
  endfacet
  facet normal -0.508407 0.861117 0
    outer loop
      vertex 7.1262 4.20734 11
      vertex 7.66394 4.52482 4
      vertex 7.1262 4.20734 4
    endloop
  endfacet
  facet normal -0.861117 -0.508407 0
    outer loop
      vertex 7.66394 4.52482 11
      vertex 7.20637 5.29983 11
      vertex 7.66394 4.52482 4
    endloop
  endfacet
  facet normal -0.861117 -0.508407 0
    outer loop
      vertex 7.66394 4.52482 4
      vertex 7.20637 5.29983 11
      vertex 7.20637 5.29983 4
    endloop
  endfacet
  facet normal 0.508407 -0.861117 0
    outer loop
      vertex 7.20637 5.29983 4
      vertex 7.20637 5.29983 11
      vertex 6.64046 4.96571 11
    endloop
  endfacet
  facet normal 0.508407 -0.861117 0
    outer loop
      vertex 6.64046 4.96571 4
      vertex 7.20637 5.29983 4
      vertex 6.64046 4.96571 11
    endloop
  endfacet
  facet normal -0.760406 -0.649448 0
    outer loop
      vertex 6.64046 4.96571 11
      vertex 5.86899 5.86899 11
      vertex 6.64046 4.96571 4
    endloop
  endfacet
  facet normal -0.760406 -0.649448 0
    outer loop
      vertex 6.64046 4.96571 4
      vertex 5.86899 5.86899 11
      vertex 5.86899 5.86899 4
    endloop
  endfacet
  facet normal -0.649448 -0.760406 0
    outer loop
      vertex 5.86899 5.86899 4
      vertex 5.86899 5.86899 11
      vertex 5.77664 5.94786 11
    endloop
  endfacet
  facet normal -0.649448 -0.760406 0
    outer loop
      vertex 5.77664 5.94786 4
      vertex 5.86899 5.86899 4
      vertex 5.77664 5.94786 11
    endloop
  endfacet
  facet normal -0.717357 0.696706 0
    outer loop
      vertex 6.20069 6.38447 11
      vertex 6.20069 6.38447 4
      vertex 5.77664 5.94786 11
    endloop
  endfacet
  facet normal -0.717357 0.696706 0
    outer loop
      vertex 5.77664 5.94786 11
      vertex 6.20069 6.38447 4
      vertex 5.77664 5.94786 4
    endloop
  endfacet
  facet normal -0.696706 -0.717357 0
    outer loop
      vertex 6.20069 6.38447 4
      vertex 6.20069 6.38447 11
      vertex 5.55506 7.01151 11
    endloop
  endfacet
  facet normal -0.696706 -0.717357 0
    outer loop
      vertex 5.55506 7.01151 4
      vertex 6.20069 6.38447 4
      vertex 5.55506 7.01151 11
    endloop
  endfacet
  facet normal 0.717357 -0.696706 0
    outer loop
      vertex 5.55506 7.01151 4
      vertex 5.55506 7.01151 11
      vertex 5.09087 6.53356 11
    endloop
  endfacet
  facet normal 0.717357 -0.696706 0
    outer loop
      vertex 5.09087 6.53356 4
      vertex 5.55506 7.01151 4
      vertex 5.09087 6.53356 11
    endloop
  endfacet
  facet normal -0.649448 -0.760406 0
    outer loop
      vertex 5.09087 6.53356 4
      vertex 5.09087 6.53356 11
      vertex 4.87862 6.71484 11
    endloop
  endfacet
  facet normal -0.649448 -0.760406 0
    outer loop
      vertex 4.87862 6.71484 4
      vertex 5.09087 6.53356 4
      vertex 4.87862 6.71484 11
    endloop
  endfacet
  facet normal -0.522498 -0.85264 0
    outer loop
      vertex 4.87862 6.71484 4
      vertex 4.87862 6.71484 11
      vertex 4.00108 7.2526 11
    endloop
  endfacet
  facet normal -0.522498 -0.85264 0
    outer loop
      vertex 4.00108 7.2526 4
      vertex 4.87862 6.71484 4
      vertex 4.00108 7.2526 11
    endloop
  endfacet
  facet normal -0.875596 0.483045 0
    outer loop
      vertex 4.2991 7.7928 11
      vertex 4.2991 7.7928 4
      vertex 4.00108 7.2526 11
    endloop
  endfacet
  facet normal -0.875596 0.483045 0
    outer loop
      vertex 4.00108 7.2526 11
      vertex 4.2991 7.7928 4
      vertex 4.00108 7.2526 4
    endloop
  endfacet
  facet normal -0.483045 -0.875596 0
    outer loop
      vertex 4.2991 7.7928 4
      vertex 4.2991 7.7928 11
      vertex 3.51106 8.22754 11
    endloop
  endfacet
  facet normal -0.483045 -0.875596 0
    outer loop
      vertex 3.51106 8.22754 4
      vertex 4.2991 7.7928 4
      vertex 3.51106 8.22754 11
    endloop
  endfacet
  facet normal 0.875596 -0.483045 0
    outer loop
      vertex 3.51106 8.22754 4
      vertex 3.51106 8.22754 11
      vertex 3.18517 7.63682 11
    endloop
  endfacet
  facet normal 0.875596 -0.483045 0
    outer loop
      vertex 3.18517 7.63682 4
      vertex 3.51106 8.22754 4
      vertex 3.18517 7.63682 11
    endloop
  endfacet
  facet normal -0.382684 -0.92388 0
    outer loop
      vertex 3.18517 7.63682 4
      vertex 3.18517 7.63682 11
      vertex 2.56484 7.89377 11
    endloop
  endfacet
  facet normal -0.382684 -0.92388 0
    outer loop
      vertex 2.56484 7.89377 4
      vertex 3.18517 7.63682 4
      vertex 2.56484 7.89377 11
    endloop
  endfacet
  facet normal -0.233445 -0.97237 0
    outer loop
      vertex 2.56484 7.89377 4
      vertex 2.56484 7.89377 11
      vertex 1.94645 8.04223 11
    endloop
  endfacet
  facet normal -0.233445 -0.97237 0
    outer loop
      vertex 1.94645 8.04223 4
      vertex 2.56484 7.89377 4
      vertex 1.94645 8.04223 11
    endloop
  endfacet
  facet normal -0.971938 0.235236 0
    outer loop
      vertex 2.0936 8.65025 11
      vertex 2.0936 8.65025 4
      vertex 1.94645 8.04223 11
    endloop
  endfacet
  facet normal -0.971938 0.235236 0
    outer loop
      vertex 1.94645 8.04223 11
      vertex 2.0936 8.65025 4
      vertex 1.94645 8.04223 4
    endloop
  endfacet
  facet normal -0.235236 -0.971938 0
    outer loop
      vertex 2.0936 8.65025 4
      vertex 2.0936 8.65025 11
      vertex 1.21886 8.86196 11
    endloop
  endfacet
  facet normal -0.235236 -0.971938 0
    outer loop
      vertex 1.21886 8.86196 4
      vertex 2.0936 8.65025 4
      vertex 1.21886 8.86196 11
    endloop
  endfacet
  facet normal 0.971938 -0.235236 0
    outer loop
      vertex 1.21886 8.86196 4
      vertex 1.21886 8.86196 11
      vertex 1.06261 8.21637 11
    endloop
  endfacet
  facet normal 0.971938 -0.235236 0
    outer loop
      vertex 1.06261 8.21637 4
      vertex 1.21886 8.86196 4
      vertex 1.06261 8.21637 11
    endloop
  endfacet
  facet normal 0.233446 0.97237 0
    outer loop
      vertex 1.17326 7.40766 4
      vertex 1.17326 7.40766 11
      vertex 2.31763 7.13292 4
    endloop
  endfacet
  facet normal 0.233446 0.97237 0
    outer loop
      vertex 2.31763 7.13292 4
      vertex 1.17326 7.40766 11
      vertex 2.31763 7.13292 11
    endloop
  endfacet
  facet normal 0.97237 0.233446 0
    outer loop
      vertex 7.40766 1.17326 4
      vertex 7.13292 2.31763 4
      vertex 7.13292 2.31763 11
    endloop
  endfacet
  facet normal 0.97237 0.233446 0
    outer loop
      vertex 7.40766 1.17326 11
      vertex 7.40766 1.17326 4
      vertex 7.13292 2.31763 11
    endloop
  endfacet
  facet normal 0.92388 0.382683 0
    outer loop
      vertex 7.13292 2.31763 4
      vertex 6.68255 3.40493 4
      vertex 6.68255 3.40493 11
    endloop
  endfacet
  facet normal 0.92388 0.382683 0
    outer loop
      vertex 7.13292 2.31763 11
      vertex 7.13292 2.31763 4
      vertex 6.68255 3.40493 11
    endloop
  endfacet
  facet normal 0.85264 0.522499 0
    outer loop
      vertex 6.68255 3.40493 4
      vertex 6.06763 4.40839 4
      vertex 6.06763 4.40839 11
    endloop
  endfacet
  facet normal 0.85264 0.522499 0
    outer loop
      vertex 6.68255 3.40493 11
      vertex 6.68255 3.40493 4
      vertex 6.06763 4.40839 11
    endloop
  endfacet
  facet normal 0.760406 0.649448 0
    outer loop
      vertex 6.06763 4.40839 4
      vertex 5.3033 5.3033 4
      vertex 5.3033 5.3033 11
    endloop
  endfacet
  facet normal 0.760406 0.649448 0
    outer loop
      vertex 6.06763 4.40839 11
      vertex 6.06763 4.40839 4
      vertex 5.3033 5.3033 11
    endloop
  endfacet
  facet normal 0.649448 0.760406 0
    outer loop
      vertex 4.40839 6.06763 4
      vertex 4.40839 6.06763 11
      vertex 5.3033 5.3033 4
    endloop
  endfacet
  facet normal 0.649448 0.760406 0
    outer loop
      vertex 5.3033 5.3033 4
      vertex 4.40839 6.06763 11
      vertex 5.3033 5.3033 11
    endloop
  endfacet
  facet normal 0.522499 0.85264 0
    outer loop
      vertex 3.40493 6.68255 4
      vertex 3.40493 6.68255 11
      vertex 4.40839 6.06763 4
    endloop
  endfacet
  facet normal 0.522499 0.85264 0
    outer loop
      vertex 4.40839 6.06763 4
      vertex 3.40493 6.68255 11
      vertex 4.40839 6.06763 11
    endloop
  endfacet
  facet normal 0.382683 0.92388 0
    outer loop
      vertex 2.31763 7.13292 4
      vertex 2.31763 7.13292 11
      vertex 3.40493 6.68255 4
    endloop
  endfacet
  facet normal 0.382683 0.92388 0
    outer loop
      vertex 3.40493 6.68255 4
      vertex 2.31763 7.13292 11
      vertex 3.40493 6.68255 11
    endloop
  endfacet
  facet normal -0.0784588 -0.996917 0
    outer loop
      vertex 14.0667 7.57345 11
      vertex 14.0667 7.57345 4
      vertex 15 7.5 4
    endloop
  endfacet
  facet normal -0.0784588 -0.996917 0
    outer loop
      vertex 15 7.5 11
      vertex 14.0667 7.57345 11
      vertex 15 7.5 4
    endloop
  endfacet
  facet normal -0.992196 0.124687 0
    outer loop
      vertex 14.1397 8.15385 11
      vertex 14.1397 8.15385 4
      vertex 14.0667 7.57345 11
    endloop
  endfacet
  facet normal -0.992196 0.124687 0
    outer loop
      vertex 14.0667 7.57345 11
      vertex 14.1397 8.15385 4
      vertex 14.0667 7.57345 4
    endloop
  endfacet
  facet normal -0.124687 -0.992196 0
    outer loop
      vertex 14.1397 8.15385 4
      vertex 14.1397 8.15385 11
      vertex 13.2467 8.26606 11
    endloop
  endfacet
  facet normal -0.124687 -0.992196 0
    outer loop
      vertex 13.2467 8.26606 4
      vertex 14.1397 8.15385 4
      vertex 13.2467 8.26606 11
    endloop
  endfacet
  facet normal 0.992196 -0.124687 0
    outer loop
      vertex 13.2467 8.26606 4
      vertex 13.2467 8.26606 11
      vertex 13.1815 7.74725 11
    endloop
  endfacet
  facet normal 0.992196 -0.124687 0
    outer loop
      vertex 13.1815 7.74725 4
      vertex 13.2467 8.26606 4
      vertex 13.1815 7.74725 11
    endloop
  endfacet
  facet normal -0.233446 -0.97237 0
    outer loop
      vertex 12.6824 7.86708 11
      vertex 12.6824 7.86708 4
      vertex 13.1815 7.74725 4
    endloop
  endfacet
  facet normal -0.233446 -0.97237 0
    outer loop
      vertex 13.1815 7.74725 11
      vertex 12.6824 7.86708 11
      vertex 13.1815 7.74725 4
    endloop
  endfacet
  facet normal -0.382683 -0.92388 0
    outer loop
      vertex 12.3234 8.01578 11
      vertex 12.3234 8.01578 4
      vertex 12.6824 7.86708 4
    endloop
  endfacet
  facet normal -0.382683 -0.92388 0
    outer loop
      vertex 12.6824 7.86708 11
      vertex 12.3234 8.01578 11
      vertex 12.6824 7.86708 4
    endloop
  endfacet
  facet normal -0.933775 0.357861 0
    outer loop
      vertex 12.5308 8.55695 11
      vertex 12.5308 8.55695 4
      vertex 12.3234 8.01578 11
    endloop
  endfacet
  facet normal -0.933775 0.357861 0
    outer loop
      vertex 12.3234 8.01578 11
      vertex 12.5308 8.55695 4
      vertex 12.3234 8.01578 4
    endloop
  endfacet
  facet normal -0.357861 -0.933775 0
    outer loop
      vertex 12.5308 8.55695 4
      vertex 12.5308 8.55695 11
      vertex 11.6904 8.87903 11
    endloop
  endfacet
  facet normal -0.357861 -0.933775 0
    outer loop
      vertex 11.6904 8.87903 4
      vertex 12.5308 8.55695 4
      vertex 11.6904 8.87903 11
    endloop
  endfacet
  facet normal 0.933775 -0.357861 0
    outer loop
      vertex 11.6904 8.87903 4
      vertex 11.6904 8.87903 11
      vertex 11.498 8.37697 11
    endloop
  endfacet
  facet normal 0.933775 -0.357861 0
    outer loop
      vertex 11.498 8.37697 4
      vertex 11.6904 8.87903 4
      vertex 11.498 8.37697 11
    endloop
  endfacet
  facet normal -0.522499 -0.85264 0
    outer loop
      vertex 10.7285 8.84847 11
      vertex 10.7285 8.84847 4
      vertex 11.498 8.37697 4
    endloop
  endfacet
  facet normal -0.522499 -0.85264 0
    outer loop
      vertex 11.498 8.37697 11
      vertex 10.7285 8.84847 11
      vertex 11.498 8.37697 4
    endloop
  endfacet
  facet normal -0.821397 0.570357 0
    outer loop
      vertex 11.0645 9.33236 11
      vertex 11.0645 9.33236 4
      vertex 10.7285 8.84847 11
    endloop
  endfacet
  facet normal -0.821397 0.570357 0
    outer loop
      vertex 10.7285 8.84847 11
      vertex 11.0645 9.33236 4
      vertex 10.7285 8.84847 4
    endloop
  endfacet
  facet normal -0.570357 -0.821397 0
    outer loop
      vertex 11.0645 9.33236 4
      vertex 11.0645 9.33236 11
      vertex 10.3253 9.84568 11
    endloop
  endfacet
  facet normal -0.570357 -0.821397 0
    outer loop
      vertex 10.3253 9.84568 4
      vertex 11.0645 9.33236 4
      vertex 10.3253 9.84568 11
    endloop
  endfacet
  facet normal 0.821397 -0.570357 0
    outer loop
      vertex 10.3253 9.84568 4
      vertex 10.3253 9.84568 11
      vertex 10.0263 9.41516 11
    endloop
  endfacet
  facet normal 0.821397 -0.570357 0
    outer loop
      vertex 10.0263 9.41516 4
      vertex 10.3253 9.84568 4
      vertex 10.0263 9.41516 11
    endloop
  endfacet
  facet normal -0.649448 -0.760406 0
    outer loop
      vertex 9.6967 9.6967 11
      vertex 9.6967 9.6967 4
      vertex 10.0263 9.41516 4
    endloop
  endfacet
  facet normal -0.649448 -0.760406 0
    outer loop
      vertex 10.0263 9.41516 11
      vertex 9.6967 9.6967 11
      vertex 10.0263 9.41516 4
    endloop
  endfacet
  facet normal -0.760406 -0.649448 0
    outer loop
      vertex 9.3924 10.053 4
      vertex 9.6967 9.6967 4
      vertex 9.3924 10.053 11
    endloop
  endfacet
  facet normal -0.760406 -0.649448 0
    outer loop
      vertex 9.3924 10.053 11
      vertex 9.6967 9.6967 4
      vertex 9.6967 9.6967 11
    endloop
  endfacet
  facet normal -0.661556 0.749896 0
    outer loop
      vertex 9.82572 10.4353 11
      vertex 9.82572 10.4353 4
      vertex 9.3924 10.053 11
    endloop
  endfacet
  facet normal -0.661556 0.749896 0
    outer loop
      vertex 9.3924 10.053 11
      vertex 9.82572 10.4353 4
      vertex 9.3924 10.053 4
    endloop
  endfacet
  facet normal -0.749896 -0.661556 0
    outer loop
      vertex 9.82572 10.4353 11
      vertex 9.23032 11.1102 11
      vertex 9.82572 10.4353 4
    endloop
  endfacet
  facet normal -0.749896 -0.661556 0
    outer loop
      vertex 9.82572 10.4353 4
      vertex 9.23032 11.1102 11
      vertex 9.23032 11.1102 4
    endloop
  endfacet
  facet normal 0.661556 -0.749896 0
    outer loop
      vertex 9.23032 11.1102 4
      vertex 9.23032 11.1102 11
      vertex 8.83066 10.7576 11
    endloop
  endfacet
  facet normal 0.661556 -0.749896 0
    outer loop
      vertex 8.83066 10.7576 4
      vertex 9.23032 11.1102 4
      vertex 8.83066 10.7576 11
    endloop
  endfacet
  facet normal -0.85264 -0.522499 0
    outer loop
      vertex 8.35944 11.5266 4
      vertex 8.83066 10.7576 4
      vertex 8.35944 11.5266 11
    endloop
  endfacet
  facet normal -0.85264 -0.522499 0
    outer loop
      vertex 8.35944 11.5266 11
      vertex 8.83066 10.7576 4
      vertex 8.83066 10.7576 11
    endloop
  endfacet
  facet normal -0.463489 0.886103 0
    outer loop
      vertex 8.88589 11.8019 11
      vertex 8.88589 11.8019 4
      vertex 8.35944 11.5266 11
    endloop
  endfacet
  facet normal -0.463489 0.886103 0
    outer loop
      vertex 8.35944 11.5266 11
      vertex 8.88589 11.8019 4
      vertex 8.35944 11.5266 4
    endloop
  endfacet
  facet normal -0.886103 -0.463489 0
    outer loop
      vertex 8.88589 11.8019 11
      vertex 8.46875 12.5994 11
      vertex 8.88589 11.8019 4
    endloop
  endfacet
  facet normal -0.886103 -0.463489 0
    outer loop
      vertex 8.88589 11.8019 4
      vertex 8.46875 12.5994 11
      vertex 8.46875 12.5994 4
    endloop
  endfacet
  facet normal 0.463489 -0.886103 0
    outer loop
      vertex 8.46875 12.5994 4
      vertex 8.46875 12.5994 11
      vertex 8.00246 12.3555 11
    endloop
  endfacet
  facet normal 0.463489 -0.886103 0
    outer loop
      vertex 8.00246 12.3555 4
      vertex 8.46875 12.5994 4
      vertex 8.00246 12.3555 11
    endloop
  endfacet
  facet normal -0.92388 -0.382683 0
    outer loop
      vertex 7.86708 12.6824 4
      vertex 8.00246 12.3555 4
      vertex 7.86708 12.6824 11
    endloop
  endfacet
  facet normal -0.92388 -0.382683 0
    outer loop
      vertex 7.86708 12.6824 11
      vertex 8.00246 12.3555 4
      vertex 8.00246 12.3555 11
    endloop
  endfacet
  facet normal -0.97237 -0.233446 0
    outer loop
      vertex 7.73904 13.2157 4
      vertex 7.86708 12.6824 4
      vertex 7.73904 13.2157 11
    endloop
  endfacet
  facet normal -0.97237 -0.233446 0
    outer loop
      vertex 7.73904 13.2157 11
      vertex 7.86708 12.6824 4
      vertex 7.86708 12.6824 11
    endloop
  endfacet
  facet normal -0.238639 0.971108 0
    outer loop
      vertex 8.29935 13.3534 11
      vertex 8.29935 13.3534 4
      vertex 7.73904 13.2157 11
    endloop
  endfacet
  facet normal -0.238639 0.971108 0
    outer loop
      vertex 7.73904 13.2157 11
      vertex 8.29935 13.3534 4
      vertex 7.73904 13.2157 4
    endloop
  endfacet
  facet normal -0.971108 -0.238639 0
    outer loop
      vertex 8.29935 13.3534 11
      vertex 8.08458 14.2274 11
      vertex 8.29935 13.3534 4
    endloop
  endfacet
  facet normal -0.971108 -0.238639 0
    outer loop
      vertex 8.29935 13.3534 4
      vertex 8.08458 14.2274 11
      vertex 8.08458 14.2274 4
    endloop
  endfacet
  facet normal 0.238639 -0.971108 0
    outer loop
      vertex 8.08458 14.2274 4
      vertex 8.08458 14.2274 11
      vertex 7.57074 14.1011 11
    endloop
  endfacet
  facet normal 0.238639 -0.971108 0
    outer loop
      vertex 7.57074 14.1011 4
      vertex 8.08458 14.2274 4
      vertex 7.57074 14.1011 11
    endloop
  endfacet
endsolid OpenSCAD_Model
