solid OpenSCAD_Model
  facet normal -1 0 0
    outer loop
      vertex -4 0 -7.8
      vertex -4 0 -3.8
      vertex -4 12 -7.8
    endloop
  endfacet
  facet normal -1 0 0
    outer loop
      vertex -4 12 -7.8
      vertex -4 0 -3.8
      vertex -4 12 -3.8
    endloop
  endfacet
  facet normal -0.996917 -0.0784597 0
    outer loop
      vertex -4 0 -7.8
      vertex -3.95075 -0.625738 -7.8
      vertex -4 0 -3.8
    endloop
  endfacet
  facet normal -0.996917 -0.0784597 0
    outer loop
      vertex -4 0 -3.8
      vertex -3.95075 -0.625738 -7.8
      vertex -3.95075 -0.625738 7.8
    endloop
  endfacet
  facet normal -0.996917 -0.0784597 0
    outer loop
      vertex -4 0 -3.8
      vertex -3.95075 -0.625738 7.8
      vertex -4 0 7.8
    endloop
  endfacet
  facet normal 0 0 -1
    outer loop
      vertex -4 0 -7.8
      vertex -4 12 -7.8
      vertex -3.95075 -0.625738 -7.8
    endloop
  endfacet
  facet normal 0 0 -1
    outer loop
      vertex -3.95075 -0.625738 -7.8
      vertex -4 12 -7.8
      vertex 4 12 -7.8
    endloop
  endfacet
  facet normal 0 0 -1
    outer loop
      vertex 1.70376 0.269849 -7.8
      vertex 4 12 -7.8
      vertex 1.725 0 -7.8
    endloop
  endfacet
  facet normal 0 0 -1
    outer loop
      vertex 1.64057 -0.533054 -7.8
      vertex 4 0 -7.8
      vertex 3.95075 -0.625738 -7.8
    endloop
  endfacet
  facet normal 0 0 -1
    outer loop
      vertex 1.39555 -1.01393 -7.8
      vertex 3.95075 -0.625738 -7.8
      vertex 3.80423 -1.23607 -7.8
    endloop
  endfacet
  facet normal 0 0 -1
    outer loop
      vertex 1.01393 -1.39555 -7.8
      vertex 3.80423 -1.23607 -7.8
      vertex 3.56403 -1.81596 -7.8
    endloop
  endfacet
  facet normal 0 0 -1
    outer loop
      vertex 0.533054 -1.64057 -7.8
      vertex 3.56403 -1.81596 -7.8
      vertex 3.23607 -2.35114 -7.8
    endloop
  endfacet
  facet normal 0 0 -1
    outer loop
      vertex 0 -1.725 -7.8
      vertex 3.23607 -2.35114 -7.8
      vertex 2.82843 -2.82843 -7.8
    endloop
  endfacet
  facet normal 0 0 -1
    outer loop
      vertex -3.95075 -0.625738 -7.8
      vertex 2.82843 -2.82843 -7.8
      vertex 2.35114 -3.23607 -7.8
    endloop
  endfacet
  facet normal 0 0 -1
    outer loop
      vertex -3.95075 -0.625738 -7.8
      vertex 2.35114 -3.23607 -7.8
      vertex 1.81596 -3.56403 -7.8
    endloop
  endfacet
  facet normal 0 0 -1
    outer loop
      vertex -3.95075 -0.625738 -7.8
      vertex 1.81596 -3.56403 -7.8
      vertex 1.23607 -3.80423 -7.8
    endloop
  endfacet
  facet normal 0 0 -1
    outer loop
      vertex -3.95075 -0.625738 -7.8
      vertex 1.23607 -3.80423 -7.8
      vertex 0.625738 -3.95075 -7.8
    endloop
  endfacet
  facet normal 0 0 -1
    outer loop
      vertex -3.95075 -0.625738 -7.8
      vertex 0.625738 -3.95075 -7.8
      vertex 0 -4 -7.8
    endloop
  endfacet
  facet normal 0 0 -1
    outer loop
      vertex -3.95075 -0.625738 -7.8
      vertex 0 -4 -7.8
      vertex -0.625738 -3.95075 -7.8
    endloop
  endfacet
  facet normal 0 0 -1
    outer loop
      vertex -3.95075 -0.625738 -7.8
      vertex -0.625738 -3.95075 -7.8
      vertex -1.23607 -3.80423 -7.8
    endloop
  endfacet
  facet normal 0 0 -1
    outer loop
      vertex -3.95075 -0.625738 -7.8
      vertex -1.23607 -3.80423 -7.8
      vertex -1.81596 -3.56403 -7.8
    endloop
  endfacet
  facet normal 0 0 -1
    outer loop
      vertex -3.95075 -0.625738 -7.8
      vertex -1.81596 -3.56403 -7.8
      vertex -2.35114 -3.23607 -7.8
    endloop
  endfacet
  facet normal 0 0 -1
    outer loop
      vertex -3.95075 -0.625738 -7.8
      vertex -2.35114 -3.23607 -7.8
      vertex -2.82843 -2.82843 -7.8
    endloop
  endfacet
  facet normal 0 0 -1
    outer loop
      vertex -3.95075 -0.625738 -7.8
      vertex -2.82843 -2.82843 -7.8
      vertex -3.23607 -2.35114 -7.8
    endloop
  endfacet
  facet normal 0 0 -1
    outer loop
      vertex -3.95075 -0.625738 -7.8
      vertex -3.23607 -2.35114 -7.8
      vertex -3.56403 -1.81596 -7.8
    endloop
  endfacet
  facet normal 0 0 -1
    outer loop
      vertex -3.95075 -0.625738 -7.8
      vertex -3.56403 -1.81596 -7.8
      vertex -3.80423 -1.23607 -7.8
    endloop
  endfacet
  facet normal 0 0 -1
    outer loop
      vertex 1.725 0 -7.8
      vertex 4 12 -7.8
      vertex 4 0 -7.8
    endloop
  endfacet
  facet normal 0 0 -1
    outer loop
      vertex -3.95075 -0.625738 -7.8
      vertex -1.725 0 -7.8
      vertex -1.70376 -0.269849 -7.8
    endloop
  endfacet
  facet normal 0 0 -1
    outer loop
      vertex -1.53699 -0.783134 -7.8
      vertex -3.95075 -0.625738 -7.8
      vertex -1.64057 -0.533054 -7.8
    endloop
  endfacet
  facet normal 0 0 -1
    outer loop
      vertex -1.39555 -1.01393 -7.8
      vertex -3.95075 -0.625738 -7.8
      vertex -1.53699 -0.783134 -7.8
    endloop
  endfacet
  facet normal 0 0 -1
    outer loop
      vertex -1.21976 -1.21976 -7.8
      vertex -3.95075 -0.625738 -7.8
      vertex -1.39555 -1.01393 -7.8
    endloop
  endfacet
  facet normal 0 0 -1
    outer loop
      vertex -1.01393 -1.39555 -7.8
      vertex -3.95075 -0.625738 -7.8
      vertex -1.21976 -1.21976 -7.8
    endloop
  endfacet
  facet normal 0 0 -1
    outer loop
      vertex -0.269849 -1.70376 -7.8
      vertex 2.82843 -2.82843 -7.8
      vertex -0.533054 -1.64057 -7.8
    endloop
  endfacet
  facet normal 0 0 -1
    outer loop
      vertex -3.95075 -0.625738 -7.8
      vertex -1.01393 -1.39555 -7.8
      vertex -0.783134 -1.53699 -7.8
    endloop
  endfacet
  facet normal 0 0 -1
    outer loop
      vertex -3.95075 -0.625738 -7.8
      vertex -0.783134 -1.53699 -7.8
      vertex -0.533054 -1.64057 -7.8
    endloop
  endfacet
  facet normal 0 0 -1
    outer loop
      vertex -3.95075 -0.625738 -7.8
      vertex -0.533054 -1.64057 -7.8
      vertex 2.82843 -2.82843 -7.8
    endloop
  endfacet
  facet normal 0 0 -1
    outer loop
      vertex 0 -1.725 -7.8
      vertex 2.82843 -2.82843 -7.8
      vertex -0.269849 -1.70376 -7.8
    endloop
  endfacet
  facet normal 0 0 -1
    outer loop
      vertex 0.269849 -1.70376 -7.8
      vertex 3.23607 -2.35114 -7.8
      vertex 0 -1.725 -7.8
    endloop
  endfacet
  facet normal 0 0 -1
    outer loop
      vertex 0.533054 -1.64057 -7.8
      vertex 3.23607 -2.35114 -7.8
      vertex 0.269849 -1.70376 -7.8
    endloop
  endfacet
  facet normal 0 0 -1
    outer loop
      vertex 0.783134 -1.53699 -7.8
      vertex 3.56403 -1.81596 -7.8
      vertex 0.533054 -1.64057 -7.8
    endloop
  endfacet
  facet normal 0 0 -1
    outer loop
      vertex 1.01393 -1.39555 -7.8
      vertex 3.56403 -1.81596 -7.8
      vertex 0.783134 -1.53699 -7.8
    endloop
  endfacet
  facet normal 0 0 -1
    outer loop
      vertex 1.21976 -1.21976 -7.8
      vertex 3.80423 -1.23607 -7.8
      vertex 1.01393 -1.39555 -7.8
    endloop
  endfacet
  facet normal 0 0 -1
    outer loop
      vertex 1.39555 -1.01393 -7.8
      vertex 3.80423 -1.23607 -7.8
      vertex 1.21976 -1.21976 -7.8
    endloop
  endfacet
  facet normal 0 0 -1
    outer loop
      vertex 1.53699 -0.783134 -7.8
      vertex 3.95075 -0.625738 -7.8
      vertex 1.39555 -1.01393 -7.8
    endloop
  endfacet
  facet normal 0 0 -1
    outer loop
      vertex 1.64057 -0.533054 -7.8
      vertex 3.95075 -0.625738 -7.8
      vertex 1.53699 -0.783134 -7.8
    endloop
  endfacet
  facet normal 0 0 -1
    outer loop
      vertex 1.70376 -0.269849 -7.8
      vertex 4 0 -7.8
      vertex 1.64057 -0.533054 -7.8
    endloop
  endfacet
  facet normal 0 0 -1
    outer loop
      vertex 1.725 0 -7.8
      vertex 4 0 -7.8
      vertex 1.70376 -0.269849 -7.8
    endloop
  endfacet
  facet normal 0 0 -1
    outer loop
      vertex -1.21976 1.21976 -7.8
      vertex 4 12 -7.8
      vertex -1.01393 1.39555 -7.8
    endloop
  endfacet
  facet normal 0 0 -1
    outer loop
      vertex 1.64057 0.533054 -7.8
      vertex 4 12 -7.8
      vertex 1.70376 0.269849 -7.8
    endloop
  endfacet
  facet normal 0 0 -1
    outer loop
      vertex 1.53699 0.783134 -7.8
      vertex 4 12 -7.8
      vertex 1.64057 0.533054 -7.8
    endloop
  endfacet
  facet normal 0 0 -1
    outer loop
      vertex 1.39555 1.01393 -7.8
      vertex 4 12 -7.8
      vertex 1.53699 0.783134 -7.8
    endloop
  endfacet
  facet normal 0 0 -1
    outer loop
      vertex 1.21976 1.21976 -7.8
      vertex 4 12 -7.8
      vertex 1.39555 1.01393 -7.8
    endloop
  endfacet
  facet normal 0 0 -1
    outer loop
      vertex 1.01393 1.39555 -7.8
      vertex 4 12 -7.8
      vertex 1.21976 1.21976 -7.8
    endloop
  endfacet
  facet normal 0 0 -1
    outer loop
      vertex 0.783134 1.53699 -7.8
      vertex 4 12 -7.8
      vertex 1.01393 1.39555 -7.8
    endloop
  endfacet
  facet normal 0 0 -1
    outer loop
      vertex 0.533054 1.64057 -7.8
      vertex 4 12 -7.8
      vertex 0.783134 1.53699 -7.8
    endloop
  endfacet
  facet normal 0 0 -1
    outer loop
      vertex 0.269849 1.70376 -7.8
      vertex 4 12 -7.8
      vertex 0.533054 1.64057 -7.8
    endloop
  endfacet
  facet normal 0 0 -1
    outer loop
      vertex 0 1.725 -7.8
      vertex 4 12 -7.8
      vertex 0.269849 1.70376 -7.8
    endloop
  endfacet
  facet normal 0 0 -1
    outer loop
      vertex -0.269849 1.70376 -7.8
      vertex 4 12 -7.8
      vertex 0 1.725 -7.8
    endloop
  endfacet
  facet normal 0 0 -1
    outer loop
      vertex -0.533054 1.64057 -7.8
      vertex 4 12 -7.8
      vertex -0.269849 1.70376 -7.8
    endloop
  endfacet
  facet normal 0 0 -1
    outer loop
      vertex -0.783134 1.53699 -7.8
      vertex 4 12 -7.8
      vertex -0.533054 1.64057 -7.8
    endloop
  endfacet
  facet normal 0 0 -1
    outer loop
      vertex -1.01393 1.39555 -7.8
      vertex 4 12 -7.8
      vertex -0.783134 1.53699 -7.8
    endloop
  endfacet
  facet normal 0 0 -1
    outer loop
      vertex -3.95075 -0.625738 -7.8
      vertex 4 12 -7.8
      vertex -1.21976 1.21976 -7.8
    endloop
  endfacet
  facet normal 0 0 -1
    outer loop
      vertex -3.95075 -0.625738 -7.8
      vertex -1.21976 1.21976 -7.8
      vertex -1.39555 1.01393 -7.8
    endloop
  endfacet
  facet normal 0 0 -1
    outer loop
      vertex -3.95075 -0.625738 -7.8
      vertex -1.39555 1.01393 -7.8
      vertex -1.53699 0.783134 -7.8
    endloop
  endfacet
  facet normal 0 0 -1
    outer loop
      vertex -3.95075 -0.625738 -7.8
      vertex -1.53699 0.783134 -7.8
      vertex -1.64057 0.533054 -7.8
    endloop
  endfacet
  facet normal 0 0 -1
    outer loop
      vertex -3.95075 -0.625738 -7.8
      vertex -1.64057 0.533054 -7.8
      vertex -1.70376 0.269849 -7.8
    endloop
  endfacet
  facet normal 0 0 -1
    outer loop
      vertex -3.95075 -0.625738 -7.8
      vertex -1.70376 0.269849 -7.8
      vertex -1.725 0 -7.8
    endloop
  endfacet
  facet normal 0 0 -1
    outer loop
      vertex -1.64057 -0.533054 -7.8
      vertex -3.95075 -0.625738 -7.8
      vertex -1.70376 -0.269849 -7.8
    endloop
  endfacet
  facet normal 0 1 0
    outer loop
      vertex -4 12 -7.8
      vertex -4 12 -3.8
      vertex 4 12 -7.8
    endloop
  endfacet
  facet normal 0 1 0
    outer loop
      vertex 4 12 -7.8
      vertex -4 12 -3.8
      vertex 4 12 -3.8
    endloop
  endfacet
  facet normal 0 0 1
    outer loop
      vertex -3.56403 1.81596 -3.8
      vertex -3.23607 2.35114 -3.8
      vertex -4 12 -3.8
    endloop
  endfacet
  facet normal 0 0 1
    outer loop
      vertex -4 12 -3.8
      vertex -4 0 -3.8
      vertex -3.95075 0.625738 -3.8
    endloop
  endfacet
  facet normal 0 0 1
    outer loop
      vertex -3.23607 2.35114 -3.8
      vertex -2.82843 2.82843 -3.8
      vertex -4 12 -3.8
    endloop
  endfacet
  facet normal 0 0 1
    outer loop
      vertex -3.80423 1.23607 -3.8
      vertex -4 12 -3.8
      vertex -3.95075 0.625738 -3.8
    endloop
  endfacet
  facet normal 0 0 1
    outer loop
      vertex -3.80423 1.23607 -3.8
      vertex -3.56403 1.81596 -3.8
      vertex -4 12 -3.8
    endloop
  endfacet
  facet normal 0 0 1
    outer loop
      vertex -2.82843 2.82843 -3.8
      vertex -2.35114 3.23607 -3.8
      vertex -4 12 -3.8
    endloop
  endfacet
  facet normal 0 0 1
    outer loop
      vertex -2.35114 3.23607 -3.8
      vertex -1.81596 3.56403 -3.8
      vertex -4 12 -3.8
    endloop
  endfacet
  facet normal 0 0 1
    outer loop
      vertex -1.81596 3.56403 -3.8
      vertex -1.23607 3.80423 -3.8
      vertex -4 12 -3.8
    endloop
  endfacet
  facet normal 0 0 1
    outer loop
      vertex -1.23607 3.80423 -3.8
      vertex -0.625738 3.95075 -3.8
      vertex -4 12 -3.8
    endloop
  endfacet
  facet normal 0 0 1
    outer loop
      vertex -0.625738 3.95075 -3.8
      vertex 0 4 -3.8
      vertex -4 12 -3.8
    endloop
  endfacet
  facet normal 0 0 1
    outer loop
      vertex 0 4 -3.8
      vertex 0.625738 3.95075 -3.8
      vertex -4 12 -3.8
    endloop
  endfacet
  facet normal 0 0 1
    outer loop
      vertex 0.625738 3.95075 -3.8
      vertex 1.23607 3.80423 -3.8
      vertex -4 12 -3.8
    endloop
  endfacet
  facet normal 0 0 1
    outer loop
      vertex 1.23607 3.80423 -3.8
      vertex 1.81596 3.56403 -3.8
      vertex -4 12 -3.8
    endloop
  endfacet
  facet normal 0 0 1
    outer loop
      vertex 1.81596 3.56403 -3.8
      vertex 2.35114 3.23607 -3.8
      vertex -4 12 -3.8
    endloop
  endfacet
  facet normal 0 0 1
    outer loop
      vertex 2.35114 3.23607 -3.8
      vertex 2.82843 2.82843 -3.8
      vertex -4 12 -3.8
    endloop
  endfacet
  facet normal 0 0 1
    outer loop
      vertex 2.82843 2.82843 -3.8
      vertex 3.23607 2.35114 -3.8
      vertex -4 12 -3.8
    endloop
  endfacet
  facet normal 0 0 1
    outer loop
      vertex 3.23607 2.35114 -3.8
      vertex 4 12 -3.8
      vertex -4 12 -3.8
    endloop
  endfacet
  facet normal 0 0 1
    outer loop
      vertex 3.56403 1.81596 -3.8
      vertex 4 12 -3.8
      vertex 3.23607 2.35114 -3.8
    endloop
  endfacet
  facet normal 0 0 1
    outer loop
      vertex 3.80423 1.23607 -3.8
      vertex 4 12 -3.8
      vertex 3.56403 1.81596 -3.8
    endloop
  endfacet
  facet normal 0 0 1
    outer loop
      vertex 3.95075 0.625738 -3.8
      vertex 4 12 -3.8
      vertex 3.80423 1.23607 -3.8
    endloop
  endfacet
  facet normal 0 0 1
    outer loop
      vertex 4 0 -3.8
      vertex 4 12 -3.8
      vertex 3.95075 0.625738 -3.8
    endloop
  endfacet
  facet normal -0.996917 0.0784597 0
    outer loop
      vertex -4 0 -3.8
      vertex -4 0 7.8
      vertex -3.95075 0.625738 -3.8
    endloop
  endfacet
  facet normal -0.996917 0.0784597 0
    outer loop
      vertex -3.95075 0.625738 -3.8
      vertex -4 0 7.8
      vertex -3.95075 0.625738 7.8
    endloop
  endfacet
  facet normal 0 0 1
    outer loop
      vertex -3.95075 0.625738 7.8
      vertex -4 0 7.8
      vertex -3.95075 -0.625738 7.8
    endloop
  endfacet
  facet normal 0 0 1
    outer loop
      vertex -3.56403 -1.81596 7.8
      vertex -3.95075 0.625738 7.8
      vertex -3.80423 -1.23607 7.8
    endloop
  endfacet
  facet normal 0 0 1
    outer loop
      vertex -3.80423 -1.23607 7.8
      vertex -3.95075 0.625738 7.8
      vertex -3.95075 -0.625738 7.8
    endloop
  endfacet
  facet normal 0 0 1
    outer loop
      vertex -3.23607 -2.35114 7.8
      vertex -3.95075 0.625738 7.8
      vertex -3.56403 -1.81596 7.8
    endloop
  endfacet
  facet normal 0 0 1
    outer loop
      vertex -2.82843 -2.82843 7.8
      vertex -3.95075 0.625738 7.8
      vertex -3.23607 -2.35114 7.8
    endloop
  endfacet
  facet normal 0 0 1
    outer loop
      vertex -2.35114 -3.23607 7.8
      vertex -3.95075 0.625738 7.8
      vertex -2.82843 -2.82843 7.8
    endloop
  endfacet
  facet normal 0 0 1
    outer loop
      vertex -1.81596 -3.56403 7.8
      vertex -3.95075 0.625738 7.8
      vertex -2.35114 -3.23607 7.8
    endloop
  endfacet
  facet normal 0 0 1
    outer loop
      vertex -1.23607 -3.80423 7.8
      vertex -3.95075 0.625738 7.8
      vertex -1.81596 -3.56403 7.8
    endloop
  endfacet
  facet normal 0 0 1
    outer loop
      vertex -0.625738 -3.95075 7.8
      vertex -3.95075 0.625738 7.8
      vertex -1.23607 -3.80423 7.8
    endloop
  endfacet
  facet normal 0 0 1
    outer loop
      vertex 0 -4 7.8
      vertex -3.95075 0.625738 7.8
      vertex -0.625738 -3.95075 7.8
    endloop
  endfacet
  facet normal 0 0 1
    outer loop
      vertex 0.625738 -3.95075 7.8
      vertex -3.95075 0.625738 7.8
      vertex 0 -4 7.8
    endloop
  endfacet
  facet normal 0 0 1
    outer loop
      vertex 1.23607 -3.80423 7.8
      vertex -3.95075 0.625738 7.8
      vertex 0.625738 -3.95075 7.8
    endloop
  endfacet
  facet normal 0 0 1
    outer loop
      vertex 1.81596 -3.56403 7.8
      vertex -3.95075 0.625738 7.8
      vertex 1.23607 -3.80423 7.8
    endloop
  endfacet
  facet normal 0 0 1
    outer loop
      vertex -1.01393 -1.39555 7.8
      vertex -3.95075 0.625738 7.8
      vertex 1.81596 -3.56403 7.8
    endloop
  endfacet
  facet normal 0 0 1
    outer loop
      vertex -1.01393 -1.39555 7.8
      vertex -1.21976 -1.21976 7.8
      vertex -3.95075 0.625738 7.8
    endloop
  endfacet
  facet normal 0 0 1
    outer loop
      vertex 0 -1.725 7.8
      vertex -0.269849 -1.70376 7.8
      vertex 2.35114 -3.23607 7.8
    endloop
  endfacet
  facet normal 0 0 1
    outer loop
      vertex 1.01393 -1.39555 7.8
      vertex 0.783134 -1.53699 7.8
      vertex 3.23607 -2.35114 7.8
    endloop
  endfacet
  facet normal 0 0 1
    outer loop
      vertex 1.70376 0.269849 7.8
      vertex 1.725 0 7.8
      vertex 4 0 7.8
    endloop
  endfacet
  facet normal 0 0 1
    outer loop
      vertex 2.35114 3.23607 7.8
      vertex -3.95075 0.625738 7.8
      vertex 2.82843 2.82843 7.8
    endloop
  endfacet
  facet normal 0 0 1
    outer loop
      vertex 1.81596 3.56403 7.8
      vertex -3.95075 0.625738 7.8
      vertex 2.35114 3.23607 7.8
    endloop
  endfacet
  facet normal 0 0 1
    outer loop
      vertex 1.23607 3.80423 7.8
      vertex -3.95075 0.625738 7.8
      vertex 1.81596 3.56403 7.8
    endloop
  endfacet
  facet normal 0 0 1
    outer loop
      vertex 0.625738 3.95075 7.8
      vertex -3.95075 0.625738 7.8
      vertex 1.23607 3.80423 7.8
    endloop
  endfacet
  facet normal 0 0 1
    outer loop
      vertex 0 4 7.8
      vertex -3.95075 0.625738 7.8
      vertex 0.625738 3.95075 7.8
    endloop
  endfacet
  facet normal 0 0 1
    outer loop
      vertex -0.625738 3.95075 7.8
      vertex -3.95075 0.625738 7.8
      vertex 0 4 7.8
    endloop
  endfacet
  facet normal 0 0 1
    outer loop
      vertex -1.23607 3.80423 7.8
      vertex -3.95075 0.625738 7.8
      vertex -0.625738 3.95075 7.8
    endloop
  endfacet
  facet normal 0 0 1
    outer loop
      vertex -1.81596 3.56403 7.8
      vertex -3.95075 0.625738 7.8
      vertex -1.23607 3.80423 7.8
    endloop
  endfacet
  facet normal 0 0 1
    outer loop
      vertex -2.35114 3.23607 7.8
      vertex -3.95075 0.625738 7.8
      vertex -1.81596 3.56403 7.8
    endloop
  endfacet
  facet normal 0 0 1
    outer loop
      vertex -2.82843 2.82843 7.8
      vertex -3.95075 0.625738 7.8
      vertex -2.35114 3.23607 7.8
    endloop
  endfacet
  facet normal 0 0 1
    outer loop
      vertex -3.23607 2.35114 7.8
      vertex -3.95075 0.625738 7.8
      vertex -2.82843 2.82843 7.8
    endloop
  endfacet
  facet normal 0 0 1
    outer loop
      vertex -3.56403 1.81596 7.8
      vertex -3.95075 0.625738 7.8
      vertex -3.23607 2.35114 7.8
    endloop
  endfacet
  facet normal 0 0 1
    outer loop
      vertex -3.80423 1.23607 7.8
      vertex -3.95075 0.625738 7.8
      vertex -3.56403 1.81596 7.8
    endloop
  endfacet
  facet normal 0 0 1
    outer loop
      vertex 0.533054 -1.64057 7.8
      vertex 0.269849 -1.70376 7.8
      vertex 2.82843 -2.82843 7.8
    endloop
  endfacet
  facet normal 0 0 1
    outer loop
      vertex -1.725 0 7.8
      vertex -1.70376 0.269849 7.8
      vertex -3.95075 0.625738 7.8
    endloop
  endfacet
  facet normal 0 0 1
    outer loop
      vertex -1.39555 -1.01393 7.8
      vertex -1.53699 -0.783134 7.8
      vertex -3.95075 0.625738 7.8
    endloop
  endfacet
  facet normal 0 0 1
    outer loop
      vertex 1.39555 -1.01393 7.8
      vertex 1.21976 -1.21976 7.8
      vertex 3.56403 -1.81596 7.8
    endloop
  endfacet
  facet normal 0 0 1
    outer loop
      vertex 1.70376 -0.269849 7.8
      vertex 1.64057 -0.533054 7.8
      vertex 3.95075 -0.625738 7.8
    endloop
  endfacet
  facet normal 0 0 1
    outer loop
      vertex -1.53699 0.783134 7.8
      vertex -1.39555 1.01393 7.8
      vertex -3.95075 0.625738 7.8
    endloop
  endfacet
  facet normal 0 0 1
    outer loop
      vertex 1.64057 -0.533054 7.8
      vertex 1.53699 -0.783134 7.8
      vertex 3.80423 -1.23607 7.8
    endloop
  endfacet
  facet normal 0 0 1
    outer loop
      vertex -1.39555 1.01393 7.8
      vertex -1.21976 1.21976 7.8
      vertex -3.95075 0.625738 7.8
    endloop
  endfacet
  facet normal 0 0 1
    outer loop
      vertex 1.53699 0.783134 7.8
      vertex 1.64057 0.533054 7.8
      vertex 3.95075 0.625738 7.8
    endloop
  endfacet
  facet normal 0 0 1
    outer loop
      vertex -1.21976 1.21976 7.8
      vertex -1.01393 1.39555 7.8
      vertex -3.95075 0.625738 7.8
    endloop
  endfacet
  facet normal 0 0 1
    outer loop
      vertex 1.21976 1.21976 7.8
      vertex 1.39555 1.01393 7.8
      vertex 3.80423 1.23607 7.8
    endloop
  endfacet
  facet normal 0 0 1
    outer loop
      vertex -0.533054 1.64057 7.8
      vertex -0.269849 1.70376 7.8
      vertex 2.82843 2.82843 7.8
    endloop
  endfacet
  facet normal 0 0 1
    outer loop
      vertex 0.783134 1.53699 7.8
      vertex 1.01393 1.39555 7.8
      vertex 3.56403 1.81596 7.8
    endloop
  endfacet
  facet normal 0 0 1
    outer loop
      vertex -0.783134 1.53699 7.8
      vertex -3.95075 0.625738 7.8
      vertex -1.01393 1.39555 7.8
    endloop
  endfacet
  facet normal 0 0 1
    outer loop
      vertex -0.533054 1.64057 7.8
      vertex -3.95075 0.625738 7.8
      vertex -0.783134 1.53699 7.8
    endloop
  endfacet
  facet normal 0 0 1
    outer loop
      vertex -0.269849 1.70376 7.8
      vertex 0 1.725 7.8
      vertex 2.82843 2.82843 7.8
    endloop
  endfacet
  facet normal 0 0 1
    outer loop
      vertex 2.82843 2.82843 7.8
      vertex -3.95075 0.625738 7.8
      vertex -0.533054 1.64057 7.8
    endloop
  endfacet
  facet normal 0 0 1
    outer loop
      vertex 2.82843 2.82843 7.8
      vertex 0 1.725 7.8
      vertex 3.23607 2.35114 7.8
    endloop
  endfacet
  facet normal 0 0 1
    outer loop
      vertex 0 1.725 7.8
      vertex 0.269849 1.70376 7.8
      vertex 3.23607 2.35114 7.8
    endloop
  endfacet
  facet normal 0 0 1
    outer loop
      vertex 3.23607 2.35114 7.8
      vertex 0.533054 1.64057 7.8
      vertex 3.56403 1.81596 7.8
    endloop
  endfacet
  facet normal 0 0 1
    outer loop
      vertex 0.533054 1.64057 7.8
      vertex 0.783134 1.53699 7.8
      vertex 3.56403 1.81596 7.8
    endloop
  endfacet
  facet normal 0 0 1
    outer loop
      vertex 3.56403 1.81596 7.8
      vertex 1.01393 1.39555 7.8
      vertex 3.80423 1.23607 7.8
    endloop
  endfacet
  facet normal 0 0 1
    outer loop
      vertex 1.01393 1.39555 7.8
      vertex 1.21976 1.21976 7.8
      vertex 3.80423 1.23607 7.8
    endloop
  endfacet
  facet normal 0 0 1
    outer loop
      vertex 3.80423 1.23607 7.8
      vertex 1.39555 1.01393 7.8
      vertex 3.95075 0.625738 7.8
    endloop
  endfacet
  facet normal 0 0 1
    outer loop
      vertex 1.39555 1.01393 7.8
      vertex 1.53699 0.783134 7.8
      vertex 3.95075 0.625738 7.8
    endloop
  endfacet
  facet normal 0 0 1
    outer loop
      vertex 3.95075 0.625738 7.8
      vertex 1.64057 0.533054 7.8
      vertex 4 0 7.8
    endloop
  endfacet
  facet normal 0 0 1
    outer loop
      vertex 1.64057 0.533054 7.8
      vertex 1.70376 0.269849 7.8
      vertex 4 0 7.8
    endloop
  endfacet
  facet normal 0 0 1
    outer loop
      vertex 4 0 7.8
      vertex 1.725 0 7.8
      vertex 3.95075 -0.625738 7.8
    endloop
  endfacet
  facet normal 0 0 1
    outer loop
      vertex -1.64057 0.533054 7.8
      vertex -1.53699 0.783134 7.8
      vertex -3.95075 0.625738 7.8
    endloop
  endfacet
  facet normal 0 0 1
    outer loop
      vertex 1.725 0 7.8
      vertex 1.70376 -0.269849 7.8
      vertex 3.95075 -0.625738 7.8
    endloop
  endfacet
  facet normal 0 0 1
    outer loop
      vertex 0.269849 1.70376 7.8
      vertex 0.533054 1.64057 7.8
      vertex 3.23607 2.35114 7.8
    endloop
  endfacet
  facet normal 0 0 1
    outer loop
      vertex 3.95075 -0.625738 7.8
      vertex 1.64057 -0.533054 7.8
      vertex 3.80423 -1.23607 7.8
    endloop
  endfacet
  facet normal 0 0 1
    outer loop
      vertex 3.80423 -1.23607 7.8
      vertex 1.53699 -0.783134 7.8
      vertex 3.56403 -1.81596 7.8
    endloop
  endfacet
  facet normal 0 0 1
    outer loop
      vertex 1.53699 -0.783134 7.8
      vertex 1.39555 -1.01393 7.8
      vertex 3.56403 -1.81596 7.8
    endloop
  endfacet
  facet normal 0 0 1
    outer loop
      vertex 3.56403 -1.81596 7.8
      vertex 1.21976 -1.21976 7.8
      vertex 3.23607 -2.35114 7.8
    endloop
  endfacet
  facet normal 0 0 1
    outer loop
      vertex 1.21976 -1.21976 7.8
      vertex 1.01393 -1.39555 7.8
      vertex 3.23607 -2.35114 7.8
    endloop
  endfacet
  facet normal 0 0 1
    outer loop
      vertex 3.23607 -2.35114 7.8
      vertex 0.783134 -1.53699 7.8
      vertex 2.82843 -2.82843 7.8
    endloop
  endfacet
  facet normal 0 0 1
    outer loop
      vertex -1.70376 -0.269849 7.8
      vertex -1.725 0 7.8
      vertex -3.95075 0.625738 7.8
    endloop
  endfacet
  facet normal 0 0 1
    outer loop
      vertex 0.783134 -1.53699 7.8
      vertex 0.533054 -1.64057 7.8
      vertex 2.82843 -2.82843 7.8
    endloop
  endfacet
  facet normal 0 0 1
    outer loop
      vertex 2.82843 -2.82843 7.8
      vertex 0.269849 -1.70376 7.8
      vertex 2.35114 -3.23607 7.8
    endloop
  endfacet
  facet normal 0 0 1
    outer loop
      vertex 0.269849 -1.70376 7.8
      vertex 0 -1.725 7.8
      vertex 2.35114 -3.23607 7.8
    endloop
  endfacet
  facet normal 0 0 1
    outer loop
      vertex 2.35114 -3.23607 7.8
      vertex -0.269849 -1.70376 7.8
      vertex 1.81596 -3.56403 7.8
    endloop
  endfacet
  facet normal 0 0 1
    outer loop
      vertex -0.269849 -1.70376 7.8
      vertex -0.533054 -1.64057 7.8
      vertex 1.81596 -3.56403 7.8
    endloop
  endfacet
  facet normal 0 0 1
    outer loop
      vertex -0.533054 -1.64057 7.8
      vertex -0.783134 -1.53699 7.8
      vertex 1.81596 -3.56403 7.8
    endloop
  endfacet
  facet normal 0 0 1
    outer loop
      vertex -0.783134 -1.53699 7.8
      vertex -1.01393 -1.39555 7.8
      vertex 1.81596 -3.56403 7.8
    endloop
  endfacet
  facet normal 0 0 1
    outer loop
      vertex -1.21976 -1.21976 7.8
      vertex -1.39555 -1.01393 7.8
      vertex -3.95075 0.625738 7.8
    endloop
  endfacet
  facet normal 0 0 1
    outer loop
      vertex -1.53699 -0.783134 7.8
      vertex -1.64057 -0.533054 7.8
      vertex -3.95075 0.625738 7.8
    endloop
  endfacet
  facet normal 0 0 1
    outer loop
      vertex -1.64057 -0.533054 7.8
      vertex -1.70376 -0.269849 7.8
      vertex -3.95075 0.625738 7.8
    endloop
  endfacet
  facet normal 0 0 1
    outer loop
      vertex -1.70376 0.269849 7.8
      vertex -1.64057 0.533054 7.8
      vertex -3.95075 0.625738 7.8
    endloop
  endfacet
  facet normal -0.97237 -0.233445 0
    outer loop
      vertex -3.95075 -0.625738 -7.8
      vertex -3.80423 -1.23607 -7.8
      vertex -3.95075 -0.625738 7.8
    endloop
  endfacet
  facet normal -0.97237 -0.233445 0
    outer loop
      vertex -3.95075 -0.625738 7.8
      vertex -3.80423 -1.23607 -7.8
      vertex -3.80423 -1.23607 7.8
    endloop
  endfacet
  facet normal -0.92388 -0.382683 0
    outer loop
      vertex -3.80423 -1.23607 -7.8
      vertex -3.56403 -1.81596 -7.8
      vertex -3.80423 -1.23607 7.8
    endloop
  endfacet
  facet normal -0.92388 -0.382683 0
    outer loop
      vertex -3.80423 -1.23607 7.8
      vertex -3.56403 -1.81596 -7.8
      vertex -3.56403 -1.81596 7.8
    endloop
  endfacet
  facet normal -0.85264 -0.522498 0
    outer loop
      vertex -3.56403 -1.81596 -7.8
      vertex -3.23607 -2.35114 -7.8
      vertex -3.56403 -1.81596 7.8
    endloop
  endfacet
  facet normal -0.85264 -0.522498 0
    outer loop
      vertex -3.56403 -1.81596 7.8
      vertex -3.23607 -2.35114 -7.8
      vertex -3.23607 -2.35114 7.8
    endloop
  endfacet
  facet normal -0.760406 -0.649448 0
    outer loop
      vertex -3.23607 -2.35114 -7.8
      vertex -2.82843 -2.82843 -7.8
      vertex -3.23607 -2.35114 7.8
    endloop
  endfacet
  facet normal -0.760406 -0.649448 0
    outer loop
      vertex -3.23607 -2.35114 7.8
      vertex -2.82843 -2.82843 -7.8
      vertex -2.82843 -2.82843 7.8
    endloop
  endfacet
  facet normal -0.649448 -0.760406 0
    outer loop
      vertex -2.82843 -2.82843 7.8
      vertex -2.82843 -2.82843 -7.8
      vertex -2.35114 -3.23607 -7.8
    endloop
  endfacet
  facet normal -0.649448 -0.760406 0
    outer loop
      vertex -2.35114 -3.23607 7.8
      vertex -2.82843 -2.82843 7.8
      vertex -2.35114 -3.23607 -7.8
    endloop
  endfacet
  facet normal -0.522498 -0.85264 0
    outer loop
      vertex -2.35114 -3.23607 7.8
      vertex -2.35114 -3.23607 -7.8
      vertex -1.81596 -3.56403 -7.8
    endloop
  endfacet
  facet normal -0.522498 -0.85264 0
    outer loop
      vertex -1.81596 -3.56403 7.8
      vertex -2.35114 -3.23607 7.8
      vertex -1.81596 -3.56403 -7.8
    endloop
  endfacet
  facet normal -0.382683 -0.92388 0
    outer loop
      vertex -1.81596 -3.56403 7.8
      vertex -1.81596 -3.56403 -7.8
      vertex -1.23607 -3.80423 -7.8
    endloop
  endfacet
  facet normal -0.382683 -0.92388 0
    outer loop
      vertex -1.23607 -3.80423 7.8
      vertex -1.81596 -3.56403 7.8
      vertex -1.23607 -3.80423 -7.8
    endloop
  endfacet
  facet normal -0.233445 -0.97237 0
    outer loop
      vertex -1.23607 -3.80423 7.8
      vertex -1.23607 -3.80423 -7.8
      vertex -0.625738 -3.95075 -7.8
    endloop
  endfacet
  facet normal -0.233445 -0.97237 0
    outer loop
      vertex -0.625738 -3.95075 7.8
      vertex -1.23607 -3.80423 7.8
      vertex -0.625738 -3.95075 -7.8
    endloop
  endfacet
  facet normal -0.0784597 -0.996917 0
    outer loop
      vertex -0.625738 -3.95075 7.8
      vertex -0.625738 -3.95075 -7.8
      vertex 0 -4 -7.8
    endloop
  endfacet
  facet normal -0.0784597 -0.996917 0
    outer loop
      vertex 0 -4 7.8
      vertex -0.625738 -3.95075 7.8
      vertex 0 -4 -7.8
    endloop
  endfacet
  facet normal 0.0784597 -0.996917 0
    outer loop
      vertex 0 -4 7.8
      vertex 0 -4 -7.8
      vertex 0.625738 -3.95075 -7.8
    endloop
  endfacet
  facet normal 0.0784597 -0.996917 0
    outer loop
      vertex 0.625738 -3.95075 7.8
      vertex 0 -4 7.8
      vertex 0.625738 -3.95075 -7.8
    endloop
  endfacet
  facet normal 0.233445 -0.97237 0
    outer loop
      vertex 0.625738 -3.95075 7.8
      vertex 0.625738 -3.95075 -7.8
      vertex 1.23607 -3.80423 -7.8
    endloop
  endfacet
  facet normal 0.233445 -0.97237 0
    outer loop
      vertex 1.23607 -3.80423 7.8
      vertex 0.625738 -3.95075 7.8
      vertex 1.23607 -3.80423 -7.8
    endloop
  endfacet
  facet normal 0.382683 -0.92388 0
    outer loop
      vertex 1.23607 -3.80423 7.8
      vertex 1.23607 -3.80423 -7.8
      vertex 1.81596 -3.56403 -7.8
    endloop
  endfacet
  facet normal 0.382683 -0.92388 0
    outer loop
      vertex 1.81596 -3.56403 7.8
      vertex 1.23607 -3.80423 7.8
      vertex 1.81596 -3.56403 -7.8
    endloop
  endfacet
  facet normal 0.522498 -0.85264 0
    outer loop
      vertex 1.81596 -3.56403 7.8
      vertex 1.81596 -3.56403 -7.8
      vertex 2.35114 -3.23607 -7.8
    endloop
  endfacet
  facet normal 0.522498 -0.85264 0
    outer loop
      vertex 2.35114 -3.23607 7.8
      vertex 1.81596 -3.56403 7.8
      vertex 2.35114 -3.23607 -7.8
    endloop
  endfacet
  facet normal 0.649448 -0.760406 0
    outer loop
      vertex 2.35114 -3.23607 7.8
      vertex 2.35114 -3.23607 -7.8
      vertex 2.82843 -2.82843 -7.8
    endloop
  endfacet
  facet normal 0.649448 -0.760406 0
    outer loop
      vertex 2.82843 -2.82843 7.8
      vertex 2.35114 -3.23607 7.8
      vertex 2.82843 -2.82843 -7.8
    endloop
  endfacet
  facet normal 0.760406 -0.649448 0
    outer loop
      vertex 2.82843 -2.82843 7.8
      vertex 2.82843 -2.82843 -7.8
      vertex 3.23607 -2.35114 -7.8
    endloop
  endfacet
  facet normal 0.760406 -0.649448 0
    outer loop
      vertex 3.23607 -2.35114 7.8
      vertex 2.82843 -2.82843 7.8
      vertex 3.23607 -2.35114 -7.8
    endloop
  endfacet
  facet normal 0.85264 -0.522498 0
    outer loop
      vertex 3.23607 -2.35114 7.8
      vertex 3.23607 -2.35114 -7.8
      vertex 3.56403 -1.81596 -7.8
    endloop
  endfacet
  facet normal 0.85264 -0.522498 0
    outer loop
      vertex 3.56403 -1.81596 7.8
      vertex 3.23607 -2.35114 7.8
      vertex 3.56403 -1.81596 -7.8
    endloop
  endfacet
  facet normal 0.92388 -0.382683 0
    outer loop
      vertex 3.56403 -1.81596 7.8
      vertex 3.56403 -1.81596 -7.8
      vertex 3.80423 -1.23607 -7.8
    endloop
  endfacet
  facet normal 0.92388 -0.382683 0
    outer loop
      vertex 3.80423 -1.23607 7.8
      vertex 3.56403 -1.81596 7.8
      vertex 3.80423 -1.23607 -7.8
    endloop
  endfacet
  facet normal 0.97237 -0.233445 0
    outer loop
      vertex 3.80423 -1.23607 7.8
      vertex 3.80423 -1.23607 -7.8
      vertex 3.95075 -0.625738 -7.8
    endloop
  endfacet
  facet normal 0.97237 -0.233445 0
    outer loop
      vertex 3.95075 -0.625738 7.8
      vertex 3.80423 -1.23607 7.8
      vertex 3.95075 -0.625738 -7.8
    endloop
  endfacet
  facet normal 0.996917 -0.0784597 0
    outer loop
      vertex 3.95075 -0.625738 7.8
      vertex 3.95075 -0.625738 -7.8
      vertex 4 0 -7.8
    endloop
  endfacet
  facet normal 0.996917 -0.0784597 0
    outer loop
      vertex 4 0 7.8
      vertex 3.95075 -0.625738 7.8
      vertex 4 0 -3.8
    endloop
  endfacet
  facet normal 0.996917 -0.0784597 0
    outer loop
      vertex 4 0 -3.8
      vertex 3.95075 -0.625738 7.8
      vertex 4 0 -7.8
    endloop
  endfacet
  facet normal 1 0 0
    outer loop
      vertex 4 0 -3.8
      vertex 4 0 -7.8
      vertex 4 12 -7.8
    endloop
  endfacet
  facet normal 1 0 0
    outer loop
      vertex 4 12 -3.8
      vertex 4 0 -3.8
      vertex 4 12 -7.8
    endloop
  endfacet
  facet normal 0.996917 0.0784606 0
    outer loop
      vertex -1.725 0 7.8
      vertex -1.70376 -0.269849 7.8
      vertex -1.70376 -0.269849 -7.8
    endloop
  endfacet
  facet normal 0.996917 0.0784606 0
    outer loop
      vertex -1.725 0 -7.8
      vertex -1.725 0 7.8
      vertex -1.70376 -0.269849 -7.8
    endloop
  endfacet
  facet normal 0.996917 -0.0784606 0
    outer loop
      vertex -1.70376 0.269849 -7.8
      vertex -1.70376 0.269849 7.8
      vertex -1.725 0 7.8
    endloop
  endfacet
  facet normal 0.996917 -0.0784606 0
    outer loop
      vertex -1.725 0 -7.8
      vertex -1.70376 0.269849 -7.8
      vertex -1.725 0 7.8
    endloop
  endfacet
  facet normal 0.97237 -0.233446 0
    outer loop
      vertex -1.64057 0.533054 -7.8
      vertex -1.64057 0.533054 7.8
      vertex -1.70376 0.269849 7.8
    endloop
  endfacet
  facet normal 0.97237 -0.233446 0
    outer loop
      vertex -1.70376 0.269849 -7.8
      vertex -1.64057 0.533054 -7.8
      vertex -1.70376 0.269849 7.8
    endloop
  endfacet
  facet normal 0.92388 -0.382682 0
    outer loop
      vertex -1.53699 0.783134 -7.8
      vertex -1.53699 0.783134 7.8
      vertex -1.64057 0.533054 7.8
    endloop
  endfacet
  facet normal 0.92388 -0.382682 0
    outer loop
      vertex -1.64057 0.533054 -7.8
      vertex -1.53699 0.783134 -7.8
      vertex -1.64057 0.533054 7.8
    endloop
  endfacet
  facet normal 0.85264 -0.522499 0
    outer loop
      vertex -1.39555 1.01393 -7.8
      vertex -1.39555 1.01393 7.8
      vertex -1.53699 0.783134 7.8
    endloop
  endfacet
  facet normal 0.85264 -0.522499 0
    outer loop
      vertex -1.53699 0.783134 -7.8
      vertex -1.39555 1.01393 -7.8
      vertex -1.53699 0.783134 7.8
    endloop
  endfacet
  facet normal 0.760405 -0.649449 0
    outer loop
      vertex -1.21976 1.21976 -7.8
      vertex -1.21976 1.21976 7.8
      vertex -1.39555 1.01393 7.8
    endloop
  endfacet
  facet normal 0.760405 -0.649449 0
    outer loop
      vertex -1.39555 1.01393 -7.8
      vertex -1.21976 1.21976 -7.8
      vertex -1.39555 1.01393 7.8
    endloop
  endfacet
  facet normal 0.649449 -0.760405 0
    outer loop
      vertex -1.01393 1.39555 -7.8
      vertex -1.01393 1.39555 7.8
      vertex -1.21976 1.21976 7.8
    endloop
  endfacet
  facet normal 0.649449 -0.760405 0
    outer loop
      vertex -1.21976 1.21976 -7.8
      vertex -1.01393 1.39555 -7.8
      vertex -1.21976 1.21976 7.8
    endloop
  endfacet
  facet normal 0.522499 -0.85264 0
    outer loop
      vertex -0.783134 1.53699 -7.8
      vertex -0.783134 1.53699 7.8
      vertex -1.01393 1.39555 7.8
    endloop
  endfacet
  facet normal 0.522499 -0.85264 0
    outer loop
      vertex -1.01393 1.39555 -7.8
      vertex -0.783134 1.53699 -7.8
      vertex -1.01393 1.39555 7.8
    endloop
  endfacet
  facet normal 0.382682 -0.92388 0
    outer loop
      vertex -0.533054 1.64057 -7.8
      vertex -0.533054 1.64057 7.8
      vertex -0.783134 1.53699 7.8
    endloop
  endfacet
  facet normal 0.382682 -0.92388 0
    outer loop
      vertex -0.783134 1.53699 -7.8
      vertex -0.533054 1.64057 -7.8
      vertex -0.783134 1.53699 7.8
    endloop
  endfacet
  facet normal 0.233446 -0.97237 0
    outer loop
      vertex -0.269849 1.70376 -7.8
      vertex -0.269849 1.70376 7.8
      vertex -0.533054 1.64057 7.8
    endloop
  endfacet
  facet normal 0.233446 -0.97237 0
    outer loop
      vertex -0.533054 1.64057 -7.8
      vertex -0.269849 1.70376 -7.8
      vertex -0.533054 1.64057 7.8
    endloop
  endfacet
  facet normal 0.0784606 -0.996917 0
    outer loop
      vertex 0 1.725 -7.8
      vertex 0 1.725 7.8
      vertex -0.269849 1.70376 7.8
    endloop
  endfacet
  facet normal 0.0784606 -0.996917 0
    outer loop
      vertex -0.269849 1.70376 -7.8
      vertex 0 1.725 -7.8
      vertex -0.269849 1.70376 7.8
    endloop
  endfacet
  facet normal -0.0784606 -0.996917 0
    outer loop
      vertex 0.269849 1.70376 -7.8
      vertex 0.269849 1.70376 7.8
      vertex 0 1.725 7.8
    endloop
  endfacet
  facet normal -0.0784606 -0.996917 0
    outer loop
      vertex 0 1.725 -7.8
      vertex 0.269849 1.70376 -7.8
      vertex 0 1.725 7.8
    endloop
  endfacet
  facet normal -0.233446 -0.97237 0
    outer loop
      vertex 0.533054 1.64057 -7.8
      vertex 0.533054 1.64057 7.8
      vertex 0.269849 1.70376 7.8
    endloop
  endfacet
  facet normal -0.233446 -0.97237 0
    outer loop
      vertex 0.269849 1.70376 -7.8
      vertex 0.533054 1.64057 -7.8
      vertex 0.269849 1.70376 7.8
    endloop
  endfacet
  facet normal -0.382682 -0.92388 0
    outer loop
      vertex 0.783134 1.53699 -7.8
      vertex 0.783134 1.53699 7.8
      vertex 0.533054 1.64057 7.8
    endloop
  endfacet
  facet normal -0.382682 -0.92388 0
    outer loop
      vertex 0.533054 1.64057 -7.8
      vertex 0.783134 1.53699 -7.8
      vertex 0.533054 1.64057 7.8
    endloop
  endfacet
  facet normal -0.522499 -0.85264 0
    outer loop
      vertex 1.01393 1.39555 -7.8
      vertex 1.01393 1.39555 7.8
      vertex 0.783134 1.53699 7.8
    endloop
  endfacet
  facet normal -0.522499 -0.85264 0
    outer loop
      vertex 0.783134 1.53699 -7.8
      vertex 1.01393 1.39555 -7.8
      vertex 0.783134 1.53699 7.8
    endloop
  endfacet
  facet normal -0.649449 -0.760405 0
    outer loop
      vertex 1.21976 1.21976 -7.8
      vertex 1.21976 1.21976 7.8
      vertex 1.01393 1.39555 7.8
    endloop
  endfacet
  facet normal -0.649449 -0.760405 0
    outer loop
      vertex 1.01393 1.39555 -7.8
      vertex 1.21976 1.21976 -7.8
      vertex 1.01393 1.39555 7.8
    endloop
  endfacet
  facet normal -0.760405 -0.649449 0
    outer loop
      vertex 1.39555 1.01393 7.8
      vertex 1.21976 1.21976 7.8
      vertex 1.39555 1.01393 -7.8
    endloop
  endfacet
  facet normal -0.760405 -0.649449 0
    outer loop
      vertex 1.39555 1.01393 -7.8
      vertex 1.21976 1.21976 7.8
      vertex 1.21976 1.21976 -7.8
    endloop
  endfacet
  facet normal -0.85264 -0.522499 0
    outer loop
      vertex 1.53699 0.783134 7.8
      vertex 1.39555 1.01393 7.8
      vertex 1.53699 0.783134 -7.8
    endloop
  endfacet
  facet normal -0.85264 -0.522499 0
    outer loop
      vertex 1.53699 0.783134 -7.8
      vertex 1.39555 1.01393 7.8
      vertex 1.39555 1.01393 -7.8
    endloop
  endfacet
  facet normal -0.92388 -0.382682 0
    outer loop
      vertex 1.64057 0.533054 7.8
      vertex 1.53699 0.783134 7.8
      vertex 1.64057 0.533054 -7.8
    endloop
  endfacet
  facet normal -0.92388 -0.382682 0
    outer loop
      vertex 1.64057 0.533054 -7.8
      vertex 1.53699 0.783134 7.8
      vertex 1.53699 0.783134 -7.8
    endloop
  endfacet
  facet normal -0.97237 -0.233446 0
    outer loop
      vertex 1.70376 0.269849 7.8
      vertex 1.64057 0.533054 7.8
      vertex 1.70376 0.269849 -7.8
    endloop
  endfacet
  facet normal -0.97237 -0.233446 0
    outer loop
      vertex 1.70376 0.269849 -7.8
      vertex 1.64057 0.533054 7.8
      vertex 1.64057 0.533054 -7.8
    endloop
  endfacet
  facet normal -0.996917 -0.0784606 0
    outer loop
      vertex 1.725 0 7.8
      vertex 1.70376 0.269849 7.8
      vertex 1.725 0 -7.8
    endloop
  endfacet
  facet normal -0.996917 -0.0784606 0
    outer loop
      vertex 1.725 0 -7.8
      vertex 1.70376 0.269849 7.8
      vertex 1.70376 0.269849 -7.8
    endloop
  endfacet
  facet normal -0.996917 0.0784606 0
    outer loop
      vertex 1.725 0 7.8
      vertex 1.725 0 -7.8
      vertex 1.70376 -0.269849 7.8
    endloop
  endfacet
  facet normal -0.996917 0.0784606 0
    outer loop
      vertex 1.70376 -0.269849 7.8
      vertex 1.725 0 -7.8
      vertex 1.70376 -0.269849 -7.8
    endloop
  endfacet
  facet normal -0.97237 0.233446 0
    outer loop
      vertex 1.70376 -0.269849 7.8
      vertex 1.70376 -0.269849 -7.8
      vertex 1.64057 -0.533054 7.8
    endloop
  endfacet
  facet normal -0.97237 0.233446 0
    outer loop
      vertex 1.64057 -0.533054 7.8
      vertex 1.70376 -0.269849 -7.8
      vertex 1.64057 -0.533054 -7.8
    endloop
  endfacet
  facet normal -0.92388 0.382682 0
    outer loop
      vertex 1.64057 -0.533054 7.8
      vertex 1.64057 -0.533054 -7.8
      vertex 1.53699 -0.783134 7.8
    endloop
  endfacet
  facet normal -0.92388 0.382682 0
    outer loop
      vertex 1.53699 -0.783134 7.8
      vertex 1.64057 -0.533054 -7.8
      vertex 1.53699 -0.783134 -7.8
    endloop
  endfacet
  facet normal -0.85264 0.522499 0
    outer loop
      vertex 1.53699 -0.783134 7.8
      vertex 1.53699 -0.783134 -7.8
      vertex 1.39555 -1.01393 7.8
    endloop
  endfacet
  facet normal -0.85264 0.522499 0
    outer loop
      vertex 1.39555 -1.01393 7.8
      vertex 1.53699 -0.783134 -7.8
      vertex 1.39555 -1.01393 -7.8
    endloop
  endfacet
  facet normal -0.760405 0.649449 0
    outer loop
      vertex 1.39555 -1.01393 7.8
      vertex 1.39555 -1.01393 -7.8
      vertex 1.21976 -1.21976 7.8
    endloop
  endfacet
  facet normal -0.760405 0.649449 0
    outer loop
      vertex 1.21976 -1.21976 7.8
      vertex 1.39555 -1.01393 -7.8
      vertex 1.21976 -1.21976 -7.8
    endloop
  endfacet
  facet normal -0.649449 0.760405 0
    outer loop
      vertex 1.21976 -1.21976 7.8
      vertex 1.21976 -1.21976 -7.8
      vertex 1.01393 -1.39555 7.8
    endloop
  endfacet
  facet normal -0.649449 0.760405 0
    outer loop
      vertex 1.01393 -1.39555 7.8
      vertex 1.21976 -1.21976 -7.8
      vertex 1.01393 -1.39555 -7.8
    endloop
  endfacet
  facet normal -0.522499 0.85264 0
    outer loop
      vertex 1.01393 -1.39555 7.8
      vertex 1.01393 -1.39555 -7.8
      vertex 0.783134 -1.53699 7.8
    endloop
  endfacet
  facet normal -0.522499 0.85264 0
    outer loop
      vertex 0.783134 -1.53699 7.8
      vertex 1.01393 -1.39555 -7.8
      vertex 0.783134 -1.53699 -7.8
    endloop
  endfacet
  facet normal -0.382682 0.92388 0
    outer loop
      vertex 0.783134 -1.53699 7.8
      vertex 0.783134 -1.53699 -7.8
      vertex 0.533054 -1.64057 7.8
    endloop
  endfacet
  facet normal -0.382682 0.92388 0
    outer loop
      vertex 0.533054 -1.64057 7.8
      vertex 0.783134 -1.53699 -7.8
      vertex 0.533054 -1.64057 -7.8
    endloop
  endfacet
  facet normal -0.233446 0.97237 0
    outer loop
      vertex 0.533054 -1.64057 7.8
      vertex 0.533054 -1.64057 -7.8
      vertex 0.269849 -1.70376 7.8
    endloop
  endfacet
  facet normal -0.233446 0.97237 0
    outer loop
      vertex 0.269849 -1.70376 7.8
      vertex 0.533054 -1.64057 -7.8
      vertex 0.269849 -1.70376 -7.8
    endloop
  endfacet
  facet normal -0.0784606 0.996917 0
    outer loop
      vertex 0.269849 -1.70376 7.8
      vertex 0.269849 -1.70376 -7.8
      vertex 0 -1.725 7.8
    endloop
  endfacet
  facet normal -0.0784606 0.996917 0
    outer loop
      vertex 0 -1.725 7.8
      vertex 0.269849 -1.70376 -7.8
      vertex 0 -1.725 -7.8
    endloop
  endfacet
  facet normal 0.0784606 0.996917 0
    outer loop
      vertex 0 -1.725 7.8
      vertex 0 -1.725 -7.8
      vertex -0.269849 -1.70376 7.8
    endloop
  endfacet
  facet normal 0.0784606 0.996917 0
    outer loop
      vertex -0.269849 -1.70376 7.8
      vertex 0 -1.725 -7.8
      vertex -0.269849 -1.70376 -7.8
    endloop
  endfacet
  facet normal 0.233446 0.97237 0
    outer loop
      vertex -0.269849 -1.70376 7.8
      vertex -0.269849 -1.70376 -7.8
      vertex -0.533054 -1.64057 7.8
    endloop
  endfacet
  facet normal 0.233446 0.97237 0
    outer loop
      vertex -0.533054 -1.64057 7.8
      vertex -0.269849 -1.70376 -7.8
      vertex -0.533054 -1.64057 -7.8
    endloop
  endfacet
  facet normal 0.382682 0.92388 0
    outer loop
      vertex -0.533054 -1.64057 7.8
      vertex -0.533054 -1.64057 -7.8
      vertex -0.783134 -1.53699 7.8
    endloop
  endfacet
  facet normal 0.382682 0.92388 0
    outer loop
      vertex -0.783134 -1.53699 7.8
      vertex -0.533054 -1.64057 -7.8
      vertex -0.783134 -1.53699 -7.8
    endloop
  endfacet
  facet normal 0.522499 0.85264 0
    outer loop
      vertex -0.783134 -1.53699 7.8
      vertex -0.783134 -1.53699 -7.8
      vertex -1.01393 -1.39555 7.8
    endloop
  endfacet
  facet normal 0.522499 0.85264 0
    outer loop
      vertex -1.01393 -1.39555 7.8
      vertex -0.783134 -1.53699 -7.8
      vertex -1.01393 -1.39555 -7.8
    endloop
  endfacet
  facet normal 0.649449 0.760405 0
    outer loop
      vertex -1.01393 -1.39555 7.8
      vertex -1.01393 -1.39555 -7.8
      vertex -1.21976 -1.21976 7.8
    endloop
  endfacet
  facet normal 0.649449 0.760405 0
    outer loop
      vertex -1.21976 -1.21976 7.8
      vertex -1.01393 -1.39555 -7.8
      vertex -1.21976 -1.21976 -7.8
    endloop
  endfacet
  facet normal 0.760405 0.649449 0
    outer loop
      vertex -1.39555 -1.01393 7.8
      vertex -1.21976 -1.21976 7.8
      vertex -1.21976 -1.21976 -7.8
    endloop
  endfacet
  facet normal 0.760405 0.649449 0
    outer loop
      vertex -1.39555 -1.01393 -7.8
      vertex -1.39555 -1.01393 7.8
      vertex -1.21976 -1.21976 -7.8
    endloop
  endfacet
  facet normal 0.85264 0.522499 0
    outer loop
      vertex -1.53699 -0.783134 7.8
      vertex -1.39555 -1.01393 7.8
      vertex -1.39555 -1.01393 -7.8
    endloop
  endfacet
  facet normal 0.85264 0.522499 0
    outer loop
      vertex -1.53699 -0.783134 -7.8
      vertex -1.53699 -0.783134 7.8
      vertex -1.39555 -1.01393 -7.8
    endloop
  endfacet
  facet normal 0.92388 0.382682 0
    outer loop
      vertex -1.64057 -0.533054 7.8
      vertex -1.53699 -0.783134 7.8
      vertex -1.53699 -0.783134 -7.8
    endloop
  endfacet
  facet normal 0.92388 0.382682 0
    outer loop
      vertex -1.64057 -0.533054 -7.8
      vertex -1.64057 -0.533054 7.8
      vertex -1.53699 -0.783134 -7.8
    endloop
  endfacet
  facet normal 0.97237 0.233446 0
    outer loop
      vertex -1.70376 -0.269849 7.8
      vertex -1.64057 -0.533054 7.8
      vertex -1.64057 -0.533054 -7.8
    endloop
  endfacet
  facet normal 0.97237 0.233446 0
    outer loop
      vertex -1.70376 -0.269849 -7.8
      vertex -1.70376 -0.269849 7.8
      vertex -1.64057 -0.533054 -7.8
    endloop
  endfacet
  facet normal 0.996917 0.0784597 0
    outer loop
      vertex 4 0 -3.8
      vertex 3.95075 0.625738 -3.8
      vertex 3.95075 0.625738 7.8
    endloop
  endfacet
  facet normal 0.996917 0.0784597 0
    outer loop
      vertex 4 0 7.8
      vertex 4 0 -3.8
      vertex 3.95075 0.625738 7.8
    endloop
  endfacet
  facet normal 0.97237 0.233445 0
    outer loop
      vertex 3.95075 0.625738 -3.8
      vertex 3.80423 1.23607 -3.8
      vertex 3.80423 1.23607 7.8
    endloop
  endfacet
  facet normal 0.97237 0.233445 0
    outer loop
      vertex 3.95075 0.625738 7.8
      vertex 3.95075 0.625738 -3.8
      vertex 3.80423 1.23607 7.8
    endloop
  endfacet
  facet normal 0.92388 0.382683 0
    outer loop
      vertex 3.80423 1.23607 -3.8
      vertex 3.56403 1.81596 -3.8
      vertex 3.56403 1.81596 7.8
    endloop
  endfacet
  facet normal 0.92388 0.382683 0
    outer loop
      vertex 3.80423 1.23607 7.8
      vertex 3.80423 1.23607 -3.8
      vertex 3.56403 1.81596 7.8
    endloop
  endfacet
  facet normal 0.85264 0.522498 0
    outer loop
      vertex 3.56403 1.81596 -3.8
      vertex 3.23607 2.35114 -3.8
      vertex 3.23607 2.35114 7.8
    endloop
  endfacet
  facet normal 0.85264 0.522498 0
    outer loop
      vertex 3.56403 1.81596 7.8
      vertex 3.56403 1.81596 -3.8
      vertex 3.23607 2.35114 7.8
    endloop
  endfacet
  facet normal 0.760406 0.649448 0
    outer loop
      vertex 3.23607 2.35114 -3.8
      vertex 2.82843 2.82843 -3.8
      vertex 2.82843 2.82843 7.8
    endloop
  endfacet
  facet normal 0.760406 0.649448 0
    outer loop
      vertex 3.23607 2.35114 7.8
      vertex 3.23607 2.35114 -3.8
      vertex 2.82843 2.82843 7.8
    endloop
  endfacet
  facet normal 0.649448 0.760406 0
    outer loop
      vertex 2.35114 3.23607 -3.8
      vertex 2.35114 3.23607 7.8
      vertex 2.82843 2.82843 -3.8
    endloop
  endfacet
  facet normal 0.649448 0.760406 0
    outer loop
      vertex 2.82843 2.82843 -3.8
      vertex 2.35114 3.23607 7.8
      vertex 2.82843 2.82843 7.8
    endloop
  endfacet
  facet normal 0.522498 0.85264 0
    outer loop
      vertex 1.81596 3.56403 -3.8
      vertex 1.81596 3.56403 7.8
      vertex 2.35114 3.23607 -3.8
    endloop
  endfacet
  facet normal 0.522498 0.85264 0
    outer loop
      vertex 2.35114 3.23607 -3.8
      vertex 1.81596 3.56403 7.8
      vertex 2.35114 3.23607 7.8
    endloop
  endfacet
  facet normal 0.382683 0.92388 0
    outer loop
      vertex 1.23607 3.80423 -3.8
      vertex 1.23607 3.80423 7.8
      vertex 1.81596 3.56403 -3.8
    endloop
  endfacet
  facet normal 0.382683 0.92388 0
    outer loop
      vertex 1.81596 3.56403 -3.8
      vertex 1.23607 3.80423 7.8
      vertex 1.81596 3.56403 7.8
    endloop
  endfacet
  facet normal 0.233445 0.97237 0
    outer loop
      vertex 0.625738 3.95075 -3.8
      vertex 0.625738 3.95075 7.8
      vertex 1.23607 3.80423 -3.8
    endloop
  endfacet
  facet normal 0.233445 0.97237 0
    outer loop
      vertex 1.23607 3.80423 -3.8
      vertex 0.625738 3.95075 7.8
      vertex 1.23607 3.80423 7.8
    endloop
  endfacet
  facet normal 0.0784597 0.996917 0
    outer loop
      vertex 0 4 -3.8
      vertex 0 4 7.8
      vertex 0.625738 3.95075 -3.8
    endloop
  endfacet
  facet normal 0.0784597 0.996917 0
    outer loop
      vertex 0.625738 3.95075 -3.8
      vertex 0 4 7.8
      vertex 0.625738 3.95075 7.8
    endloop
  endfacet
  facet normal -0.0784597 0.996917 0
    outer loop
      vertex -0.625738 3.95075 -3.8
      vertex -0.625738 3.95075 7.8
      vertex 0 4 -3.8
    endloop
  endfacet
  facet normal -0.0784597 0.996917 0
    outer loop
      vertex 0 4 -3.8
      vertex -0.625738 3.95075 7.8
      vertex 0 4 7.8
    endloop
  endfacet
  facet normal -0.233445 0.97237 0
    outer loop
      vertex -1.23607 3.80423 -3.8
      vertex -1.23607 3.80423 7.8
      vertex -0.625738 3.95075 -3.8
    endloop
  endfacet
  facet normal -0.233445 0.97237 0
    outer loop
      vertex -0.625738 3.95075 -3.8
      vertex -1.23607 3.80423 7.8
      vertex -0.625738 3.95075 7.8
    endloop
  endfacet
  facet normal -0.382683 0.92388 0
    outer loop
      vertex -1.81596 3.56403 -3.8
      vertex -1.81596 3.56403 7.8
      vertex -1.23607 3.80423 -3.8
    endloop
  endfacet
  facet normal -0.382683 0.92388 0
    outer loop
      vertex -1.23607 3.80423 -3.8
      vertex -1.81596 3.56403 7.8
      vertex -1.23607 3.80423 7.8
    endloop
  endfacet
  facet normal -0.522498 0.85264 0
    outer loop
      vertex -2.35114 3.23607 -3.8
      vertex -2.35114 3.23607 7.8
      vertex -1.81596 3.56403 -3.8
    endloop
  endfacet
  facet normal -0.522498 0.85264 0
    outer loop
      vertex -1.81596 3.56403 -3.8
      vertex -2.35114 3.23607 7.8
      vertex -1.81596 3.56403 7.8
    endloop
  endfacet
  facet normal -0.649448 0.760406 0
    outer loop
      vertex -2.82843 2.82843 -3.8
      vertex -2.82843 2.82843 7.8
      vertex -2.35114 3.23607 -3.8
    endloop
  endfacet
  facet normal -0.649448 0.760406 0
    outer loop
      vertex -2.35114 3.23607 -3.8
      vertex -2.82843 2.82843 7.8
      vertex -2.35114 3.23607 7.8
    endloop
  endfacet
  facet normal -0.760406 0.649448 0
    outer loop
      vertex -3.23607 2.35114 -3.8
      vertex -3.23607 2.35114 7.8
      vertex -2.82843 2.82843 -3.8
    endloop
  endfacet
  facet normal -0.760406 0.649448 0
    outer loop
      vertex -2.82843 2.82843 -3.8
      vertex -3.23607 2.35114 7.8
      vertex -2.82843 2.82843 7.8
    endloop
  endfacet
  facet normal -0.85264 0.522498 0
    outer loop
      vertex -3.56403 1.81596 -3.8
      vertex -3.56403 1.81596 7.8
      vertex -3.23607 2.35114 -3.8
    endloop
  endfacet
  facet normal -0.85264 0.522498 0
    outer loop
      vertex -3.23607 2.35114 -3.8
      vertex -3.56403 1.81596 7.8
      vertex -3.23607 2.35114 7.8
    endloop
  endfacet
  facet normal -0.92388 0.382683 0
    outer loop
      vertex -3.80423 1.23607 -3.8
      vertex -3.80423 1.23607 7.8
      vertex -3.56403 1.81596 -3.8
    endloop
  endfacet
  facet normal -0.92388 0.382683 0
    outer loop
      vertex -3.56403 1.81596 -3.8
      vertex -3.80423 1.23607 7.8
      vertex -3.56403 1.81596 7.8
    endloop
  endfacet
  facet normal -0.97237 0.233445 0
    outer loop
      vertex -3.95075 0.625738 -3.8
      vertex -3.95075 0.625738 7.8
      vertex -3.80423 1.23607 -3.8
    endloop
  endfacet
  facet normal -0.97237 0.233445 0
    outer loop
      vertex -3.80423 1.23607 -3.8
      vertex -3.95075 0.625738 7.8
      vertex -3.80423 1.23607 7.8
    endloop
  endfacet
endsolid OpenSCAD_Model
