solid OpenSCAD_Model
  facet normal -1 0 0
    outer loop
      vertex 0 0 0
      vertex 0 0 5
      vertex 0 35 0
    endloop
  endfacet
  facet normal -1 0 0
    outer loop
      vertex 0 35 0
      vertex 0 0 5
      vertex 0 35 5
    endloop
  endfacet
  facet normal -0.996917 -0.0784588 0
    outer loop
      vertex 0 0 0
      vertex 0.061558 -0.782172 0
      vertex 0 0 5
    endloop
  endfacet
  facet normal -0.996917 -0.0784588 0
    outer loop
      vertex 0 0 5
      vertex 0.061558 -0.782172 0
      vertex 0.061558 -0.782172 5
    endloop
  endfacet
  facet normal 0 0 -1
    outer loop
      vertex 0 0 0
      vertex 0 35 0
      vertex 0.061558 -0.782172 0
    endloop
  endfacet
  facet normal 0 0 -1
    outer loop
      vertex 0.061558 -0.782172 0
      vertex 0 35 0
      vertex 0.061558 35.7822 0
    endloop
  endfacet
  facet normal 0 0 -1
    outer loop
      vertex 0.061558 -0.782172 0
      vertex 0.061558 35.7822 0
      vertex 0.244717 36.5451 0
    endloop
  endfacet
  facet normal 0 0 -1
    outer loop
      vertex 0.061558 -0.782172 0
      vertex 0.244717 36.5451 0
      vertex 0.544967 37.27 0
    endloop
  endfacet
  facet normal 0 0 -1
    outer loop
      vertex 0.061558 -0.782172 0
      vertex 0.544967 37.27 0
      vertex 0.954915 37.9389 0
    endloop
  endfacet
  facet normal 0 0 -1
    outer loop
      vertex 0.061558 -0.782172 0
      vertex 0.954915 37.9389 0
      vertex 1.46447 38.5355 0
    endloop
  endfacet
  facet normal 0 0 -1
    outer loop
      vertex 0.061558 -0.782172 0
      vertex 1.46447 38.5355 0
      vertex 2.06107 39.0451 0
    endloop
  endfacet
  facet normal 0 0 -1
    outer loop
      vertex 0.061558 -0.782172 0
      vertex 2.06107 39.0451 0
      vertex 2.73005 39.455 0
    endloop
  endfacet
  facet normal 0 0 -1
    outer loop
      vertex 0.061558 -0.782172 0
      vertex 2.73005 39.455 0
      vertex 3.45492 39.7553 0
    endloop
  endfacet
  facet normal 0 0 -1
    outer loop
      vertex 0.061558 -0.782172 0
      vertex 3.45492 39.7553 0
      vertex 4.21783 39.9384 0
    endloop
  endfacet
  facet normal 0 0 -1
    outer loop
      vertex 0.061558 -0.782172 0
      vertex 4.21783 39.9384 0
      vertex 5 40 0
    endloop
  endfacet
  facet normal 0 0 -1
    outer loop
      vertex 0.061558 -0.782172 0
      vertex 5 40 0
      vertex 5.78217 39.9384 0
    endloop
  endfacet
  facet normal 0 0 -1
    outer loop
      vertex 0.061558 -0.782172 0
      vertex 5.78217 39.9384 0
      vertex 6.54508 39.7553 0
    endloop
  endfacet
  facet normal 0 0 -1
    outer loop
      vertex 0.061558 -0.782172 0
      vertex 6.54508 39.7553 0
      vertex 7.26995 39.455 0
    endloop
  endfacet
  facet normal 0 0 -1
    outer loop
      vertex 0.061558 -0.782172 0
      vertex 7.26995 39.455 0
      vertex 7.93893 39.0451 0
    endloop
  endfacet
  facet normal 0 0 -1
    outer loop
      vertex 0.061558 -0.782172 0
      vertex 7.93893 39.0451 0
      vertex 8.53553 38.5355 0
    endloop
  endfacet
  facet normal 0 0 -1
    outer loop
      vertex 0.061558 -0.782172 0
      vertex 8.53553 38.5355 0
      vertex 9.04508 37.9389 0
    endloop
  endfacet
  facet normal 0 0 -1
    outer loop
      vertex 0.061558 -0.782172 0
      vertex 9.04508 37.9389 0
      vertex 9.45503 37.27 0
    endloop
  endfacet
  facet normal 0 0 -1
    outer loop
      vertex 0.061558 -0.782172 0
      vertex 9.45503 37.27 0
      vertex 9.75528 36.5451 0
    endloop
  endfacet
  facet normal 0 0 -1
    outer loop
      vertex 0.061558 -0.782172 0
      vertex 9.75528 36.5451 0
      vertex 9.93844 35.7822 0
    endloop
  endfacet
  facet normal 0 0 -1
    outer loop
      vertex 0.061558 -0.782172 0
      vertex 9.93844 35.7822 0
      vertex 10 35 0
    endloop
  endfacet
  facet normal 0 0 -1
    outer loop
      vertex 6.70376 0.269849 0
      vertex 10 35 0
      vertex 6.725 0 0
    endloop
  endfacet
  facet normal 0 0 -1
    outer loop
      vertex 6.64057 -0.533054 0
      vertex 10 0 0
      vertex 9.93844 -0.782172 0
    endloop
  endfacet
  facet normal 0 0 -1
    outer loop
      vertex 6.39555 -1.01393 0
      vertex 9.93844 -0.782172 0
      vertex 9.75528 -1.54508 0
    endloop
  endfacet
  facet normal 0 0 -1
    outer loop
      vertex 5.78313 -1.53699 0
      vertex 9.75528 -1.54508 0
      vertex 9.45503 -2.26995 0
    endloop
  endfacet
  facet normal 0 0 -1
    outer loop
      vertex 5 -1.725 0
      vertex 9.45503 -2.26995 0
      vertex 9.04508 -2.93893 0
    endloop
  endfacet
  facet normal 0 0 -1
    outer loop
      vertex 0.061558 -0.782172 0
      vertex 9.04508 -2.93893 0
      vertex 8.53553 -3.53553 0
    endloop
  endfacet
  facet normal 0 0 -1
    outer loop
      vertex 0.061558 -0.782172 0
      vertex 8.53553 -3.53553 0
      vertex 7.93893 -4.04508 0
    endloop
  endfacet
  facet normal 0 0 -1
    outer loop
      vertex 0.061558 -0.782172 0
      vertex 7.93893 -4.04508 0
      vertex 7.26995 -4.45503 0
    endloop
  endfacet
  facet normal 0 0 -1
    outer loop
      vertex 0.061558 -0.782172 0
      vertex 7.26995 -4.45503 0
      vertex 6.54508 -4.75528 0
    endloop
  endfacet
  facet normal 0 0 -1
    outer loop
      vertex 0.061558 -0.782172 0
      vertex 6.54508 -4.75528 0
      vertex 5.78217 -4.93844 0
    endloop
  endfacet
  facet normal 0 0 -1
    outer loop
      vertex 0.061558 -0.782172 0
      vertex 5.78217 -4.93844 0
      vertex 5 -5 0
    endloop
  endfacet
  facet normal 0 0 -1
    outer loop
      vertex 0.061558 -0.782172 0
      vertex 5 -5 0
      vertex 4.21783 -4.93844 0
    endloop
  endfacet
  facet normal 0 0 -1
    outer loop
      vertex 0.061558 -0.782172 0
      vertex 4.21783 -4.93844 0
      vertex 3.45492 -4.75528 0
    endloop
  endfacet
  facet normal 0 0 -1
    outer loop
      vertex 0.061558 -0.782172 0
      vertex 3.45492 -4.75528 0
      vertex 2.73005 -4.45503 0
    endloop
  endfacet
  facet normal 0 0 -1
    outer loop
      vertex 0.061558 -0.782172 0
      vertex 2.73005 -4.45503 0
      vertex 2.06107 -4.04508 0
    endloop
  endfacet
  facet normal 0 0 -1
    outer loop
      vertex 0.061558 -0.782172 0
      vertex 2.06107 -4.04508 0
      vertex 1.46447 -3.53553 0
    endloop
  endfacet
  facet normal 0 0 -1
    outer loop
      vertex 0.061558 -0.782172 0
      vertex 1.46447 -3.53553 0
      vertex 0.954915 -2.93893 0
    endloop
  endfacet
  facet normal 0 0 -1
    outer loop
      vertex 0.061558 -0.782172 0
      vertex 0.954915 -2.93893 0
      vertex 0.544967 -2.26995 0
    endloop
  endfacet
  facet normal 0 0 -1
    outer loop
      vertex 0.061558 -0.782172 0
      vertex 0.544967 -2.26995 0
      vertex 0.244717 -1.54508 0
    endloop
  endfacet
  facet normal 0 0 -1
    outer loop
      vertex 6.725 0 0
      vertex 10 35 0
      vertex 10 0 0
    endloop
  endfacet
  facet normal 0 0 -1
    outer loop
      vertex 0.061558 -0.782172 0
      vertex 3.275 0 0
      vertex 3.29624 -0.269849 0
    endloop
  endfacet
  facet normal 0 0 -1
    outer loop
      vertex 3.46301 -0.783134 0
      vertex 0.061558 -0.782172 0
      vertex 3.35943 -0.533054 0
    endloop
  endfacet
  facet normal 0 0 -1
    outer loop
      vertex 3.78024 -1.21976 0
      vertex 0.061558 -0.782172 0
      vertex 3.60445 -1.01393 0
    endloop
  endfacet
  facet normal 0 0 -1
    outer loop
      vertex 0.061558 -0.782172 0
      vertex 3.46301 -0.783134 0
      vertex 3.60445 -1.01393 0
    endloop
  endfacet
  facet normal 0 0 -1
    outer loop
      vertex 4.21687 -1.53699 0
      vertex 0.061558 -0.782172 0
      vertex 3.98607 -1.39555 0
    endloop
  endfacet
  facet normal 0 0 -1
    outer loop
      vertex 0.061558 -0.782172 0
      vertex 3.78024 -1.21976 0
      vertex 3.98607 -1.39555 0
    endloop
  endfacet
  facet normal 0 0 -1
    outer loop
      vertex 5 -1.725 0
      vertex 9.04508 -2.93893 0
      vertex 4.73015 -1.70376 0
    endloop
  endfacet
  facet normal 0 0 -1
    outer loop
      vertex 0.061558 -0.782172 0
      vertex 4.21687 -1.53699 0
      vertex 4.46695 -1.64057 0
    endloop
  endfacet
  facet normal 0 0 -1
    outer loop
      vertex 0.061558 -0.782172 0
      vertex 4.46695 -1.64057 0
      vertex 9.04508 -2.93893 0
    endloop
  endfacet
  facet normal 0 0 -1
    outer loop
      vertex 4.46695 -1.64057 0
      vertex 4.73015 -1.70376 0
      vertex 9.04508 -2.93893 0
    endloop
  endfacet
  facet normal 0 0 -1
    outer loop
      vertex 5.26985 -1.70376 0
      vertex 9.45503 -2.26995 0
      vertex 5 -1.725 0
    endloop
  endfacet
  facet normal 0 0 -1
    outer loop
      vertex 5.53305 -1.64057 0
      vertex 9.45503 -2.26995 0
      vertex 5.26985 -1.70376 0
    endloop
  endfacet
  facet normal 0 0 -1
    outer loop
      vertex 5.78313 -1.53699 0
      vertex 9.45503 -2.26995 0
      vertex 5.53305 -1.64057 0
    endloop
  endfacet
  facet normal 0 0 -1
    outer loop
      vertex 6.01393 -1.39555 0
      vertex 9.75528 -1.54508 0
      vertex 5.78313 -1.53699 0
    endloop
  endfacet
  facet normal 0 0 -1
    outer loop
      vertex 6.21976 -1.21976 0
      vertex 9.75528 -1.54508 0
      vertex 6.01393 -1.39555 0
    endloop
  endfacet
  facet normal 0 0 -1
    outer loop
      vertex 6.39555 -1.01393 0
      vertex 9.75528 -1.54508 0
      vertex 6.21976 -1.21976 0
    endloop
  endfacet
  facet normal 0 0 -1
    outer loop
      vertex 6.53699 -0.783134 0
      vertex 9.93844 -0.782172 0
      vertex 6.39555 -1.01393 0
    endloop
  endfacet
  facet normal 0 0 -1
    outer loop
      vertex 6.64057 -0.533054 0
      vertex 9.93844 -0.782172 0
      vertex 6.53699 -0.783134 0
    endloop
  endfacet
  facet normal 0 0 -1
    outer loop
      vertex 6.70376 -0.269849 0
      vertex 10 0 0
      vertex 6.64057 -0.533054 0
    endloop
  endfacet
  facet normal 0 0 -1
    outer loop
      vertex 6.725 0 0
      vertex 10 0 0
      vertex 6.70376 -0.269849 0
    endloop
  endfacet
  facet normal 0 0 -1
    outer loop
      vertex 3.35943 0.533054 0
      vertex 10 35 0
      vertex 3.46301 0.783134 0
    endloop
  endfacet
  facet normal 0 0 -1
    outer loop
      vertex 6.64057 0.533054 0
      vertex 10 35 0
      vertex 6.70376 0.269849 0
    endloop
  endfacet
  facet normal 0 0 -1
    outer loop
      vertex 6.53699 0.783134 0
      vertex 10 35 0
      vertex 6.64057 0.533054 0
    endloop
  endfacet
  facet normal 0 0 -1
    outer loop
      vertex 6.39555 1.01393 0
      vertex 10 35 0
      vertex 6.53699 0.783134 0
    endloop
  endfacet
  facet normal 0 0 -1
    outer loop
      vertex 6.21976 1.21976 0
      vertex 10 35 0
      vertex 6.39555 1.01393 0
    endloop
  endfacet
  facet normal 0 0 -1
    outer loop
      vertex 6.01393 1.39555 0
      vertex 10 35 0
      vertex 6.21976 1.21976 0
    endloop
  endfacet
  facet normal 0 0 -1
    outer loop
      vertex 5.78313 1.53699 0
      vertex 10 35 0
      vertex 6.01393 1.39555 0
    endloop
  endfacet
  facet normal 0 0 -1
    outer loop
      vertex 5.53305 1.64057 0
      vertex 10 35 0
      vertex 5.78313 1.53699 0
    endloop
  endfacet
  facet normal 0 0 -1
    outer loop
      vertex 5.26985 1.70376 0
      vertex 10 35 0
      vertex 5.53305 1.64057 0
    endloop
  endfacet
  facet normal 0 0 -1
    outer loop
      vertex 5 1.725 0
      vertex 10 35 0
      vertex 5.26985 1.70376 0
    endloop
  endfacet
  facet normal 0 0 -1
    outer loop
      vertex 4.73015 1.70376 0
      vertex 10 35 0
      vertex 5 1.725 0
    endloop
  endfacet
  facet normal 0 0 -1
    outer loop
      vertex 4.46695 1.64057 0
      vertex 10 35 0
      vertex 4.73015 1.70376 0
    endloop
  endfacet
  facet normal 0 0 -1
    outer loop
      vertex 4.21687 1.53699 0
      vertex 10 35 0
      vertex 4.46695 1.64057 0
    endloop
  endfacet
  facet normal 0 0 -1
    outer loop
      vertex 3.98607 1.39555 0
      vertex 10 35 0
      vertex 4.21687 1.53699 0
    endloop
  endfacet
  facet normal 0 0 -1
    outer loop
      vertex 3.78024 1.21976 0
      vertex 10 35 0
      vertex 3.98607 1.39555 0
    endloop
  endfacet
  facet normal 0 0 -1
    outer loop
      vertex 3.60445 1.01393 0
      vertex 10 35 0
      vertex 3.78024 1.21976 0
    endloop
  endfacet
  facet normal 0 0 -1
    outer loop
      vertex 3.46301 0.783134 0
      vertex 10 35 0
      vertex 3.60445 1.01393 0
    endloop
  endfacet
  facet normal 0 0 -1
    outer loop
      vertex 0.061558 -0.782172 0
      vertex 10 35 0
      vertex 3.35943 0.533054 0
    endloop
  endfacet
  facet normal 0 0 -1
    outer loop
      vertex 0.061558 -0.782172 0
      vertex 3.35943 0.533054 0
      vertex 3.29624 0.269849 0
    endloop
  endfacet
  facet normal 0 0 -1
    outer loop
      vertex 0.061558 -0.782172 0
      vertex 3.29624 0.269849 0
      vertex 3.275 0 0
    endloop
  endfacet
  facet normal 0 0 -1
    outer loop
      vertex 3.35943 -0.533054 0
      vertex 0.061558 -0.782172 0
      vertex 3.29624 -0.269849 0
    endloop
  endfacet
  facet normal -0.996917 0.0784588 0
    outer loop
      vertex 0 35 0
      vertex 0 35 5
      vertex 0.061558 35.7822 0
    endloop
  endfacet
  facet normal -0.996917 0.0784588 0
    outer loop
      vertex 0.061558 35.7822 0
      vertex 0 35 5
      vertex 0.061558 35.7822 5
    endloop
  endfacet
  facet normal 0 0 1
    outer loop
      vertex 0 35 5
      vertex 0 0 5
      vertex 0.061558 -0.782172 5
    endloop
  endfacet
  facet normal 0 0 1
    outer loop
      vertex 0.544967 -2.26995 5
      vertex 0 35 5
      vertex 0.244717 -1.54508 5
    endloop
  endfacet
  facet normal 0 0 1
    outer loop
      vertex 0.244717 -1.54508 5
      vertex 0 35 5
      vertex 0.061558 -0.782172 5
    endloop
  endfacet
  facet normal 0 0 1
    outer loop
      vertex 0.954915 -2.93893 5
      vertex 0 35 5
      vertex 0.544967 -2.26995 5
    endloop
  endfacet
  facet normal 0 0 1
    outer loop
      vertex 1.46447 -3.53553 5
      vertex 0 35 5
      vertex 0.954915 -2.93893 5
    endloop
  endfacet
  facet normal 0 0 1
    outer loop
      vertex 2.06107 -4.04508 5
      vertex 0 35 5
      vertex 1.46447 -3.53553 5
    endloop
  endfacet
  facet normal 0 0 1
    outer loop
      vertex 2.73005 -4.45503 5
      vertex 0 35 5
      vertex 2.06107 -4.04508 5
    endloop
  endfacet
  facet normal 0 0 1
    outer loop
      vertex 3.45492 -4.75528 5
      vertex 0 35 5
      vertex 2.73005 -4.45503 5
    endloop
  endfacet
  facet normal 0 0 1
    outer loop
      vertex 3.29624 -0.269849 5
      vertex 0 35 5
      vertex 3.45492 -4.75528 5
    endloop
  endfacet
  facet normal 0 0 1
    outer loop
      vertex 4.46695 -1.64057 5
      vertex 4.21687 -1.53699 5
      vertex 5 -5 5
    endloop
  endfacet
  facet normal 0 0 1
    outer loop
      vertex 5.78313 -1.53699 5
      vertex 5.53305 -1.64057 5
      vertex 6.54508 -4.75528 5
    endloop
  endfacet
  facet normal 0 0 1
    outer loop
      vertex 6.70376 0.269849 5
      vertex 6.725 0 5
      vertex 7.93893 -4.04508 5
    endloop
  endfacet
  facet normal 0 0 1
    outer loop
      vertex 8.53553 -3.53553 5
      vertex 0 35 5
      vertex 7.93893 -4.04508 5
    endloop
  endfacet
  facet normal 0 0 1
    outer loop
      vertex 9.04508 -2.93893 5
      vertex 0 35 5
      vertex 8.53553 -3.53553 5
    endloop
  endfacet
  facet normal 0 0 1
    outer loop
      vertex 9.45503 -2.26995 5
      vertex 0 35 5
      vertex 9.04508 -2.93893 5
    endloop
  endfacet
  facet normal 0 0 1
    outer loop
      vertex 9.75528 -1.54508 5
      vertex 0 35 5
      vertex 9.45503 -2.26995 5
    endloop
  endfacet
  facet normal 0 0 1
    outer loop
      vertex 9.93844 -0.782172 5
      vertex 0 35 5
      vertex 9.75528 -1.54508 5
    endloop
  endfacet
  facet normal 0 0 1
    outer loop
      vertex 10 0 5
      vertex 0 35 5
      vertex 9.93844 -0.782172 5
    endloop
  endfacet
  facet normal 0 0 1
    outer loop
      vertex 1.19577 33.7639 5
      vertex 0 35 5
      vertex 10 0 5
    endloop
  endfacet
  facet normal 0 0 1
    outer loop
      vertex 1 35 5
      vertex 0 35 5
      vertex 1.04925 34.3743 5
    endloop
  endfacet
  facet normal 0 0 1
    outer loop
      vertex 6.81596 38.564 5
      vertex 7.35114 38.2361 5
      vertex 7.93893 39.0451 5
    endloop
  endfacet
  facet normal 0 0 1
    outer loop
      vertex 2.64886 38.2361 5
      vertex 3.18404 38.564 5
      vertex 4.21783 39.9384 5
    endloop
  endfacet
  facet normal 0 0 1
    outer loop
      vertex 3.76393 38.8042 5
      vertex 4.37426 38.9508 5
      vertex 5 40 5
    endloop
  endfacet
  facet normal 0 0 1
    outer loop
      vertex 2.73005 39.455 5
      vertex 0 35 5
      vertex 3.45492 39.7553 5
    endloop
  endfacet
  facet normal 0 0 1
    outer loop
      vertex 2.06107 39.0451 5
      vertex 0 35 5
      vertex 2.73005 39.455 5
    endloop
  endfacet
  facet normal 0 0 1
    outer loop
      vertex 1.46447 38.5355 5
      vertex 0 35 5
      vertex 2.06107 39.0451 5
    endloop
  endfacet
  facet normal 0 0 1
    outer loop
      vertex 0.954915 37.9389 5
      vertex 0 35 5
      vertex 1.46447 38.5355 5
    endloop
  endfacet
  facet normal 0 0 1
    outer loop
      vertex 0.544967 37.27 5
      vertex 0 35 5
      vertex 0.954915 37.9389 5
    endloop
  endfacet
  facet normal 0 0 1
    outer loop
      vertex 0.244717 36.5451 5
      vertex 0 35 5
      vertex 0.544967 37.27 5
    endloop
  endfacet
  facet normal 0 0 1
    outer loop
      vertex 0.061558 35.7822 5
      vertex 0 35 5
      vertex 0.244717 36.5451 5
    endloop
  endfacet
  facet normal 0 0 1
    outer loop
      vertex 1.43597 33.184 5
      vertex 1.19577 33.7639 5
      vertex 10 0 5
    endloop
  endfacet
  facet normal 0 0 1
    outer loop
      vertex 7.35114 38.2361 5
      vertex 7.82843 37.8284 5
      vertex 8.53553 38.5355 5
    endloop
  endfacet
  facet normal 0 0 1
    outer loop
      vertex 4.37426 38.9508 5
      vertex 5 39 5
      vertex 5.78217 39.9384 5
    endloop
  endfacet
  facet normal 0 0 1
    outer loop
      vertex 1.76393 37.3511 5
      vertex 2.17157 37.8284 5
      vertex 3.45492 39.7553 5
    endloop
  endfacet
  facet normal 0 0 1
    outer loop
      vertex 5.62574 38.9508 5
      vertex 6.23607 38.8042 5
      vertex 7.26995 39.455 5
    endloop
  endfacet
  facet normal 0 0 1
    outer loop
      vertex 1.76393 37.3511 5
      vertex 0 35 5
      vertex 1.43597 36.816 5
    endloop
  endfacet
  facet normal 0 0 1
    outer loop
      vertex 3.45492 39.7553 5
      vertex 0 35 5
      vertex 1.76393 37.3511 5
    endloop
  endfacet
  facet normal 0 0 1
    outer loop
      vertex 3.45492 39.7553 5
      vertex 2.17157 37.8284 5
      vertex 4.21783 39.9384 5
    endloop
  endfacet
  facet normal 0 0 1
    outer loop
      vertex 2.17157 37.8284 5
      vertex 2.64886 38.2361 5
      vertex 4.21783 39.9384 5
    endloop
  endfacet
  facet normal 0 0 1
    outer loop
      vertex 4.21783 39.9384 5
      vertex 3.18404 38.564 5
      vertex 5 40 5
    endloop
  endfacet
  facet normal 0 0 1
    outer loop
      vertex 3.18404 38.564 5
      vertex 3.76393 38.8042 5
      vertex 5 40 5
    endloop
  endfacet
  facet normal 0 0 1
    outer loop
      vertex 5 40 5
      vertex 4.37426 38.9508 5
      vertex 5.78217 39.9384 5
    endloop
  endfacet
  facet normal 0 0 1
    outer loop
      vertex 1.19577 36.2361 5
      vertex 1.43597 36.816 5
      vertex 0 35 5
    endloop
  endfacet
  facet normal 0 0 1
    outer loop
      vertex 5.78217 39.9384 5
      vertex 5 39 5
      vertex 6.54508 39.7553 5
    endloop
  endfacet
  facet normal 0 0 1
    outer loop
      vertex 6.54508 39.7553 5
      vertex 5.62574 38.9508 5
      vertex 7.26995 39.455 5
    endloop
  endfacet
  facet normal 0 0 1
    outer loop
      vertex 7.26995 39.455 5
      vertex 6.23607 38.8042 5
      vertex 7.93893 39.0451 5
    endloop
  endfacet
  facet normal 0 0 1
    outer loop
      vertex 6.23607 38.8042 5
      vertex 6.81596 38.564 5
      vertex 7.93893 39.0451 5
    endloop
  endfacet
  facet normal 0 0 1
    outer loop
      vertex 7.93893 39.0451 5
      vertex 7.35114 38.2361 5
      vertex 8.53553 38.5355 5
    endloop
  endfacet
  facet normal 0 0 1
    outer loop
      vertex 5 39 5
      vertex 5.62574 38.9508 5
      vertex 6.54508 39.7553 5
    endloop
  endfacet
  facet normal 0 0 1
    outer loop
      vertex 8.53553 38.5355 5
      vertex 7.82843 37.8284 5
      vertex 9.04508 37.9389 5
    endloop
  endfacet
  facet normal 0 0 1
    outer loop
      vertex 9.04508 37.9389 5
      vertex 8.23607 37.3511 5
      vertex 9.45503 37.27 5
    endloop
  endfacet
  facet normal 0 0 1
    outer loop
      vertex 8.80423 36.2361 5
      vertex 8.95075 35.6257 5
      vertex 9.93844 35.7822 5
    endloop
  endfacet
  facet normal 0 0 1
    outer loop
      vertex 9.45503 37.27 5
      vertex 8.56403 36.816 5
      vertex 9.75528 36.5451 5
    endloop
  endfacet
  facet normal 0 0 1
    outer loop
      vertex 1.04925 35.6257 5
      vertex 1.19577 36.2361 5
      vertex 0 35 5
    endloop
  endfacet
  facet normal 0 0 1
    outer loop
      vertex 9.75528 36.5451 5
      vertex 8.80423 36.2361 5
      vertex 9.93844 35.7822 5
    endloop
  endfacet
  facet normal 0 0 1
    outer loop
      vertex 9.93844 35.7822 5
      vertex 8.95075 35.6257 5
      vertex 10 35 5
    endloop
  endfacet
  facet normal 0 0 1
    outer loop
      vertex 8.95075 35.6257 5
      vertex 9 35 5
      vertex 10 35 5
    endloop
  endfacet
  facet normal 0 0 1
    outer loop
      vertex 10 35 5
      vertex 8.95075 34.3743 5
      vertex 10 0 5
    endloop
  endfacet
  facet normal 0 0 1
    outer loop
      vertex 8.95075 34.3743 5
      vertex 8.80423 33.7639 5
      vertex 10 0 5
    endloop
  endfacet
  facet normal 0 0 1
    outer loop
      vertex 8.80423 33.7639 5
      vertex 8.56403 33.184 5
      vertex 10 0 5
    endloop
  endfacet
  facet normal 0 0 1
    outer loop
      vertex 8.56403 33.184 5
      vertex 8.23607 32.6489 5
      vertex 10 0 5
    endloop
  endfacet
  facet normal 0 0 1
    outer loop
      vertex 8.23607 32.6489 5
      vertex 7.82843 32.1716 5
      vertex 10 0 5
    endloop
  endfacet
  facet normal 0 0 1
    outer loop
      vertex 7.82843 32.1716 5
      vertex 7.35114 31.7639 5
      vertex 10 0 5
    endloop
  endfacet
  facet normal 0 0 1
    outer loop
      vertex 7.35114 31.7639 5
      vertex 6.81596 31.436 5
      vertex 10 0 5
    endloop
  endfacet
  facet normal 0 0 1
    outer loop
      vertex 6.81596 31.436 5
      vertex 6.23607 31.1958 5
      vertex 10 0 5
    endloop
  endfacet
  facet normal 0 0 1
    outer loop
      vertex 6.23607 31.1958 5
      vertex 5.62574 31.0492 5
      vertex 10 0 5
    endloop
  endfacet
  facet normal 0 0 1
    outer loop
      vertex 5.62574 31.0492 5
      vertex 5 31 5
      vertex 10 0 5
    endloop
  endfacet
  facet normal 0 0 1
    outer loop
      vertex 5 31 5
      vertex 4.37426 31.0492 5
      vertex 10 0 5
    endloop
  endfacet
  facet normal 0 0 1
    outer loop
      vertex 4.37426 31.0492 5
      vertex 3.76393 31.1958 5
      vertex 10 0 5
    endloop
  endfacet
  facet normal 0 0 1
    outer loop
      vertex 3.76393 31.1958 5
      vertex 3.18404 31.436 5
      vertex 10 0 5
    endloop
  endfacet
  facet normal 0 0 1
    outer loop
      vertex 3.18404 31.436 5
      vertex 2.64886 31.7639 5
      vertex 10 0 5
    endloop
  endfacet
  facet normal 0 0 1
    outer loop
      vertex 2.64886 31.7639 5
      vertex 2.17157 32.1716 5
      vertex 10 0 5
    endloop
  endfacet
  facet normal 0 0 1
    outer loop
      vertex 2.17157 32.1716 5
      vertex 1.76393 32.6489 5
      vertex 10 0 5
    endloop
  endfacet
  facet normal 0 0 1
    outer loop
      vertex 1.76393 32.6489 5
      vertex 1.43597 33.184 5
      vertex 10 0 5
    endloop
  endfacet
  facet normal 0 0 1
    outer loop
      vertex 1.04925 34.3743 5
      vertex 0 35 5
      vertex 1.19577 33.7639 5
    endloop
  endfacet
  facet normal 0 0 1
    outer loop
      vertex 4.21783 -4.93844 5
      vertex 3.29624 -0.269849 5
      vertex 3.45492 -4.75528 5
    endloop
  endfacet
  facet normal 0 0 1
    outer loop
      vertex 3.275 0 5
      vertex 0 35 5
      vertex 3.29624 -0.269849 5
    endloop
  endfacet
  facet normal 0 0 1
    outer loop
      vertex 3.29624 0.269849 5
      vertex 0 35 5
      vertex 3.275 0 5
    endloop
  endfacet
  facet normal 0 0 1
    outer loop
      vertex 3.35943 0.533054 5
      vertex 0 35 5
      vertex 3.29624 0.269849 5
    endloop
  endfacet
  facet normal 0 0 1
    outer loop
      vertex 3.46301 -0.783134 5
      vertex 3.35943 -0.533054 5
      vertex 4.21783 -4.93844 5
    endloop
  endfacet
  facet normal 0 0 1
    outer loop
      vertex 3.46301 0.783134 5
      vertex 0 35 5
      vertex 3.35943 0.533054 5
    endloop
  endfacet
  facet normal 0 0 1
    outer loop
      vertex 6.21976 1.21976 5
      vertex 6.39555 1.01393 5
      vertex 0 35 5
    endloop
  endfacet
  facet normal 0 0 1
    outer loop
      vertex 3.78024 -1.21976 5
      vertex 3.60445 -1.01393 5
      vertex 4.21783 -4.93844 5
    endloop
  endfacet
  facet normal 0 0 1
    outer loop
      vertex 3.78024 1.21976 5
      vertex 0 35 5
      vertex 3.60445 1.01393 5
    endloop
  endfacet
  facet normal 0 0 1
    outer loop
      vertex 3.98607 1.39555 5
      vertex 0 35 5
      vertex 3.78024 1.21976 5
    endloop
  endfacet
  facet normal 0 0 1
    outer loop
      vertex 4.73015 1.70376 5
      vertex 5 1.725 5
      vertex 0 35 5
    endloop
  endfacet
  facet normal 0 0 1
    outer loop
      vertex 3.60445 -1.01393 5
      vertex 3.46301 -0.783134 5
      vertex 4.21783 -4.93844 5
    endloop
  endfacet
  facet normal 0 0 1
    outer loop
      vertex 4.46695 1.64057 5
      vertex 0 35 5
      vertex 4.21687 1.53699 5
    endloop
  endfacet
  facet normal 0 0 1
    outer loop
      vertex 4.73015 1.70376 5
      vertex 0 35 5
      vertex 4.46695 1.64057 5
    endloop
  endfacet
  facet normal 0 0 1
    outer loop
      vertex 5.26985 1.70376 5
      vertex 5.53305 1.64057 5
      vertex 0 35 5
    endloop
  endfacet
  facet normal 0 0 1
    outer loop
      vertex 5.26985 -1.70376 5
      vertex 5 -1.725 5
      vertex 5.78217 -4.93844 5
    endloop
  endfacet
  facet normal 0 0 1
    outer loop
      vertex 5.26985 1.70376 5
      vertex 0 35 5
      vertex 5 1.725 5
    endloop
  endfacet
  facet normal 0 0 1
    outer loop
      vertex 5.53305 -1.64057 5
      vertex 5.26985 -1.70376 5
      vertex 5.78217 -4.93844 5
    endloop
  endfacet
  facet normal 0 0 1
    outer loop
      vertex 5.78313 1.53699 5
      vertex 0 35 5
      vertex 5.53305 1.64057 5
    endloop
  endfacet
  facet normal 0 0 1
    outer loop
      vertex 6.01393 1.39555 5
      vertex 0 35 5
      vertex 5.78313 1.53699 5
    endloop
  endfacet
  facet normal 0 0 1
    outer loop
      vertex 6.39555 -1.01393 5
      vertex 6.21976 -1.21976 5
      vertex 7.26995 -4.45503 5
    endloop
  endfacet
  facet normal 0 0 1
    outer loop
      vertex 6.21976 1.21976 5
      vertex 0 35 5
      vertex 6.01393 1.39555 5
    endloop
  endfacet
  facet normal 0 0 1
    outer loop
      vertex 6.53699 -0.783134 5
      vertex 6.39555 -1.01393 5
      vertex 7.26995 -4.45503 5
    endloop
  endfacet
  facet normal 0 0 1
    outer loop
      vertex 6.64057 -0.533054 5
      vertex 6.53699 -0.783134 5
      vertex 7.26995 -4.45503 5
    endloop
  endfacet
  facet normal 0 0 1
    outer loop
      vertex 6.53699 0.783134 5
      vertex 0 35 5
      vertex 6.39555 1.01393 5
    endloop
  endfacet
  facet normal 0 0 1
    outer loop
      vertex 6.64057 0.533054 5
      vertex 0 35 5
      vertex 6.53699 0.783134 5
    endloop
  endfacet
  facet normal 0 0 1
    outer loop
      vertex 7.93893 -4.04508 5
      vertex 0 35 5
      vertex 6.64057 0.533054 5
    endloop
  endfacet
  facet normal 0 0 1
    outer loop
      vertex 6.725 0 5
      vertex 6.70376 -0.269849 5
      vertex 7.93893 -4.04508 5
    endloop
  endfacet
  facet normal 0 0 1
    outer loop
      vertex 7.93893 -4.04508 5
      vertex 6.64057 0.533054 5
      vertex 6.70376 0.269849 5
    endloop
  endfacet
  facet normal 0 0 1
    outer loop
      vertex 6.70376 -0.269849 5
      vertex 6.64057 -0.533054 5
      vertex 7.26995 -4.45503 5
    endloop
  endfacet
  facet normal 0 0 1
    outer loop
      vertex 7.93893 -4.04508 5
      vertex 6.70376 -0.269849 5
      vertex 7.26995 -4.45503 5
    endloop
  endfacet
  facet normal 0 0 1
    outer loop
      vertex 6.01393 -1.39555 5
      vertex 5.78313 -1.53699 5
      vertex 6.54508 -4.75528 5
    endloop
  endfacet
  facet normal 0 0 1
    outer loop
      vertex 7.26995 -4.45503 5
      vertex 6.21976 -1.21976 5
      vertex 6.54508 -4.75528 5
    endloop
  endfacet
  facet normal 0 0 1
    outer loop
      vertex 6.21976 -1.21976 5
      vertex 6.01393 -1.39555 5
      vertex 6.54508 -4.75528 5
    endloop
  endfacet
  facet normal 0 0 1
    outer loop
      vertex 6.54508 -4.75528 5
      vertex 5.53305 -1.64057 5
      vertex 5.78217 -4.93844 5
    endloop
  endfacet
  facet normal 0 0 1
    outer loop
      vertex 4.73015 -1.70376 5
      vertex 4.46695 -1.64057 5
      vertex 5 -5 5
    endloop
  endfacet
  facet normal 0 0 1
    outer loop
      vertex 5.78217 -4.93844 5
      vertex 5 -1.725 5
      vertex 5 -5 5
    endloop
  endfacet
  facet normal 0 0 1
    outer loop
      vertex 5 -1.725 5
      vertex 4.73015 -1.70376 5
      vertex 5 -5 5
    endloop
  endfacet
  facet normal 0 0 1
    outer loop
      vertex 4.21687 -1.53699 5
      vertex 3.98607 -1.39555 5
      vertex 5 -5 5
    endloop
  endfacet
  facet normal 0 0 1
    outer loop
      vertex 3.98607 -1.39555 5
      vertex 3.78024 -1.21976 5
      vertex 4.21783 -4.93844 5
    endloop
  endfacet
  facet normal 0 0 1
    outer loop
      vertex 5 -5 5
      vertex 3.98607 -1.39555 5
      vertex 4.21783 -4.93844 5
    endloop
  endfacet
  facet normal 0 0 1
    outer loop
      vertex 3.98607 1.39555 5
      vertex 4.21687 1.53699 5
      vertex 0 35 5
    endloop
  endfacet
  facet normal 0 0 1
    outer loop
      vertex 4.21783 -4.93844 5
      vertex 3.35943 -0.533054 5
      vertex 3.29624 -0.269849 5
    endloop
  endfacet
  facet normal 0 0 1
    outer loop
      vertex 7.82843 37.8284 5
      vertex 8.23607 37.3511 5
      vertex 9.04508 37.9389 5
    endloop
  endfacet
  facet normal 0 0 1
    outer loop
      vertex 8.23607 37.3511 5
      vertex 8.56403 36.816 5
      vertex 9.45503 37.27 5
    endloop
  endfacet
  facet normal 0 0 1
    outer loop
      vertex 8.56403 36.816 5
      vertex 8.80423 36.2361 5
      vertex 9.75528 36.5451 5
    endloop
  endfacet
  facet normal 0 0 1
    outer loop
      vertex 3.46301 0.783134 5
      vertex 3.60445 1.01393 5
      vertex 0 35 5
    endloop
  endfacet
  facet normal 0 0 1
    outer loop
      vertex 9 35 5
      vertex 8.95075 34.3743 5
      vertex 10 35 5
    endloop
  endfacet
  facet normal 0 0 1
    outer loop
      vertex 1 35 5
      vertex 1.04925 35.6257 5
      vertex 0 35 5
    endloop
  endfacet
  facet normal -0.97237 -0.233445 0
    outer loop
      vertex 0.061558 -0.782172 0
      vertex 0.244717 -1.54508 0
      vertex 0.061558 -0.782172 5
    endloop
  endfacet
  facet normal -0.97237 -0.233445 0
    outer loop
      vertex 0.061558 -0.782172 5
      vertex 0.244717 -1.54508 0
      vertex 0.244717 -1.54508 5
    endloop
  endfacet
  facet normal -0.923879 -0.382684 0
    outer loop
      vertex 0.244717 -1.54508 0
      vertex 0.544967 -2.26995 0
      vertex 0.244717 -1.54508 5
    endloop
  endfacet
  facet normal -0.923879 -0.382684 0
    outer loop
      vertex 0.244717 -1.54508 5
      vertex 0.544967 -2.26995 0
      vertex 0.544967 -2.26995 5
    endloop
  endfacet
  facet normal -0.85264 -0.522499 0
    outer loop
      vertex 0.544967 -2.26995 0
      vertex 0.954915 -2.93893 0
      vertex 0.544967 -2.26995 5
    endloop
  endfacet
  facet normal -0.85264 -0.522499 0
    outer loop
      vertex 0.544967 -2.26995 5
      vertex 0.954915 -2.93893 0
      vertex 0.954915 -2.93893 5
    endloop
  endfacet
  facet normal -0.760406 -0.649448 0
    outer loop
      vertex 0.954915 -2.93893 0
      vertex 1.46447 -3.53553 0
      vertex 0.954915 -2.93893 5
    endloop
  endfacet
  facet normal -0.760406 -0.649448 0
    outer loop
      vertex 0.954915 -2.93893 5
      vertex 1.46447 -3.53553 0
      vertex 1.46447 -3.53553 5
    endloop
  endfacet
  facet normal -0.649448 -0.760406 0
    outer loop
      vertex 1.46447 -3.53553 5
      vertex 1.46447 -3.53553 0
      vertex 2.06107 -4.04508 0
    endloop
  endfacet
  facet normal -0.649448 -0.760406 0
    outer loop
      vertex 2.06107 -4.04508 5
      vertex 1.46447 -3.53553 5
      vertex 2.06107 -4.04508 0
    endloop
  endfacet
  facet normal -0.522499 -0.85264 0
    outer loop
      vertex 2.06107 -4.04508 5
      vertex 2.06107 -4.04508 0
      vertex 2.73005 -4.45503 0
    endloop
  endfacet
  facet normal -0.522499 -0.85264 0
    outer loop
      vertex 2.73005 -4.45503 5
      vertex 2.06107 -4.04508 5
      vertex 2.73005 -4.45503 0
    endloop
  endfacet
  facet normal -0.382684 -0.923879 0
    outer loop
      vertex 2.73005 -4.45503 5
      vertex 2.73005 -4.45503 0
      vertex 3.45492 -4.75528 0
    endloop
  endfacet
  facet normal -0.382684 -0.923879 0
    outer loop
      vertex 3.45492 -4.75528 5
      vertex 2.73005 -4.45503 5
      vertex 3.45492 -4.75528 0
    endloop
  endfacet
  facet normal -0.233445 -0.97237 0
    outer loop
      vertex 3.45492 -4.75528 5
      vertex 3.45492 -4.75528 0
      vertex 4.21783 -4.93844 0
    endloop
  endfacet
  facet normal -0.233445 -0.97237 0
    outer loop
      vertex 4.21783 -4.93844 5
      vertex 3.45492 -4.75528 5
      vertex 4.21783 -4.93844 0
    endloop
  endfacet
  facet normal -0.0784588 -0.996917 0
    outer loop
      vertex 4.21783 -4.93844 5
      vertex 4.21783 -4.93844 0
      vertex 5 -5 0
    endloop
  endfacet
  facet normal -0.0784588 -0.996917 0
    outer loop
      vertex 5 -5 5
      vertex 4.21783 -4.93844 5
      vertex 5 -5 0
    endloop
  endfacet
  facet normal 0.0784588 -0.996917 0
    outer loop
      vertex 5 -5 5
      vertex 5 -5 0
      vertex 5.78217 -4.93844 0
    endloop
  endfacet
  facet normal 0.0784588 -0.996917 0
    outer loop
      vertex 5.78217 -4.93844 5
      vertex 5 -5 5
      vertex 5.78217 -4.93844 0
    endloop
  endfacet
  facet normal 0.233445 -0.97237 0
    outer loop
      vertex 5.78217 -4.93844 5
      vertex 5.78217 -4.93844 0
      vertex 6.54508 -4.75528 0
    endloop
  endfacet
  facet normal 0.233445 -0.97237 0
    outer loop
      vertex 6.54508 -4.75528 5
      vertex 5.78217 -4.93844 5
      vertex 6.54508 -4.75528 0
    endloop
  endfacet
  facet normal 0.382684 -0.923879 0
    outer loop
      vertex 6.54508 -4.75528 5
      vertex 6.54508 -4.75528 0
      vertex 7.26995 -4.45503 0
    endloop
  endfacet
  facet normal 0.382684 -0.923879 0
    outer loop
      vertex 7.26995 -4.45503 5
      vertex 6.54508 -4.75528 5
      vertex 7.26995 -4.45503 0
    endloop
  endfacet
  facet normal 0.522499 -0.85264 0
    outer loop
      vertex 7.26995 -4.45503 5
      vertex 7.26995 -4.45503 0
      vertex 7.93893 -4.04508 0
    endloop
  endfacet
  facet normal 0.522499 -0.85264 0
    outer loop
      vertex 7.93893 -4.04508 5
      vertex 7.26995 -4.45503 5
      vertex 7.93893 -4.04508 0
    endloop
  endfacet
  facet normal 0.649448 -0.760406 0
    outer loop
      vertex 7.93893 -4.04508 5
      vertex 7.93893 -4.04508 0
      vertex 8.53553 -3.53553 0
    endloop
  endfacet
  facet normal 0.649448 -0.760406 0
    outer loop
      vertex 8.53553 -3.53553 5
      vertex 7.93893 -4.04508 5
      vertex 8.53553 -3.53553 0
    endloop
  endfacet
  facet normal 0.760406 -0.649448 0
    outer loop
      vertex 8.53553 -3.53553 5
      vertex 8.53553 -3.53553 0
      vertex 9.04508 -2.93893 0
    endloop
  endfacet
  facet normal 0.760406 -0.649448 0
    outer loop
      vertex 9.04508 -2.93893 5
      vertex 8.53553 -3.53553 5
      vertex 9.04508 -2.93893 0
    endloop
  endfacet
  facet normal 0.85264 -0.522499 0
    outer loop
      vertex 9.04508 -2.93893 5
      vertex 9.04508 -2.93893 0
      vertex 9.45503 -2.26995 0
    endloop
  endfacet
  facet normal 0.85264 -0.522499 0
    outer loop
      vertex 9.45503 -2.26995 5
      vertex 9.04508 -2.93893 5
      vertex 9.45503 -2.26995 0
    endloop
  endfacet
  facet normal 0.923879 -0.382684 0
    outer loop
      vertex 9.45503 -2.26995 5
      vertex 9.45503 -2.26995 0
      vertex 9.75528 -1.54508 0
    endloop
  endfacet
  facet normal 0.923879 -0.382684 0
    outer loop
      vertex 9.75528 -1.54508 5
      vertex 9.45503 -2.26995 5
      vertex 9.75528 -1.54508 0
    endloop
  endfacet
  facet normal 0.97237 -0.233445 0
    outer loop
      vertex 9.75528 -1.54508 5
      vertex 9.75528 -1.54508 0
      vertex 9.93844 -0.782172 0
    endloop
  endfacet
  facet normal 0.97237 -0.233445 0
    outer loop
      vertex 9.93844 -0.782172 5
      vertex 9.75528 -1.54508 5
      vertex 9.93844 -0.782172 0
    endloop
  endfacet
  facet normal 0.996917 -0.0784588 0
    outer loop
      vertex 9.93844 -0.782172 5
      vertex 9.93844 -0.782172 0
      vertex 10 0 0
    endloop
  endfacet
  facet normal 0.996917 -0.0784588 0
    outer loop
      vertex 10 0 5
      vertex 9.93844 -0.782172 5
      vertex 10 0 0
    endloop
  endfacet
  facet normal 1 0 0
    outer loop
      vertex 10 0 5
      vertex 10 0 0
      vertex 10 35 0
    endloop
  endfacet
  facet normal 1 0 0
    outer loop
      vertex 10 35 5
      vertex 10 0 5
      vertex 10 35 0
    endloop
  endfacet
  facet normal 0.996917 0.0784588 0
    outer loop
      vertex 10 35 0
      vertex 9.93844 35.7822 0
      vertex 9.93844 35.7822 5
    endloop
  endfacet
  facet normal 0.996917 0.0784588 0
    outer loop
      vertex 10 35 5
      vertex 10 35 0
      vertex 9.93844 35.7822 5
    endloop
  endfacet
  facet normal 0.97237 0.233445 0
    outer loop
      vertex 9.93844 35.7822 0
      vertex 9.75528 36.5451 0
      vertex 9.75528 36.5451 5
    endloop
  endfacet
  facet normal 0.97237 0.233445 0
    outer loop
      vertex 9.93844 35.7822 5
      vertex 9.93844 35.7822 0
      vertex 9.75528 36.5451 5
    endloop
  endfacet
  facet normal 0.923879 0.382684 0
    outer loop
      vertex 9.75528 36.5451 0
      vertex 9.45503 37.27 0
      vertex 9.45503 37.27 5
    endloop
  endfacet
  facet normal 0.923879 0.382684 0
    outer loop
      vertex 9.75528 36.5451 5
      vertex 9.75528 36.5451 0
      vertex 9.45503 37.27 5
    endloop
  endfacet
  facet normal 0.85264 0.522499 0
    outer loop
      vertex 9.45503 37.27 0
      vertex 9.04508 37.9389 0
      vertex 9.04508 37.9389 5
    endloop
  endfacet
  facet normal 0.85264 0.522499 0
    outer loop
      vertex 9.45503 37.27 5
      vertex 9.45503 37.27 0
      vertex 9.04508 37.9389 5
    endloop
  endfacet
  facet normal 0.760406 0.649448 0
    outer loop
      vertex 9.04508 37.9389 0
      vertex 8.53553 38.5355 0
      vertex 8.53553 38.5355 5
    endloop
  endfacet
  facet normal 0.760406 0.649448 0
    outer loop
      vertex 9.04508 37.9389 5
      vertex 9.04508 37.9389 0
      vertex 8.53553 38.5355 5
    endloop
  endfacet
  facet normal 0.649448 0.760406 0
    outer loop
      vertex 7.93893 39.0451 0
      vertex 7.93893 39.0451 5
      vertex 8.53553 38.5355 0
    endloop
  endfacet
  facet normal 0.649448 0.760406 0
    outer loop
      vertex 8.53553 38.5355 0
      vertex 7.93893 39.0451 5
      vertex 8.53553 38.5355 5
    endloop
  endfacet
  facet normal 0.522499 0.85264 0
    outer loop
      vertex 7.26995 39.455 0
      vertex 7.26995 39.455 5
      vertex 7.93893 39.0451 0
    endloop
  endfacet
  facet normal 0.522499 0.85264 0
    outer loop
      vertex 7.93893 39.0451 0
      vertex 7.26995 39.455 5
      vertex 7.93893 39.0451 5
    endloop
  endfacet
  facet normal 0.382684 0.923879 0
    outer loop
      vertex 6.54508 39.7553 0
      vertex 6.54508 39.7553 5
      vertex 7.26995 39.455 0
    endloop
  endfacet
  facet normal 0.382684 0.923879 0
    outer loop
      vertex 7.26995 39.455 0
      vertex 6.54508 39.7553 5
      vertex 7.26995 39.455 5
    endloop
  endfacet
  facet normal 0.233445 0.97237 0
    outer loop
      vertex 5.78217 39.9384 0
      vertex 5.78217 39.9384 5
      vertex 6.54508 39.7553 0
    endloop
  endfacet
  facet normal 0.233445 0.97237 0
    outer loop
      vertex 6.54508 39.7553 0
      vertex 5.78217 39.9384 5
      vertex 6.54508 39.7553 5
    endloop
  endfacet
  facet normal 0.0784588 0.996917 0
    outer loop
      vertex 5 40 0
      vertex 5 40 5
      vertex 5.78217 39.9384 0
    endloop
  endfacet
  facet normal 0.0784588 0.996917 0
    outer loop
      vertex 5.78217 39.9384 0
      vertex 5 40 5
      vertex 5.78217 39.9384 5
    endloop
  endfacet
  facet normal -0.0784588 0.996917 0
    outer loop
      vertex 4.21783 39.9384 0
      vertex 4.21783 39.9384 5
      vertex 5 40 0
    endloop
  endfacet
  facet normal -0.0784588 0.996917 0
    outer loop
      vertex 5 40 0
      vertex 4.21783 39.9384 5
      vertex 5 40 5
    endloop
  endfacet
  facet normal -0.233445 0.97237 0
    outer loop
      vertex 3.45492 39.7553 0
      vertex 3.45492 39.7553 5
      vertex 4.21783 39.9384 0
    endloop
  endfacet
  facet normal -0.233445 0.97237 0
    outer loop
      vertex 4.21783 39.9384 0
      vertex 3.45492 39.7553 5
      vertex 4.21783 39.9384 5
    endloop
  endfacet
  facet normal -0.382684 0.923879 0
    outer loop
      vertex 2.73005 39.455 0
      vertex 2.73005 39.455 5
      vertex 3.45492 39.7553 0
    endloop
  endfacet
  facet normal -0.382684 0.923879 0
    outer loop
      vertex 3.45492 39.7553 0
      vertex 2.73005 39.455 5
      vertex 3.45492 39.7553 5
    endloop
  endfacet
  facet normal -0.522499 0.85264 0
    outer loop
      vertex 2.06107 39.0451 0
      vertex 2.06107 39.0451 5
      vertex 2.73005 39.455 0
    endloop
  endfacet
  facet normal -0.522499 0.85264 0
    outer loop
      vertex 2.73005 39.455 0
      vertex 2.06107 39.0451 5
      vertex 2.73005 39.455 5
    endloop
  endfacet
  facet normal -0.649448 0.760406 0
    outer loop
      vertex 1.46447 38.5355 0
      vertex 1.46447 38.5355 5
      vertex 2.06107 39.0451 0
    endloop
  endfacet
  facet normal -0.649448 0.760406 0
    outer loop
      vertex 2.06107 39.0451 0
      vertex 1.46447 38.5355 5
      vertex 2.06107 39.0451 5
    endloop
  endfacet
  facet normal -0.760406 0.649448 0
    outer loop
      vertex 0.954915 37.9389 0
      vertex 0.954915 37.9389 5
      vertex 1.46447 38.5355 0
    endloop
  endfacet
  facet normal -0.760406 0.649448 0
    outer loop
      vertex 1.46447 38.5355 0
      vertex 0.954915 37.9389 5
      vertex 1.46447 38.5355 5
    endloop
  endfacet
  facet normal -0.85264 0.522499 0
    outer loop
      vertex 0.544967 37.27 0
      vertex 0.544967 37.27 5
      vertex 0.954915 37.9389 0
    endloop
  endfacet
  facet normal -0.85264 0.522499 0
    outer loop
      vertex 0.954915 37.9389 0
      vertex 0.544967 37.27 5
      vertex 0.954915 37.9389 5
    endloop
  endfacet
  facet normal -0.923879 0.382684 0
    outer loop
      vertex 0.244717 36.5451 0
      vertex 0.244717 36.5451 5
      vertex 0.544967 37.27 0
    endloop
  endfacet
  facet normal -0.923879 0.382684 0
    outer loop
      vertex 0.544967 37.27 0
      vertex 0.244717 36.5451 5
      vertex 0.544967 37.27 5
    endloop
  endfacet
  facet normal -0.97237 0.233445 0
    outer loop
      vertex 0.061558 35.7822 0
      vertex 0.061558 35.7822 5
      vertex 0.244717 36.5451 0
    endloop
  endfacet
  facet normal -0.97237 0.233445 0
    outer loop
      vertex 0.244717 36.5451 0
      vertex 0.061558 35.7822 5
      vertex 0.244717 36.5451 5
    endloop
  endfacet
  facet normal 0.996917 0.0784606 0
    outer loop
      vertex 3.275 0 5
      vertex 3.29624 -0.269849 5
      vertex 3.29624 -0.269849 0
    endloop
  endfacet
  facet normal 0.996917 0.0784606 0
    outer loop
      vertex 3.275 0 0
      vertex 3.275 0 5
      vertex 3.29624 -0.269849 0
    endloop
  endfacet
  facet normal 0.996917 -0.0784606 0
    outer loop
      vertex 3.29624 0.269849 0
      vertex 3.29624 0.269849 5
      vertex 3.275 0 5
    endloop
  endfacet
  facet normal 0.996917 -0.0784606 0
    outer loop
      vertex 3.275 0 0
      vertex 3.29624 0.269849 0
      vertex 3.275 0 5
    endloop
  endfacet
  facet normal 0.97237 -0.233446 0
    outer loop
      vertex 3.35943 0.533054 0
      vertex 3.35943 0.533054 5
      vertex 3.29624 0.269849 5
    endloop
  endfacet
  facet normal 0.97237 -0.233446 0
    outer loop
      vertex 3.29624 0.269849 0
      vertex 3.35943 0.533054 0
      vertex 3.29624 0.269849 5
    endloop
  endfacet
  facet normal 0.92388 -0.382682 0
    outer loop
      vertex 3.46301 0.783134 0
      vertex 3.46301 0.783134 5
      vertex 3.35943 0.533054 5
    endloop
  endfacet
  facet normal 0.92388 -0.382682 0
    outer loop
      vertex 3.35943 0.533054 0
      vertex 3.46301 0.783134 0
      vertex 3.35943 0.533054 5
    endloop
  endfacet
  facet normal 0.85264 -0.522499 0
    outer loop
      vertex 3.60445 1.01393 0
      vertex 3.60445 1.01393 5
      vertex 3.46301 0.783134 5
    endloop
  endfacet
  facet normal 0.85264 -0.522499 0
    outer loop
      vertex 3.46301 0.783134 0
      vertex 3.60445 1.01393 0
      vertex 3.46301 0.783134 5
    endloop
  endfacet
  facet normal 0.760405 -0.649449 0
    outer loop
      vertex 3.78024 1.21976 0
      vertex 3.78024 1.21976 5
      vertex 3.60445 1.01393 5
    endloop
  endfacet
  facet normal 0.760405 -0.649449 0
    outer loop
      vertex 3.60445 1.01393 0
      vertex 3.78024 1.21976 0
      vertex 3.60445 1.01393 5
    endloop
  endfacet
  facet normal 0.649449 -0.760405 0
    outer loop
      vertex 3.98607 1.39555 0
      vertex 3.98607 1.39555 5
      vertex 3.78024 1.21976 5
    endloop
  endfacet
  facet normal 0.649449 -0.760405 0
    outer loop
      vertex 3.78024 1.21976 0
      vertex 3.98607 1.39555 0
      vertex 3.78024 1.21976 5
    endloop
  endfacet
  facet normal 0.522499 -0.85264 0
    outer loop
      vertex 4.21687 1.53699 0
      vertex 4.21687 1.53699 5
      vertex 3.98607 1.39555 5
    endloop
  endfacet
  facet normal 0.522499 -0.85264 0
    outer loop
      vertex 3.98607 1.39555 0
      vertex 4.21687 1.53699 0
      vertex 3.98607 1.39555 5
    endloop
  endfacet
  facet normal 0.382682 -0.92388 0
    outer loop
      vertex 4.46695 1.64057 0
      vertex 4.46695 1.64057 5
      vertex 4.21687 1.53699 5
    endloop
  endfacet
  facet normal 0.382682 -0.92388 0
    outer loop
      vertex 4.21687 1.53699 0
      vertex 4.46695 1.64057 0
      vertex 4.21687 1.53699 5
    endloop
  endfacet
  facet normal 0.233446 -0.97237 0
    outer loop
      vertex 4.73015 1.70376 0
      vertex 4.73015 1.70376 5
      vertex 4.46695 1.64057 5
    endloop
  endfacet
  facet normal 0.233446 -0.97237 0
    outer loop
      vertex 4.46695 1.64057 0
      vertex 4.73015 1.70376 0
      vertex 4.46695 1.64057 5
    endloop
  endfacet
  facet normal 0.0784606 -0.996917 0
    outer loop
      vertex 5 1.725 0
      vertex 5 1.725 5
      vertex 4.73015 1.70376 5
    endloop
  endfacet
  facet normal 0.0784606 -0.996917 0
    outer loop
      vertex 4.73015 1.70376 0
      vertex 5 1.725 0
      vertex 4.73015 1.70376 5
    endloop
  endfacet
  facet normal -0.0784606 -0.996917 0
    outer loop
      vertex 5.26985 1.70376 0
      vertex 5.26985 1.70376 5
      vertex 5 1.725 5
    endloop
  endfacet
  facet normal -0.0784606 -0.996917 0
    outer loop
      vertex 5 1.725 0
      vertex 5.26985 1.70376 0
      vertex 5 1.725 5
    endloop
  endfacet
  facet normal -0.233446 -0.97237 0
    outer loop
      vertex 5.53305 1.64057 0
      vertex 5.53305 1.64057 5
      vertex 5.26985 1.70376 5
    endloop
  endfacet
  facet normal -0.233446 -0.97237 0
    outer loop
      vertex 5.26985 1.70376 0
      vertex 5.53305 1.64057 0
      vertex 5.26985 1.70376 5
    endloop
  endfacet
  facet normal -0.382682 -0.92388 0
    outer loop
      vertex 5.78313 1.53699 0
      vertex 5.78313 1.53699 5
      vertex 5.53305 1.64057 5
    endloop
  endfacet
  facet normal -0.382682 -0.92388 0
    outer loop
      vertex 5.53305 1.64057 0
      vertex 5.78313 1.53699 0
      vertex 5.53305 1.64057 5
    endloop
  endfacet
  facet normal -0.522499 -0.85264 0
    outer loop
      vertex 6.01393 1.39555 0
      vertex 6.01393 1.39555 5
      vertex 5.78313 1.53699 5
    endloop
  endfacet
  facet normal -0.522499 -0.85264 0
    outer loop
      vertex 5.78313 1.53699 0
      vertex 6.01393 1.39555 0
      vertex 5.78313 1.53699 5
    endloop
  endfacet
  facet normal -0.649449 -0.760405 0
    outer loop
      vertex 6.21976 1.21976 0
      vertex 6.21976 1.21976 5
      vertex 6.01393 1.39555 5
    endloop
  endfacet
  facet normal -0.649449 -0.760405 0
    outer loop
      vertex 6.01393 1.39555 0
      vertex 6.21976 1.21976 0
      vertex 6.01393 1.39555 5
    endloop
  endfacet
  facet normal -0.760405 -0.649449 0
    outer loop
      vertex 6.39555 1.01393 5
      vertex 6.21976 1.21976 5
      vertex 6.39555 1.01393 0
    endloop
  endfacet
  facet normal -0.760405 -0.649449 0
    outer loop
      vertex 6.39555 1.01393 0
      vertex 6.21976 1.21976 5
      vertex 6.21976 1.21976 0
    endloop
  endfacet
  facet normal -0.85264 -0.522499 0
    outer loop
      vertex 6.53699 0.783134 5
      vertex 6.39555 1.01393 5
      vertex 6.53699 0.783134 0
    endloop
  endfacet
  facet normal -0.85264 -0.522499 0
    outer loop
      vertex 6.53699 0.783134 0
      vertex 6.39555 1.01393 5
      vertex 6.39555 1.01393 0
    endloop
  endfacet
  facet normal -0.92388 -0.382682 0
    outer loop
      vertex 6.64057 0.533054 5
      vertex 6.53699 0.783134 5
      vertex 6.64057 0.533054 0
    endloop
  endfacet
  facet normal -0.92388 -0.382682 0
    outer loop
      vertex 6.64057 0.533054 0
      vertex 6.53699 0.783134 5
      vertex 6.53699 0.783134 0
    endloop
  endfacet
  facet normal -0.97237 -0.233446 0
    outer loop
      vertex 6.70376 0.269849 5
      vertex 6.64057 0.533054 5
      vertex 6.70376 0.269849 0
    endloop
  endfacet
  facet normal -0.97237 -0.233446 0
    outer loop
      vertex 6.70376 0.269849 0
      vertex 6.64057 0.533054 5
      vertex 6.64057 0.533054 0
    endloop
  endfacet
  facet normal -0.996917 -0.0784606 0
    outer loop
      vertex 6.725 0 5
      vertex 6.70376 0.269849 5
      vertex 6.725 0 0
    endloop
  endfacet
  facet normal -0.996917 -0.0784606 0
    outer loop
      vertex 6.725 0 0
      vertex 6.70376 0.269849 5
      vertex 6.70376 0.269849 0
    endloop
  endfacet
  facet normal -0.996917 0.0784606 0
    outer loop
      vertex 6.725 0 5
      vertex 6.725 0 0
      vertex 6.70376 -0.269849 5
    endloop
  endfacet
  facet normal -0.996917 0.0784606 0
    outer loop
      vertex 6.70376 -0.269849 5
      vertex 6.725 0 0
      vertex 6.70376 -0.269849 0
    endloop
  endfacet
  facet normal -0.97237 0.233446 0
    outer loop
      vertex 6.70376 -0.269849 5
      vertex 6.70376 -0.269849 0
      vertex 6.64057 -0.533054 5
    endloop
  endfacet
  facet normal -0.97237 0.233446 0
    outer loop
      vertex 6.64057 -0.533054 5
      vertex 6.70376 -0.269849 0
      vertex 6.64057 -0.533054 0
    endloop
  endfacet
  facet normal -0.92388 0.382682 0
    outer loop
      vertex 6.64057 -0.533054 5
      vertex 6.64057 -0.533054 0
      vertex 6.53699 -0.783134 5
    endloop
  endfacet
  facet normal -0.92388 0.382682 0
    outer loop
      vertex 6.53699 -0.783134 5
      vertex 6.64057 -0.533054 0
      vertex 6.53699 -0.783134 0
    endloop
  endfacet
  facet normal -0.85264 0.522499 0
    outer loop
      vertex 6.53699 -0.783134 5
      vertex 6.53699 -0.783134 0
      vertex 6.39555 -1.01393 5
    endloop
  endfacet
  facet normal -0.85264 0.522499 0
    outer loop
      vertex 6.39555 -1.01393 5
      vertex 6.53699 -0.783134 0
      vertex 6.39555 -1.01393 0
    endloop
  endfacet
  facet normal -0.760405 0.649449 0
    outer loop
      vertex 6.39555 -1.01393 5
      vertex 6.39555 -1.01393 0
      vertex 6.21976 -1.21976 5
    endloop
  endfacet
  facet normal -0.760405 0.649449 0
    outer loop
      vertex 6.21976 -1.21976 5
      vertex 6.39555 -1.01393 0
      vertex 6.21976 -1.21976 0
    endloop
  endfacet
  facet normal -0.649449 0.760405 0
    outer loop
      vertex 6.21976 -1.21976 5
      vertex 6.21976 -1.21976 0
      vertex 6.01393 -1.39555 5
    endloop
  endfacet
  facet normal -0.649449 0.760405 0
    outer loop
      vertex 6.01393 -1.39555 5
      vertex 6.21976 -1.21976 0
      vertex 6.01393 -1.39555 0
    endloop
  endfacet
  facet normal -0.522499 0.85264 0
    outer loop
      vertex 6.01393 -1.39555 5
      vertex 6.01393 -1.39555 0
      vertex 5.78313 -1.53699 5
    endloop
  endfacet
  facet normal -0.522499 0.85264 0
    outer loop
      vertex 5.78313 -1.53699 5
      vertex 6.01393 -1.39555 0
      vertex 5.78313 -1.53699 0
    endloop
  endfacet
  facet normal -0.382682 0.92388 0
    outer loop
      vertex 5.78313 -1.53699 5
      vertex 5.78313 -1.53699 0
      vertex 5.53305 -1.64057 5
    endloop
  endfacet
  facet normal -0.382682 0.92388 0
    outer loop
      vertex 5.53305 -1.64057 5
      vertex 5.78313 -1.53699 0
      vertex 5.53305 -1.64057 0
    endloop
  endfacet
  facet normal -0.233446 0.97237 0
    outer loop
      vertex 5.53305 -1.64057 5
      vertex 5.53305 -1.64057 0
      vertex 5.26985 -1.70376 5
    endloop
  endfacet
  facet normal -0.233446 0.97237 0
    outer loop
      vertex 5.26985 -1.70376 5
      vertex 5.53305 -1.64057 0
      vertex 5.26985 -1.70376 0
    endloop
  endfacet
  facet normal -0.0784606 0.996917 0
    outer loop
      vertex 5.26985 -1.70376 5
      vertex 5.26985 -1.70376 0
      vertex 5 -1.725 5
    endloop
  endfacet
  facet normal -0.0784606 0.996917 0
    outer loop
      vertex 5 -1.725 5
      vertex 5.26985 -1.70376 0
      vertex 5 -1.725 0
    endloop
  endfacet
  facet normal 0.0784606 0.996917 0
    outer loop
      vertex 5 -1.725 5
      vertex 5 -1.725 0
      vertex 4.73015 -1.70376 5
    endloop
  endfacet
  facet normal 0.0784606 0.996917 0
    outer loop
      vertex 4.73015 -1.70376 5
      vertex 5 -1.725 0
      vertex 4.73015 -1.70376 0
    endloop
  endfacet
  facet normal 0.233446 0.97237 0
    outer loop
      vertex 4.73015 -1.70376 5
      vertex 4.73015 -1.70376 0
      vertex 4.46695 -1.64057 5
    endloop
  endfacet
  facet normal 0.233446 0.97237 0
    outer loop
      vertex 4.46695 -1.64057 5
      vertex 4.73015 -1.70376 0
      vertex 4.46695 -1.64057 0
    endloop
  endfacet
  facet normal 0.382682 0.92388 0
    outer loop
      vertex 4.46695 -1.64057 5
      vertex 4.46695 -1.64057 0
      vertex 4.21687 -1.53699 5
    endloop
  endfacet
  facet normal 0.382682 0.92388 0
    outer loop
      vertex 4.21687 -1.53699 5
      vertex 4.46695 -1.64057 0
      vertex 4.21687 -1.53699 0
    endloop
  endfacet
  facet normal 0.522499 0.85264 0
    outer loop
      vertex 4.21687 -1.53699 5
      vertex 4.21687 -1.53699 0
      vertex 3.98607 -1.39555 5
    endloop
  endfacet
  facet normal 0.522499 0.85264 0
    outer loop
      vertex 3.98607 -1.39555 5
      vertex 4.21687 -1.53699 0
      vertex 3.98607 -1.39555 0
    endloop
  endfacet
  facet normal 0.649449 0.760405 0
    outer loop
      vertex 3.98607 -1.39555 5
      vertex 3.98607 -1.39555 0
      vertex 3.78024 -1.21976 5
    endloop
  endfacet
  facet normal 0.649449 0.760405 0
    outer loop
      vertex 3.78024 -1.21976 5
      vertex 3.98607 -1.39555 0
      vertex 3.78024 -1.21976 0
    endloop
  endfacet
  facet normal 0.760405 0.649449 0
    outer loop
      vertex 3.60445 -1.01393 5
      vertex 3.78024 -1.21976 5
      vertex 3.78024 -1.21976 0
    endloop
  endfacet
  facet normal 0.760405 0.649449 0
    outer loop
      vertex 3.60445 -1.01393 0
      vertex 3.60445 -1.01393 5
      vertex 3.78024 -1.21976 0
    endloop
  endfacet
  facet normal 0.85264 0.522499 0
    outer loop
      vertex 3.46301 -0.783134 5
      vertex 3.60445 -1.01393 5
      vertex 3.60445 -1.01393 0
    endloop
  endfacet
  facet normal 0.85264 0.522499 0
    outer loop
      vertex 3.46301 -0.783134 0
      vertex 3.46301 -0.783134 5
      vertex 3.60445 -1.01393 0
    endloop
  endfacet
  facet normal 0.92388 0.382682 0
    outer loop
      vertex 3.35943 -0.533054 5
      vertex 3.46301 -0.783134 5
      vertex 3.46301 -0.783134 0
    endloop
  endfacet
  facet normal 0.92388 0.382682 0
    outer loop
      vertex 3.35943 -0.533054 0
      vertex 3.35943 -0.533054 5
      vertex 3.46301 -0.783134 0
    endloop
  endfacet
  facet normal 0.97237 0.233446 0
    outer loop
      vertex 3.29624 -0.269849 5
      vertex 3.35943 -0.533054 5
      vertex 3.35943 -0.533054 0
    endloop
  endfacet
  facet normal 0.97237 0.233446 0
    outer loop
      vertex 3.29624 -0.269849 0
      vertex 3.29624 -0.269849 5
      vertex 3.35943 -0.533054 0
    endloop
  endfacet
  facet normal -0.996917 -0.0784597 0
    outer loop
      vertex 1 35 5
      vertex 1.04925 34.3743 5
      vertex 1 35 65
    endloop
  endfacet
  facet normal -0.996917 -0.0784597 0
    outer loop
      vertex 1 35 65
      vertex 1.04925 34.3743 5
      vertex 1.04925 34.3743 65
    endloop
  endfacet
  facet normal -0.97237 -0.233445 0
    outer loop
      vertex 1.04925 34.3743 5
      vertex 1.19577 33.7639 5
      vertex 1.04925 34.3743 65
    endloop
  endfacet
  facet normal -0.97237 -0.233445 0
    outer loop
      vertex 1.04925 34.3743 65
      vertex 1.19577 33.7639 5
      vertex 1.19577 33.7639 65
    endloop
  endfacet
  facet normal -0.92388 -0.382683 0
    outer loop
      vertex 1.19577 33.7639 5
      vertex 1.43597 33.184 5
      vertex 1.19577 33.7639 65
    endloop
  endfacet
  facet normal -0.92388 -0.382683 0
    outer loop
      vertex 1.19577 33.7639 65
      vertex 1.43597 33.184 5
      vertex 1.43597 33.184 65
    endloop
  endfacet
  facet normal -0.85264 -0.522498 0
    outer loop
      vertex 1.43597 33.184 5
      vertex 1.76393 32.6489 5
      vertex 1.43597 33.184 65
    endloop
  endfacet
  facet normal -0.85264 -0.522498 0
    outer loop
      vertex 1.43597 33.184 65
      vertex 1.76393 32.6489 5
      vertex 1.76393 32.6489 65
    endloop
  endfacet
  facet normal -0.760406 -0.649448 0
    outer loop
      vertex 1.76393 32.6489 5
      vertex 2.17157 32.1716 5
      vertex 1.76393 32.6489 65
    endloop
  endfacet
  facet normal -0.760406 -0.649448 0
    outer loop
      vertex 1.76393 32.6489 65
      vertex 2.17157 32.1716 5
      vertex 2.17157 32.1716 65
    endloop
  endfacet
  facet normal -0.649448 -0.760406 0
    outer loop
      vertex 2.17157 32.1716 65
      vertex 2.17157 32.1716 5
      vertex 2.64886 31.7639 5
    endloop
  endfacet
  facet normal -0.649448 -0.760406 0
    outer loop
      vertex 2.64886 31.7639 65
      vertex 2.17157 32.1716 65
      vertex 2.64886 31.7639 5
    endloop
  endfacet
  facet normal -0.522498 -0.85264 0
    outer loop
      vertex 2.64886 31.7639 65
      vertex 2.64886 31.7639 5
      vertex 3.18404 31.436 5
    endloop
  endfacet
  facet normal -0.522498 -0.85264 0
    outer loop
      vertex 3.18404 31.436 65
      vertex 2.64886 31.7639 65
      vertex 3.18404 31.436 5
    endloop
  endfacet
  facet normal -0.382683 -0.92388 0
    outer loop
      vertex 3.18404 31.436 65
      vertex 3.18404 31.436 5
      vertex 3.76393 31.1958 5
    endloop
  endfacet
  facet normal -0.382683 -0.92388 0
    outer loop
      vertex 3.76393 31.1958 65
      vertex 3.18404 31.436 65
      vertex 3.76393 31.1958 5
    endloop
  endfacet
  facet normal -0.233445 -0.97237 0
    outer loop
      vertex 3.76393 31.1958 65
      vertex 3.76393 31.1958 5
      vertex 4.37426 31.0492 5
    endloop
  endfacet
  facet normal -0.233445 -0.97237 0
    outer loop
      vertex 4.37426 31.0492 65
      vertex 3.76393 31.1958 65
      vertex 4.37426 31.0492 5
    endloop
  endfacet
  facet normal -0.0784597 -0.996917 0
    outer loop
      vertex 4.37426 31.0492 65
      vertex 4.37426 31.0492 5
      vertex 5 31 5
    endloop
  endfacet
  facet normal -0.0784597 -0.996917 0
    outer loop
      vertex 5 31 65
      vertex 4.37426 31.0492 65
      vertex 5 31 5
    endloop
  endfacet
  facet normal 0.0784597 -0.996917 0
    outer loop
      vertex 5 31 65
      vertex 5 31 5
      vertex 5.62574 31.0492 5
    endloop
  endfacet
  facet normal 0.0784597 -0.996917 0
    outer loop
      vertex 5.62574 31.0492 65
      vertex 5 31 65
      vertex 5.62574 31.0492 5
    endloop
  endfacet
  facet normal 0.233445 -0.97237 0
    outer loop
      vertex 5.62574 31.0492 65
      vertex 5.62574 31.0492 5
      vertex 6.23607 31.1958 5
    endloop
  endfacet
  facet normal 0.233445 -0.97237 0
    outer loop
      vertex 6.23607 31.1958 65
      vertex 5.62574 31.0492 65
      vertex 6.23607 31.1958 5
    endloop
  endfacet
  facet normal 0.382683 -0.92388 0
    outer loop
      vertex 6.23607 31.1958 65
      vertex 6.23607 31.1958 5
      vertex 6.81596 31.436 5
    endloop
  endfacet
  facet normal 0.382683 -0.92388 0
    outer loop
      vertex 6.81596 31.436 65
      vertex 6.23607 31.1958 65
      vertex 6.81596 31.436 5
    endloop
  endfacet
  facet normal 0.522498 -0.85264 0
    outer loop
      vertex 6.81596 31.436 65
      vertex 6.81596 31.436 5
      vertex 7.35114 31.7639 5
    endloop
  endfacet
  facet normal 0.522498 -0.85264 0
    outer loop
      vertex 7.35114 31.7639 65
      vertex 6.81596 31.436 65
      vertex 7.35114 31.7639 5
    endloop
  endfacet
  facet normal 0.649448 -0.760406 0
    outer loop
      vertex 7.35114 31.7639 65
      vertex 7.35114 31.7639 5
      vertex 7.82843 32.1716 5
    endloop
  endfacet
  facet normal 0.649448 -0.760406 0
    outer loop
      vertex 7.82843 32.1716 65
      vertex 7.35114 31.7639 65
      vertex 7.82843 32.1716 5
    endloop
  endfacet
  facet normal 0.760406 -0.649448 0
    outer loop
      vertex 7.82843 32.1716 65
      vertex 7.82843 32.1716 5
      vertex 8.23607 32.6489 5
    endloop
  endfacet
  facet normal 0.760406 -0.649448 0
    outer loop
      vertex 8.23607 32.6489 65
      vertex 7.82843 32.1716 65
      vertex 8.23607 32.6489 5
    endloop
  endfacet
  facet normal 0.85264 -0.522498 0
    outer loop
      vertex 8.23607 32.6489 65
      vertex 8.23607 32.6489 5
      vertex 8.56403 33.184 5
    endloop
  endfacet
  facet normal 0.85264 -0.522498 0
    outer loop
      vertex 8.56403 33.184 65
      vertex 8.23607 32.6489 65
      vertex 8.56403 33.184 5
    endloop
  endfacet
  facet normal 0.92388 -0.382683 0
    outer loop
      vertex 8.56403 33.184 65
      vertex 8.56403 33.184 5
      vertex 8.80423 33.7639 5
    endloop
  endfacet
  facet normal 0.92388 -0.382683 0
    outer loop
      vertex 8.80423 33.7639 65
      vertex 8.56403 33.184 65
      vertex 8.80423 33.7639 5
    endloop
  endfacet
  facet normal 0.97237 -0.233445 0
    outer loop
      vertex 8.80423 33.7639 65
      vertex 8.80423 33.7639 5
      vertex 8.95075 34.3743 5
    endloop
  endfacet
  facet normal 0.97237 -0.233445 0
    outer loop
      vertex 8.95075 34.3743 65
      vertex 8.80423 33.7639 65
      vertex 8.95075 34.3743 5
    endloop
  endfacet
  facet normal 0.996917 -0.0784597 0
    outer loop
      vertex 8.95075 34.3743 65
      vertex 8.95075 34.3743 5
      vertex 9 35 5
    endloop
  endfacet
  facet normal 0.996917 -0.0784597 0
    outer loop
      vertex 9 35 65
      vertex 8.95075 34.3743 65
      vertex 9 35 5
    endloop
  endfacet
  facet normal 0.996917 0.0784597 0
    outer loop
      vertex 9 35 5
      vertex 8.95075 35.6257 5
      vertex 8.95075 35.6257 65
    endloop
  endfacet
  facet normal 0.996917 0.0784597 0
    outer loop
      vertex 9 35 65
      vertex 9 35 5
      vertex 8.95075 35.6257 65
    endloop
  endfacet
  facet normal 0.97237 0.233445 0
    outer loop
      vertex 8.95075 35.6257 5
      vertex 8.80423 36.2361 5
      vertex 8.80423 36.2361 65
    endloop
  endfacet
  facet normal 0.97237 0.233445 0
    outer loop
      vertex 8.95075 35.6257 65
      vertex 8.95075 35.6257 5
      vertex 8.80423 36.2361 65
    endloop
  endfacet
  facet normal 0.92388 0.382683 0
    outer loop
      vertex 8.80423 36.2361 5
      vertex 8.56403 36.816 5
      vertex 8.56403 36.816 65
    endloop
  endfacet
  facet normal 0.92388 0.382683 0
    outer loop
      vertex 8.80423 36.2361 65
      vertex 8.80423 36.2361 5
      vertex 8.56403 36.816 65
    endloop
  endfacet
  facet normal 0.85264 0.522498 0
    outer loop
      vertex 8.56403 36.816 5
      vertex 8.23607 37.3511 5
      vertex 8.23607 37.3511 65
    endloop
  endfacet
  facet normal 0.85264 0.522498 0
    outer loop
      vertex 8.56403 36.816 65
      vertex 8.56403 36.816 5
      vertex 8.23607 37.3511 65
    endloop
  endfacet
  facet normal 0.760406 0.649448 0
    outer loop
      vertex 8.23607 37.3511 5
      vertex 7.82843 37.8284 5
      vertex 7.82843 37.8284 65
    endloop
  endfacet
  facet normal 0.760406 0.649448 0
    outer loop
      vertex 8.23607 37.3511 65
      vertex 8.23607 37.3511 5
      vertex 7.82843 37.8284 65
    endloop
  endfacet
  facet normal 0.649448 0.760406 0
    outer loop
      vertex 7.35114 38.2361 5
      vertex 7.35114 38.2361 65
      vertex 7.82843 37.8284 5
    endloop
  endfacet
  facet normal 0.649448 0.760406 0
    outer loop
      vertex 7.82843 37.8284 5
      vertex 7.35114 38.2361 65
      vertex 7.82843 37.8284 65
    endloop
  endfacet
  facet normal 0.522498 0.85264 0
    outer loop
      vertex 6.81596 38.564 5
      vertex 6.81596 38.564 65
      vertex 7.35114 38.2361 5
    endloop
  endfacet
  facet normal 0.522498 0.85264 0
    outer loop
      vertex 7.35114 38.2361 5
      vertex 6.81596 38.564 65
      vertex 7.35114 38.2361 65
    endloop
  endfacet
  facet normal 0.382683 0.92388 0
    outer loop
      vertex 6.23607 38.8042 5
      vertex 6.23607 38.8042 65
      vertex 6.81596 38.564 5
    endloop
  endfacet
  facet normal 0.382683 0.92388 0
    outer loop
      vertex 6.81596 38.564 5
      vertex 6.23607 38.8042 65
      vertex 6.81596 38.564 65
    endloop
  endfacet
  facet normal 0.233445 0.97237 0
    outer loop
      vertex 5.62574 38.9508 5
      vertex 5.62574 38.9508 65
      vertex 6.23607 38.8042 5
    endloop
  endfacet
  facet normal 0.233445 0.97237 0
    outer loop
      vertex 6.23607 38.8042 5
      vertex 5.62574 38.9508 65
      vertex 6.23607 38.8042 65
    endloop
  endfacet
  facet normal 0.0784597 0.996917 0
    outer loop
      vertex 5 39 5
      vertex 5 39 65
      vertex 5.62574 38.9508 5
    endloop
  endfacet
  facet normal 0.0784597 0.996917 0
    outer loop
      vertex 5.62574 38.9508 5
      vertex 5 39 65
      vertex 5.62574 38.9508 65
    endloop
  endfacet
  facet normal -0.0784597 0.996917 0
    outer loop
      vertex 4.37426 38.9508 5
      vertex 4.37426 38.9508 65
      vertex 5 39 5
    endloop
  endfacet
  facet normal -0.0784597 0.996917 0
    outer loop
      vertex 5 39 5
      vertex 4.37426 38.9508 65
      vertex 5 39 65
    endloop
  endfacet
  facet normal -0.233445 0.97237 0
    outer loop
      vertex 3.76393 38.8042 5
      vertex 3.76393 38.8042 65
      vertex 4.37426 38.9508 5
    endloop
  endfacet
  facet normal -0.233445 0.97237 0
    outer loop
      vertex 4.37426 38.9508 5
      vertex 3.76393 38.8042 65
      vertex 4.37426 38.9508 65
    endloop
  endfacet
  facet normal -0.382683 0.92388 0
    outer loop
      vertex 3.18404 38.564 5
      vertex 3.18404 38.564 65
      vertex 3.76393 38.8042 5
    endloop
  endfacet
  facet normal -0.382683 0.92388 0
    outer loop
      vertex 3.76393 38.8042 5
      vertex 3.18404 38.564 65
      vertex 3.76393 38.8042 65
    endloop
  endfacet
  facet normal -0.522498 0.85264 0
    outer loop
      vertex 2.64886 38.2361 5
      vertex 2.64886 38.2361 65
      vertex 3.18404 38.564 5
    endloop
  endfacet
  facet normal -0.522498 0.85264 0
    outer loop
      vertex 3.18404 38.564 5
      vertex 2.64886 38.2361 65
      vertex 3.18404 38.564 65
    endloop
  endfacet
  facet normal -0.649448 0.760406 0
    outer loop
      vertex 2.17157 37.8284 5
      vertex 2.17157 37.8284 65
      vertex 2.64886 38.2361 5
    endloop
  endfacet
  facet normal -0.649448 0.760406 0
    outer loop
      vertex 2.64886 38.2361 5
      vertex 2.17157 37.8284 65
      vertex 2.64886 38.2361 65
    endloop
  endfacet
  facet normal -0.760406 0.649448 0
    outer loop
      vertex 1.76393 37.3511 5
      vertex 1.76393 37.3511 65
      vertex 2.17157 37.8284 5
    endloop
  endfacet
  facet normal -0.760406 0.649448 0
    outer loop
      vertex 2.17157 37.8284 5
      vertex 1.76393 37.3511 65
      vertex 2.17157 37.8284 65
    endloop
  endfacet
  facet normal -0.85264 0.522498 0
    outer loop
      vertex 1.43597 36.816 5
      vertex 1.43597 36.816 65
      vertex 1.76393 37.3511 5
    endloop
  endfacet
  facet normal -0.85264 0.522498 0
    outer loop
      vertex 1.76393 37.3511 5
      vertex 1.43597 36.816 65
      vertex 1.76393 37.3511 65
    endloop
  endfacet
  facet normal -0.92388 0.382683 0
    outer loop
      vertex 1.19577 36.2361 5
      vertex 1.19577 36.2361 65
      vertex 1.43597 36.816 5
    endloop
  endfacet
  facet normal -0.92388 0.382683 0
    outer loop
      vertex 1.43597 36.816 5
      vertex 1.19577 36.2361 65
      vertex 1.43597 36.816 65
    endloop
  endfacet
  facet normal -0.97237 0.233445 0
    outer loop
      vertex 1.04925 35.6257 5
      vertex 1.04925 35.6257 65
      vertex 1.19577 36.2361 5
    endloop
  endfacet
  facet normal -0.97237 0.233445 0
    outer loop
      vertex 1.19577 36.2361 5
      vertex 1.04925 35.6257 65
      vertex 1.19577 36.2361 65
    endloop
  endfacet
  facet normal -0.996917 0.0784597 0
    outer loop
      vertex 1 35 5
      vertex 1 35 65
      vertex 1.04925 35.6257 5
    endloop
  endfacet
  facet normal -0.996917 0.0784597 0
    outer loop
      vertex 1.04925 35.6257 5
      vertex 1 35 65
      vertex 1.04925 35.6257 65
    endloop
  endfacet
  facet normal 0 0 1
    outer loop
      vertex 1.04925 35.6257 65
      vertex 1 35 65
      vertex 1.04925 34.3743 65
    endloop
  endfacet
  facet normal 0 0 1
    outer loop
      vertex 1.43597 33.184 65
      vertex 1.04925 35.6257 65
      vertex 1.19577 33.7639 65
    endloop
  endfacet
  facet normal 0 0 1
    outer loop
      vertex 1.19577 33.7639 65
      vertex 1.04925 35.6257 65
      vertex 1.04925 34.3743 65
    endloop
  endfacet
  facet normal 0 0 1
    outer loop
      vertex 1.76393 32.6489 65
      vertex 1.04925 35.6257 65
      vertex 1.43597 33.184 65
    endloop
  endfacet
  facet normal 0 0 1
    outer loop
      vertex 2.17157 32.1716 65
      vertex 1.04925 35.6257 65
      vertex 1.76393 32.6489 65
    endloop
  endfacet
  facet normal 0 0 1
    outer loop
      vertex 2.64886 31.7639 65
      vertex 1.04925 35.6257 65
      vertex 2.17157 32.1716 65
    endloop
  endfacet
  facet normal 0 0 1
    outer loop
      vertex 3.18404 31.436 65
      vertex 1.04925 35.6257 65
      vertex 2.64886 31.7639 65
    endloop
  endfacet
  facet normal 0 0 1
    outer loop
      vertex 3.76393 31.1958 65
      vertex 1.04925 35.6257 65
      vertex 3.18404 31.436 65
    endloop
  endfacet
  facet normal 0 0 1
    outer loop
      vertex 4.37426 31.0492 65
      vertex 1.04925 35.6257 65
      vertex 3.76393 31.1958 65
    endloop
  endfacet
  facet normal 0 0 1
    outer loop
      vertex 5 31 65
      vertex 1.04925 35.6257 65
      vertex 4.37426 31.0492 65
    endloop
  endfacet
  facet normal 0 0 1
    outer loop
      vertex 5.62574 31.0492 65
      vertex 1.04925 35.6257 65
      vertex 5 31 65
    endloop
  endfacet
  facet normal 0 0 1
    outer loop
      vertex 6.23607 31.1958 65
      vertex 1.04925 35.6257 65
      vertex 5.62574 31.0492 65
    endloop
  endfacet
  facet normal 0 0 1
    outer loop
      vertex 6.81596 31.436 65
      vertex 1.04925 35.6257 65
      vertex 6.23607 31.1958 65
    endloop
  endfacet
  facet normal 0 0 1
    outer loop
      vertex 7.35114 31.7639 65
      vertex 1.04925 35.6257 65
      vertex 6.81596 31.436 65
    endloop
  endfacet
  facet normal 0 0 1
    outer loop
      vertex 7.82843 32.1716 65
      vertex 1.04925 35.6257 65
      vertex 7.35114 31.7639 65
    endloop
  endfacet
  facet normal 0 0 1
    outer loop
      vertex 8.23607 32.6489 65
      vertex 1.04925 35.6257 65
      vertex 7.82843 32.1716 65
    endloop
  endfacet
  facet normal 0 0 1
    outer loop
      vertex 8.56403 33.184 65
      vertex 1.04925 35.6257 65
      vertex 8.23607 32.6489 65
    endloop
  endfacet
  facet normal 0 0 1
    outer loop
      vertex 8.80423 33.7639 65
      vertex 1.04925 35.6257 65
      vertex 8.56403 33.184 65
    endloop
  endfacet
  facet normal 0 0 1
    outer loop
      vertex 8.95075 34.3743 65
      vertex 1.04925 35.6257 65
      vertex 8.80423 33.7639 65
    endloop
  endfacet
  facet normal 0 0 1
    outer loop
      vertex 9 35 65
      vertex 1.04925 35.6257 65
      vertex 8.95075 34.3743 65
    endloop
  endfacet
  facet normal 0 0 1
    outer loop
      vertex 8.95075 35.6257 65
      vertex 1.04925 35.6257 65
      vertex 9 35 65
    endloop
  endfacet
  facet normal 0 0 1
    outer loop
      vertex 8.80423 36.2361 65
      vertex 1.04925 35.6257 65
      vertex 8.95075 35.6257 65
    endloop
  endfacet
  facet normal 0 0 1
    outer loop
      vertex 8.56403 36.816 65
      vertex 1.04925 35.6257 65
      vertex 8.80423 36.2361 65
    endloop
  endfacet
  facet normal 0 0 1
    outer loop
      vertex 8.23607 37.3511 65
      vertex 1.04925 35.6257 65
      vertex 8.56403 36.816 65
    endloop
  endfacet
  facet normal 0 0 1
    outer loop
      vertex 7.82843 37.8284 65
      vertex 1.04925 35.6257 65
      vertex 8.23607 37.3511 65
    endloop
  endfacet
  facet normal 0 0 1
    outer loop
      vertex 7.35114 38.2361 65
      vertex 1.04925 35.6257 65
      vertex 7.82843 37.8284 65
    endloop
  endfacet
  facet normal 0 0 1
    outer loop
      vertex 6.81596 38.564 65
      vertex 1.04925 35.6257 65
      vertex 7.35114 38.2361 65
    endloop
  endfacet
  facet normal 0 0 1
    outer loop
      vertex 6.23607 38.8042 65
      vertex 1.04925 35.6257 65
      vertex 6.81596 38.564 65
    endloop
  endfacet
  facet normal 0 0 1
    outer loop
      vertex 5.62574 38.9508 65
      vertex 1.04925 35.6257 65
      vertex 6.23607 38.8042 65
    endloop
  endfacet
  facet normal 0 0 1
    outer loop
      vertex 5 39 65
      vertex 1.04925 35.6257 65
      vertex 5.62574 38.9508 65
    endloop
  endfacet
  facet normal 0 0 1
    outer loop
      vertex 4.37426 38.9508 65
      vertex 1.04925 35.6257 65
      vertex 5 39 65
    endloop
  endfacet
  facet normal 0 0 1
    outer loop
      vertex 3.76393 38.8042 65
      vertex 1.04925 35.6257 65
      vertex 4.37426 38.9508 65
    endloop
  endfacet
  facet normal 0 0 1
    outer loop
      vertex 3.18404 38.564 65
      vertex 1.04925 35.6257 65
      vertex 3.76393 38.8042 65
    endloop
  endfacet
  facet normal 0 0 1
    outer loop
      vertex 2.64886 38.2361 65
      vertex 1.04925 35.6257 65
      vertex 3.18404 38.564 65
    endloop
  endfacet
  facet normal 0 0 1
    outer loop
      vertex 2.17157 37.8284 65
      vertex 1.04925 35.6257 65
      vertex 2.64886 38.2361 65
    endloop
  endfacet
  facet normal 0 0 1
    outer loop
      vertex 1.76393 37.3511 65
      vertex 1.04925 35.6257 65
      vertex 2.17157 37.8284 65
    endloop
  endfacet
  facet normal 0 0 1
    outer loop
      vertex 1.43597 36.816 65
      vertex 1.04925 35.6257 65
      vertex 1.76393 37.3511 65
    endloop
  endfacet
  facet normal 0 0 1
    outer loop
      vertex 1.19577 36.2361 65
      vertex 1.04925 35.6257 65
      vertex 1.43597 36.816 65
    endloop
  endfacet
endsolid OpenSCAD_Model
